<?xml version="1.0" encoding="utf-8"?>
<!-- Generator: Adobe Illustrator 22.1.0, SVG Export Plug-In . SVG Version: 6.00 Build 0)  -->
<svg version="1.1"
	 id="svg4423" inkscape:version="0.48.1 r9760" sodipodi:docname="10D.svg" xmlns:cc="http://creativecommons.org/ns#" xmlns:dc="http://purl.org/dc/elements/1.1/" xmlns:inkscape="http://www.inkscape.org/namespaces/inkscape" xmlns:rdf="http://www.w3.org/1999/02/22-rdf-syntax-ns#" xmlns:sodipodi="http://sodipodi.sourceforge.net/DTD/sodipodi-0.dtd" xmlns:svg="http://www.w3.org/2000/svg"
	 xmlns="http://www.w3.org/2000/svg" xmlns:xlink="http://www.w3.org/1999/xlink" x="0px" y="0px" viewBox="0 0 286 400"
	 style="enable-background:new 0 0 286 400;" xml:space="preserve">
<style type="text/css">
	.st0{fill:#D40000;}
</style>
<sodipodi:namedview  bordercolor="#666666" borderopacity="1.0" id="base" inkscape:current-layer="layer1" inkscape:cx="173.68413" inkscape:cy="458.50242" inkscape:document-units="px" inkscape:pageopacity="0.0" inkscape:pageshadow="2" inkscape:snap-bbox="true" inkscape:snap-global="true" inkscape:snap-page="true" inkscape:window-height="925" inkscape:window-maximized="0" inkscape:window-width="734" inkscape:window-x="848" inkscape:window-y="86" inkscape:zoom="0.69999999" pagecolor="#ffffff" showgrid="false">
	</sodipodi:namedview>
<path id="path3327-7" inkscape:connector-curvature="0" sodipodi:nodetypes="ccccc" class="st0" d="M42.1,73.5
	c12.7-12.4,21.1-26,29-39c7,14.3,17,26.9,27.9,39c-11.6,12-20.6,24.9-27.9,38.4C63.1,98,54.7,85.5,42.1,73.5z"/>
<path id="path3333" inkscape:connector-curvature="0" sodipodi:nodetypes="ccccc" class="st0" d="M42.1,157.3
	c12.7-12.4,21.1-26,29-39c7,14.3,17,26.9,27.9,39c-11.6,12-20.6,24.9-27.9,38.4C63.1,181.9,54.7,169.3,42.1,157.3z"/>
<path id="path3335" inkscape:connector-curvature="0" sodipodi:nodetypes="ccccc" class="st0" d="M42.1,243.1
	c12.7-12.4,21.1-26,29-39c7,14.3,17,26.9,27.9,39c-11.6,12-20.6,24.9-27.9,38.4C63.1,267.7,54.7,255.1,42.1,243.1L42.1,243.1z"/>
<path id="path3337" inkscape:connector-curvature="0" sodipodi:nodetypes="ccccc" class="st0" d="M42.1,326.7
	c12.7-12.4,21.1-26,29-39c7,14.3,17,26.9,27.9,39c-11.6,12-20.6,24.9-27.9,38.4C63.1,351.2,54.7,338.6,42.1,326.7L42.1,326.7z"/>
<path id="path3339" inkscape:connector-curvature="0" sodipodi:nodetypes="ccccc" class="st0" d="M114.1,117.6
	c12.7-12.4,21.1-26,29-39c7,14.3,17,26.9,27.9,39c-11.6,12-20.6,24.9-27.9,38.4C135.1,142.1,126.7,129.6,114.1,117.6z"/>
<path id="path3343" inkscape:connector-curvature="0" sodipodi:nodetypes="ccccc" class="st0" d="M113.5,282.2
	c12.7-12.4,21.1-26,29-39c7,14.3,17,26.9,27.9,39c-11.6,12-20.6,24.9-27.9,38.4C134.5,306.8,126.1,294.2,113.5,282.2L113.5,282.2z"
	/>
<path id="path3345" inkscape:connector-curvature="0" sodipodi:nodetypes="ccccc" class="st0" d="M185,73.5c12.7-12.4,21.1-26,29-39
	c7,14.3,17,26.9,27.9,39c-11.6,12-20.6,24.9-27.9,38.4C206,98,197.6,85.5,185,73.5z"/>
<path id="path3351" inkscape:connector-curvature="0" sodipodi:nodetypes="ccccc" class="st0" d="M185,157.3
	c12.7-12.4,21.1-26,29-39c7,14.3,17,26.9,27.9,39c-11.6,12-20.6,24.9-27.9,38.4C206,181.9,197.6,169.3,185,157.3z"/>
<path id="path3353" inkscape:connector-curvature="0" sodipodi:nodetypes="ccccc" class="st0" d="M185,243.1
	c12.7-12.4,21.1-26,29-39c7,14.3,17,26.9,27.9,39c-11.6,12-20.6,24.9-27.9,38.4C206,267.7,197.6,255.1,185,243.1z"/>
<path id="path3355" inkscape:connector-curvature="0" sodipodi:nodetypes="ccccc" class="st0" d="M185,326.7
	c12.7-12.4,21.1-26,29-39c7,14.3,17,26.9,27.9,39c-11.6,12-20.6,24.9-27.9,38.4C206,351.2,197.6,338.6,185,326.7z"/>
<path id="path3702" inkscape:connector-curvature="0" sodipodi:nodetypes="ccccc" class="st0" d="M252.3,318.9
	c5.2-5.1,8.6-10.6,11.9-16c2.9,5.9,7,11,11.4,16c-4.8,4.9-8.5,10.2-11.4,15.7C260.9,329,257.4,323.8,252.3,318.9z"/>
<path id="path3704" inkscape:connector-curvature="0" sodipodi:nodetypes="ccccc" class="st0" d="M10.4,80.5
	c5.2-5.1,8.6-10.6,11.9-16c2.9,5.9,7,11,11.4,16c-4.8,4.9-8.5,10.2-11.4,15.7C19,90.5,15.5,85.4,10.4,80.5z"/>
<path id="path7216-7" inkscape:connector-curvature="0" sodipodi:nodetypes="ccccc" class="st0" d="M9.8,58.2V17.8h4v40.4H9.8z"/>
<path id="rect7235-8" inkscape:connector-curvature="0" class="st0" d="M25.6,17.8c-3.8,0-6.9,3.4-6.9,7.7v25c0,4.3,3.1,7.7,6.9,7.7
	h2.2c3.8,0,6.9-3.4,6.9-7.7v-25c0-4.3-3.1-7.7-6.9-7.7H25.6z M26.7,21.6c2.3,0,4.1,1.7,4.1,3.9v25.3c0,2.1-1.8,3.9-4.1,3.9
	s-4.1-1.7-4.1-3.9V25.4C22.6,23.3,24.5,21.6,26.7,21.6z"/>
<path id="path7986-3" inkscape:connector-curvature="0" sodipodi:nodetypes="ccccc" class="st0" d="M276.2,341.8v40.4h-4v-40.4
	H276.2z"/>
<path id="path7988-7" inkscape:connector-curvature="0" class="st0" d="M260.4,382.2c3.8,0,6.9-3.4,6.9-7.7v-25
	c0-4.3-3.1-7.7-6.9-7.7h-2.2c-3.8,0-6.9,3.4-6.9,7.7v25c0,4.3,3.1,7.7,6.9,7.7H260.4z M259.3,378.4c-2.3,0-4.1-1.7-4.1-3.9v-25.3
	c0-2.1,1.8-3.9,4.1-3.9c2.3,0,4.1,1.7,4.1,3.9v25.3C263.4,376.7,261.5,378.4,259.3,378.4z"/>
</svg>
