<?xml version="1.0" encoding="utf-8"?>
<!-- Generator: Adobe Illustrator 22.1.0, SVG Export Plug-In . SVG Version: 6.00 Build 0)  -->
<svg version="1.1"
	 id="svg4423" inkscape:version="0.48.1 r9760" sodipodi:docname="10H.svg" xmlns:cc="http://creativecommons.org/ns#" xmlns:dc="http://purl.org/dc/elements/1.1/" xmlns:inkscape="http://www.inkscape.org/namespaces/inkscape" xmlns:rdf="http://www.w3.org/1999/02/22-rdf-syntax-ns#" xmlns:sodipodi="http://sodipodi.sourceforge.net/DTD/sodipodi-0.dtd" xmlns:svg="http://www.w3.org/2000/svg"
	 xmlns="http://www.w3.org/2000/svg" xmlns:xlink="http://www.w3.org/1999/xlink" x="0px" y="0px" viewBox="0 0 286 400"
	 style="enable-background:new 0 0 286 400;" xml:space="preserve">
<style type="text/css">
	.st0{fill:#D40000;}
</style>
<sodipodi:namedview  bordercolor="#666666" borderopacity="1.0" id="base" inkscape:current-layer="layer1" inkscape:cx="126.73995" inkscape:cy="451.52252" inkscape:document-units="px" inkscape:pageopacity="0.0" inkscape:pageshadow="2" inkscape:snap-bbox="true" inkscape:snap-global="true" inkscape:snap-page="true" inkscape:window-height="925" inkscape:window-maximized="0" inkscape:window-width="735" inkscape:window-x="705" inkscape:window-y="60" inkscape:zoom="0.69999999" pagecolor="#ffffff" showgrid="false">
	</sodipodi:namedview>
<path id="path7216" inkscape:connector-curvature="0" sodipodi:nodetypes="ccccc" class="st0" d="M9.8,58.2V17.8h4v40.4H9.8z"/>
<path id="rect7235" inkscape:connector-curvature="0" class="st0" d="M25.6,17.8c-3.8,0-6.9,3.4-6.9,7.7v25c0,4.3,3.1,7.7,6.9,7.7
	h2.2c3.8,0,6.9-3.4,6.9-7.7v-25c0-4.3-3.1-7.7-6.9-7.7H25.6z M26.7,21.6c2.3,0,4.1,1.7,4.1,3.9v25.3c0,2.1-1.8,3.9-4.1,3.9
	s-4.1-1.7-4.1-3.9V25.4C22.6,23.3,24.5,21.6,26.7,21.6z"/>
<path id="path7986" inkscape:connector-curvature="0" sodipodi:nodetypes="ccccc" class="st0" d="M276.2,341.8v40.4h-4v-40.4H276.2z
	"/>
<path id="path7988" inkscape:connector-curvature="0" class="st0" d="M260.4,382.2c3.8,0,6.9-3.4,6.9-7.7v-25c0-4.3-3.1-7.7-6.9-7.7
	h-2.2c-3.8,0-6.9,3.4-6.9,7.7v25c0,4.3,3.1,7.7,6.9,7.7H260.4z M259.3,378.4c-2.3,0-4.1-1.7-4.1-3.9v-25.3c0-2.1,1.8-3.9,4.1-3.9
	c2.3,0,4.1,1.7,4.1,3.9v25.3C263.4,376.7,261.5,378.4,259.3,378.4z"/>
<path id="path8644" inkscape:connector-curvature="0" sodipodi:nodetypes="cccccccc" class="st0" d="M10.9,77.1
	c-2-4.5-2.3-12.1,3.8-13.1c4.6-0.6,6.4,1.5,6.8,4.8c0.2,1,0.7,1,0.9-0.1c0.3-3.3,3.6-5.3,6.2-4.8c7.1,1.2,6.7,9,4.4,14.3
	c-3.5,7-7.2,11.5-10.6,18.5C18.5,89.5,14,83.5,10.9,77.1L10.9,77.1z"/>
<path id="path8568" inkscape:connector-curvature="0" sodipodi:nodetypes="ccccsccssc" class="st0" d="M55.1,36.3
	c9.2-0.6,13.9,7.2,14.9,13.4c0.6,1,0.9,0.7,1.1-0.1c0.4-7.9,7.5-14.4,14.1-13.5c10.7,0.1,17.2,12,15.3,22.1
	c-2.2,12.3-8.8,19.7-13.8,27.3c-5.7,7.9-13.3,19.3-15.7,24.8c0,0-7.7-11.8-17.8-25.7c-6.7-9.3-12.1-19.3-12.6-28
	C39.8,46.7,43.9,37.9,55.1,36.3L55.1,36.3z"/>
<path id="path8570" inkscape:connector-curvature="0" sodipodi:nodetypes="ccccsccssc" class="st0" d="M127.1,78.2
	c9.2-0.6,13.9,7.2,14.9,13.4c0.6,1,0.9,0.7,1.1-0.1c0.4-7.9,7.5-14.4,14.1-13.5c10.7,0.1,17.2,12,15.3,22.1
	c-2.2,12.3-8.8,19.7-13.8,27.3c-5.7,7.9-13.3,19.3-15.7,24.8c0,0-7.7-11.8-17.8-25.7c-6.7-9.3-12.1-19.3-12.6-28
	C111.8,88.6,115.9,79.8,127.1,78.2L127.1,78.2z"/>
<path id="path8572" inkscape:connector-curvature="0" sodipodi:nodetypes="ccccsccssc" class="st0" d="M198,36.3
	c9.2-0.6,13.9,7.2,14.9,13.4c0.6,1,0.9,0.7,1.1-0.1c0.4-7.9,7.5-14.4,14.1-13.5c10.7,0.1,17.2,12,15.3,22.1
	c-2.2,12.3-8.8,19.7-13.8,27.3c-5.7,7.9-13.3,19.3-15.7,24.8c0,0-7.7-11.8-17.8-25.7c-6.7-9.3-12.1-19.3-12.6-28
	C182.7,46.7,186.8,37.9,198,36.3L198,36.3z"/>
<path id="path8574" inkscape:connector-curvature="0" sodipodi:nodetypes="ccccsccssc" class="st0" d="M198,120.1
	c9.2-0.6,13.9,7.2,14.9,13.4c0.6,1,0.9,0.7,1.1-0.1c0.4-7.9,7.5-14.4,14.1-13.5c10.7,0.1,17.2,12,15.3,22.1
	c-2.2,12.3-8.8,19.7-13.8,27.3c-5.7,7.9-13.3,19.3-15.7,24.8c0,0-7.7-11.8-17.8-25.7c-6.7-9.3-12.1-19.3-12.6-28
	C182.7,130.5,186.8,121.7,198,120.1L198,120.1z"/>
<path id="path8576" inkscape:connector-curvature="0" sodipodi:nodetypes="ccccsccssc" class="st0" d="M55.1,120.1
	c9.2-0.6,13.9,7.2,14.9,13.4c0.6,1,0.9,0.7,1.1-0.1c0.4-7.9,7.5-14.4,14.1-13.5c10.7,0.1,17.2,12,15.3,22.1
	c-2.2,12.3-8.8,19.7-13.8,27.3c-5.7,7.9-13.3,19.3-15.7,24.8c0,0-7.7-11.8-17.8-25.7c-6.7-9.3-12.1-19.3-12.6-28
	C39.8,130.5,43.9,121.7,55.1,120.1L55.1,120.1z"/>
<path id="path8596" inkscape:connector-curvature="0" sodipodi:nodetypes="ccccsccssc" class="st0" d="M198,279.7
	c9.2,0.6,13.9-7.2,14.9-13.4c0.6-1,0.9-0.7,1.1,0.1c0.4,7.9,7.5,14.4,14.1,13.5c10.7-0.1,17.2-12,15.3-22.1
	c-2.2-12.3-8.8-19.7-13.8-27.3c-5.7-7.9-13.3-19.3-15.7-24.8c0,0-7.7,11.8-17.8,25.7c-6.7,9.3-12.1,19.3-12.6,28
	C182.7,269.3,186.8,278.2,198,279.7L198,279.7z"/>
<path id="path8598" inkscape:connector-curvature="0" sodipodi:nodetypes="ccccsccssc" class="st0" d="M198,363.2
	c9.2,0.6,13.9-7.2,14.9-13.4c0.6-1,0.9-0.7,1.1,0.1c0.4,7.9,7.5,14.4,14.1,13.5c10.7-0.1,17.2-12,15.3-22.1
	c-2.2-12.3-8.8-19.7-13.8-27.3c-5.7-7.9-13.3-19.3-15.7-24.8c0,0-7.7,11.8-17.8,25.7c-6.7,9.3-12.1,19.3-12.6,28
	C182.7,352.8,186.8,361.7,198,363.2L198,363.2z"/>
<path id="path8600" inkscape:connector-curvature="0" sodipodi:nodetypes="ccccsccssc" class="st0" d="M126.5,321.5
	c9.2,0.6,13.9-7.2,14.9-13.4c0.6-1,0.9-0.7,1.1,0.1c0.4,7.9,7.5,14.4,14.1,13.5c10.7-0.1,17.2-12,15.3-22.1
	c-2.2-12.3-8.8-19.7-13.8-27.3c-5.7-7.9-13.3-19.3-15.7-24.8c0,0-7.7,11.8-17.8,25.7c-6.7,9.3-12.1,19.3-12.6,28
	C111.2,311.1,115.3,319.9,126.5,321.5L126.5,321.5z"/>
<path id="path8602" inkscape:connector-curvature="0" sodipodi:nodetypes="ccccsccssc" class="st0" d="M55.1,279.7
	c9.2,0.6,13.9-7.2,14.9-13.4c0.6-1,0.9-0.7,1.1,0.1c0.4,7.9,7.5,14.4,14.1,13.5c10.7-0.1,17.2-12,15.3-22.1
	c-2.2-12.3-8.8-19.7-13.8-27.3c-5.7-7.9-13.3-19.3-15.7-24.8c0,0-7.7,11.8-17.8,25.7c-6.7,9.3-12.1,19.3-12.6,28
	C39.8,269.3,43.9,278.2,55.1,279.7L55.1,279.7z"/>
<path id="path8604" inkscape:connector-curvature="0" sodipodi:nodetypes="ccccsccssc" class="st0" d="M55.1,363.2
	c9.2,0.6,13.9-7.2,14.9-13.4c0.6-1,0.9-0.7,1.1,0.1c0.4,7.9,7.5,14.4,14.1,13.5c10.7-0.1,17.2-12,15.3-22.1
	c-2.2-12.3-8.8-19.7-13.8-27.3c-5.7-7.9-13.3-19.3-15.7-24.8c0,0-7.7,11.8-17.8,25.7c-6.7,9.3-12.1,19.3-12.6,28
	C39.8,352.8,43.9,361.7,55.1,363.2L55.1,363.2z"/>
<path id="path8660" inkscape:connector-curvature="0" sodipodi:nodetypes="cccccccc" class="st0" d="M252.8,322
	c-2,4.5-2.3,12.1,3.8,13.1c4.6,0.6,6.4-1.5,6.8-4.8c0.2-1,0.7-1,0.9,0.1c0.3,3.3,3.6,5.3,6.2,4.8c7.1-1.2,6.7-9,4.4-14.3
	c-3.5-7-7.2-11.5-10.6-18.5C260.4,309.7,255.9,315.7,252.8,322L252.8,322z"/>
</svg>
