<?xml version="1.0" encoding="utf-8"?>
<!-- Generator: Adobe Illustrator 22.1.0, SVG Export Plug-In . SVG Version: 6.00 Build 0)  -->
<svg version="1.1"
	 id="svg4423" inkscape:version="0.48.1 r9760" sodipodi:docname="10S.svg" xmlns:cc="http://creativecommons.org/ns#" xmlns:dc="http://purl.org/dc/elements/1.1/" xmlns:inkscape="http://www.inkscape.org/namespaces/inkscape" xmlns:rdf="http://www.w3.org/1999/02/22-rdf-syntax-ns#" xmlns:sodipodi="http://sodipodi.sourceforge.net/DTD/sodipodi-0.dtd" xmlns:svg="http://www.w3.org/2000/svg"
	 xmlns="http://www.w3.org/2000/svg" xmlns:xlink="http://www.w3.org/1999/xlink" x="0px" y="0px" viewBox="0 0 286 400"
	 style="enable-background:new 0 0 286 400;" xml:space="preserve">
<sodipodi:namedview  bordercolor="#666666" borderopacity="1.0" id="base" inkscape:current-layer="layer1" inkscape:cx="242.78612" inkscape:cy="524.82108" inkscape:document-units="px" inkscape:pageopacity="0.0" inkscape:pageshadow="2" inkscape:snap-bbox="true" inkscape:snap-global="true" inkscape:snap-page="true" inkscape:window-height="925" inkscape:window-maximized="0" inkscape:window-width="735" inkscape:window-x="693" inkscape:window-y="73" inkscape:zoom="0.98994948" pagecolor="#ffffff" showgrid="false">
	</sodipodi:namedview>
<path id="path7216-9" inkscape:connector-curvature="0" sodipodi:nodetypes="ccccc" d="M276.2,341.8v40.4h-4v-40.4H276.2z"/>
<path id="rect7235-6" inkscape:connector-curvature="0" d="M260.4,382.2c3.8,0,6.9-3.4,6.9-7.7v-25c0-4.3-3.1-7.7-6.9-7.7h-2.2
	c-3.8,0-6.9,3.4-6.9,7.7v25c0,4.3,3.1,7.7,6.9,7.7H260.4z M259.3,378.4c-2.3,0-4.1-1.7-4.1-3.9v-25.3c0-2.1,1.8-3.9,4.1-3.9
	c2.3,0,4.1,1.7,4.1,3.9v25.3C263.4,376.7,261.5,378.4,259.3,378.4z"/>
<path id="path7986-78" inkscape:connector-curvature="0" sodipodi:nodetypes="ccccc" d="M9.8,58.2V17.8h4v40.4H9.8z"/>
<path id="path7988-8" inkscape:connector-curvature="0" d="M25.6,17.8c-3.8,0-6.9,3.4-6.9,7.7v25c0,4.3,3.1,7.7,6.9,7.7h2.2
	c3.8,0,6.9-3.4,6.9-7.7v-25c0-4.3-3.1-7.7-6.9-7.7H25.6z M26.7,21.6c2.3,0,4.1,1.7,4.1,3.9v25.3c0,2.1-1.8,3.9-4.1,3.9
	c-2.3,0-4.1-1.7-4.1-3.9V25.4C22.6,23.3,24.5,21.6,26.7,21.6z"/>
<path id="path3240" inkscape:connector-curvature="0" sodipodi:nodetypes="ccsscsccccc" d="M67.8,87.9c0-2.6-2-2.6-2-0.8
	c-0.2,9.5-8.2,14.2-14.1,13.1c-9-1.7-11.9-10.7-11.8-16C40.2,68,56.6,56,71.4,35.1C82.2,54,100,68.8,101.1,83.3
	c1.4,19.4-23.1,26.6-26.6,4c-0.2-1.6-2.1-2.3-2-0.1c0.5,6.2-0.2,8.8,6.7,24H61.1C65.1,104.2,67.5,95.4,67.8,87.9L67.8,87.9z"/>
<path id="path3242" inkscape:connector-curvature="0" sodipodi:nodetypes="ccsscsccccc" d="M139.2,129.8c0-2.6-2-2.6-2-0.8
	c-0.2,9.5-8.2,14.2-14.1,13.1c-9-1.7-11.9-10.7-11.8-16c0.3-16.3,16.6-28.3,31.4-49.2c10.8,18.8,28.7,33.6,29.8,48.2
	c1.4,19.4-23.1,26.6-26.6,4c-0.2-1.6-2.1-2.3-2-0.1c0.5,6.2-0.2,8.8,6.7,24h-18.2C136.5,146.1,138.9,137.3,139.2,129.8L139.2,129.8z
	"/>
<path id="path3244" inkscape:connector-curvature="0" sodipodi:nodetypes="ccsscsccccc" d="M210.7,87.9c0-2.6-2-2.6-2-0.8
	c-0.2,9.5-8.2,14.2-14.1,13.1c-9-1.7-11.9-10.7-11.8-16c0.3-16.3,16.6-28.3,31.4-49.2C225.1,54,242.9,68.8,244,83.3
	c1.4,19.4-23.1,26.6-26.6,4c-0.2-1.6-2.1-2.3-2-0.1c0.5,6.2-0.2,8.8,6.7,24H204C208,104.2,210.4,95.4,210.7,87.9L210.7,87.9z"/>
<path id="path3246" inkscape:connector-curvature="0" sodipodi:nodetypes="ccsscsccccc" d="M210.7,171.7c0-2.6-2-2.6-2-0.8
	c-0.2,9.5-8.2,14.2-14.1,13.1c-9-1.7-11.9-10.7-11.8-16c0.3-16.3,16.6-28.3,31.4-49.2c10.8,18.8,28.7,33.6,29.8,48.2
	c1.4,19.4-23.1,26.6-26.6,4c-0.2-1.6-2.1-2.3-2-0.1c0.5,6.2-0.2,8.8,6.7,24H204C208,188,210.4,179.2,210.7,171.7L210.7,171.7z"/>
<path id="path3248" inkscape:connector-curvature="0" sodipodi:nodetypes="ccsscsccccc" d="M67.8,171.7c0-2.6-2-2.6-2-0.8
	c-0.2,9.5-8.2,14.2-14.1,13.1c-9-1.7-11.9-10.7-11.8-16c0.3-16.3,16.6-28.3,31.4-49.2c10.8,18.8,28.7,33.6,29.8,48.2
	c1.4,19.4-23.1,26.6-26.6,4c-0.2-1.6-2.1-2.3-2-0.1c0.5,6.2-0.2,8.8,6.7,24H61.1C65.1,188,67.5,179.2,67.8,171.7L67.8,171.7z"/>
<path id="path3276" inkscape:connector-curvature="0" sodipodi:nodetypes="ccsscsccccc" d="M210.7,228.3c0,2.6-2,2.6-2,0.8
	c-0.2-9.5-8.2-14.2-14.1-13.1c-9,1.7-11.9,10.7-11.8,16c0.3,16.3,16.6,28.3,31.4,49.2c10.8-18.8,28.7-33.6,29.8-48.2
	c1.4-19.4-23.1-26.6-26.6-4c-0.2,1.6-2.1,2.3-2,0.1c0.5-6.2-0.2-8.8,6.7-24H204C208.1,212.1,210.5,220.8,210.7,228.3L210.7,228.3z"
	/>
<path id="path3278" inkscape:connector-curvature="0" sodipodi:nodetypes="ccsscsccccc" d="M210.7,312.1c0,2.6-2,2.6-2,0.8
	c-0.2-9.5-8.2-14.2-14.1-13.1c-9,1.7-11.9,10.7-11.8,16c0.3,16.3,16.6,28.3,31.4,49.2c10.8-18.8,28.7-33.6,29.8-48.2
	c1.4-19.4-23.1-26.6-26.6-4c-0.2,1.6-2.1,2.3-2,0.1c0.5-6.2-0.2-8.8,6.7-24H204C208.1,295.9,210.5,304.6,210.7,312.1L210.7,312.1z"
	/>
<path id="path3280" inkscape:connector-curvature="0" sodipodi:nodetypes="ccsscsccccc" d="M139.8,270.2c0,2.6-2,2.6-2,0.8
	c-0.2-9.5-8.2-14.2-14.1-13.1c-9,1.7-11.9,10.7-11.8,16c0.3,16.3,16.6,28.3,31.4,49.2c10.8-18.8,28.7-33.6,29.8-48.2
	c1.4-19.4-23.1-26.6-26.6-4c-0.2,1.6-2.1,2.3-2,0.1c0.5-6.2-0.2-8.8,6.7-24h-18.2C137.1,254,139.5,262.7,139.8,270.2L139.8,270.2z"
	/>
<path id="path3282" inkscape:connector-curvature="0" sodipodi:nodetypes="ccsscsccccc" d="M67.8,228.3c0,2.6-2,2.6-2,0.8
	c-0.2-9.5-8.2-14.2-14.1-13.1c-9,1.7-11.9,10.7-11.8,16c0.3,16.3,16.6,28.3,31.4,49.2c10.8-18.8,28.7-33.6,29.8-48.2
	c1.4-19.4-23.1-26.6-26.6-4c-0.2,1.6-2.1,2.3-2,0.1c0.5-6.2-0.2-8.8,6.7-24H61.1C65.2,212.1,67.6,220.8,67.8,228.3L67.8,228.3z"/>
<path id="path3284" inkscape:connector-curvature="0" sodipodi:nodetypes="ccsscsccccc" d="M67.8,312.1c0,2.6-2,2.6-2,0.8
	c-0.2-9.5-8.2-14.2-14.1-13.1c-9,1.7-11.9,10.7-11.8,16c0.3,16.3,16.6,28.3,31.4,49.2c10.8-18.8,28.7-33.6,29.8-48.2
	c1.4-19.4-23.1-26.6-26.6-4c-0.2,1.6-2.1,2.3-2,0.1c0.5-6.2-0.2-8.8,6.7-24H61.1C65.2,295.9,67.6,304.6,67.8,312.1L67.8,312.1z"/>
<path id="path3318" inkscape:connector-curvature="0" sodipodi:nodetypes="ccscccscsccccc" d="M21.5,89.6c0-1.1-1.1-0.6-1.3-0.2
	c-1.5,2.5-3.7,3.1-5.8,2.2c-2.1-0.9-3.3-2.9-3.1-5.8c0.4-4.4,3.9-9.2,5.6-12c1.6-2.5,3.4-5.4,5.2-9.2c2.2,4.3,3.3,5.5,5.6,9.5
	c2.1,3.5,5,6.9,5.2,11.1c0,3.2-1.3,6.2-4.4,6.7c-1.7,0.3-3.3-0.6-4.5-2.6c-0.4-0.5-1.1-0.2-1.1,0.5c0.2,2.7,1.2,5.1,3.6,8h-8.8
	C19.6,95.8,21.4,93,21.5,89.6L21.5,89.6z"/>
<path id="path3342" inkscape:connector-curvature="0" sodipodi:nodetypes="ccscccscsccccc" d="M263.4,311.2c0,1.1-1.1,0.6-1.3,0.2
	c-1.5-2.5-3.7-3.1-5.8-2.2c-2.1,0.9-3.3,2.9-3.1,5.8c0.4,4.4,3.9,9.2,5.6,12c1.6,2.5,3.4,5.4,5.2,9.2c2.2-4.3,3.3-5.5,5.6-9.5
	c2.1-3.5,5-6.9,5.2-11.1c0-3.2-1.3-6.2-4.4-6.7c-1.7-0.3-3.3,0.6-4.5,2.6c-0.4,0.5-1.1,0.2-1.1-0.5c0.2-2.7,1.2-5.1,3.6-8h-8.8
	C261.5,305.1,263.3,307.8,263.4,311.2L263.4,311.2z"/>
</svg>
