<?xml version="1.0" encoding="utf-8"?>
<!-- Generator: Adobe Illustrator 22.1.0, SVG Export Plug-In . SVG Version: 6.00 Build 0)  -->
<svg version="1.1"
	 id="svg4423" inkscape:version="0.48.1 r9760" sodipodi:docname="2C.svg" xmlns:cc="http://creativecommons.org/ns#" xmlns:dc="http://purl.org/dc/elements/1.1/" xmlns:inkscape="http://www.inkscape.org/namespaces/inkscape" xmlns:rdf="http://www.w3.org/1999/02/22-rdf-syntax-ns#" xmlns:sodipodi="http://sodipodi.sourceforge.net/DTD/sodipodi-0.dtd" xmlns:svg="http://www.w3.org/2000/svg"
	 xmlns="http://www.w3.org/2000/svg" xmlns:xlink="http://www.w3.org/1999/xlink" x="0px" y="0px" viewBox="0 0 286 400"
	 style="enable-background:new 0 0 286 400;" xml:space="preserve">
<sodipodi:namedview  bordercolor="#666666" borderopacity="1.0" id="base" inkscape:current-layer="layer1" inkscape:cx="238.77087" inkscape:cy="301.35215" inkscape:document-units="px" inkscape:pageopacity="0.0" inkscape:pageshadow="2" inkscape:snap-bbox="true" inkscape:snap-global="true" inkscape:snap-page="true" inkscape:window-height="925" inkscape:window-maximized="0" inkscape:window-width="906" inkscape:window-x="360" inkscape:window-y="95" inkscape:zoom="0.98994948" pagecolor="#ffffff" showgrid="false">
	</sodipodi:namedview>
<path id="path7100-2" inkscape:connector-curvature="0" sodipodi:nodetypes="csscscccsccccccc" d="M10.5,59.8l0.2-2.6
	c0.7-8,2.4-10.7,12.3-19.1c4.8-4.1,6.4-6.1,6.6-8.4c0.6-5.5-4.3-7.2-7.5-7.2c-4.2,0-8.9,2.5-6.6,8.2l-4.7,1.4
	c-0.9-5.4,0-10.4,4.4-12.7c5.8-2.9,13.3-1.8,17.1,2.8c2.5,3.1,3.1,7.4,1.8,10.7c-4,8.6-17.5,12.3-18.6,22.2h14.9v-5.5h4.4v10.1
	L10.5,59.8z"/>
<path id="path7116-4" inkscape:connector-curvature="0" sodipodi:nodetypes="csscscccsccccccc" d="M275.2,340.2l-0.2,2.6
	c-0.7,8-2.4,10.7-12.3,19.1c-4.8,4.1-6.4,6.1-6.6,8.4c-0.6,5.5,4.3,7.2,7.5,7.2c4.2,0,8.9-2.5,6.6-8.2l4.7-1.4
	c0.9,5.4,0,10.4-4.4,12.7c-5.8,2.9-13.3,1.8-17.1-2.8c-2.5-3.1-3.1-7.4-1.8-10.7c4-8.6,17.5-12.3,18.6-22.2h-14.9v5.5h-4.4v-10.1
	L275.2,340.2z"/>
<path id="path3259" inkscape:connector-curvature="0" sodipodi:nodetypes="cccscccccscscc" d="M133.5,109.4c3.7-7.4,6.4-15,6.9-23.1
	c0.4-3-1.4-3-1.7-0.9c-5.2,20-33,14.6-32.1-4.2c0.8-15.3,15.9-18.5,23.8-13.6c3.1,1.8,2.9,0.7,1.2-1.2c-11.7-13.1-4.6-30,11.2-30.3
	c17.1,1,21.6,19.1,11.1,29.7c-1.3,1.3-4.2,5.4,0.2,2.5c10.6-7.6,25.4,0.6,25.1,12.2c-0.6,21.5-26.7,23.1-32.3,5.1
	c-0.5-2-2.1-3-1.7,0.4c0.8,6.1,2.4,15.3,7,23.4L133.5,109.4z"/>
<path id="path3407" inkscape:connector-curvature="0" sodipodi:nodetypes="cccscccccscscc" d="M152.4,291.1
	c-3.7,7.4-6.4,15-6.9,23.1c-0.4,3,1.4,3,1.7,0.9c5.2-20,33-14.6,32.1,4.2c-0.8,15.3-15.9,18.5-23.8,13.6c-3.1-1.8-2.9-0.7-1.2,1.2
	c11.7,13.1,4.6,30-11.2,30.3c-17.1-1-21.6-19.1-11.1-29.7c1.3-1.3,4.2-5.4-0.2-2.5c-10.6,7.6-25.4-0.6-25.1-12.2
	c0.6-21.5,26.7-23.1,32.3-5.1c0.5,2,2.1,3,1.7-0.4c-0.8-6.1-2.4-15.3-7-23.4L152.4,291.1z"/>
<path id="path3454" inkscape:connector-curvature="0" sodipodi:nodetypes="cccscsccssscccsccccc" d="M17.6,95.8
	c1.5-3.1,3-6.1,3.8-9.5c0.5-3.2-0.6-2-1.2,0.1c-0.9,2.9-3.5,4.3-5.9,4.3c-4.3,0.1-6.5-3.3-6.3-7c-0.5-3.8,3.4-6.6,6.4-6.4
	c2.2,0.2,4.1,1.3,5.3,2.3c0.8,0.4,1.6,0.6,0.4-0.5c-2.1-2.4-3.9-3.8-3.9-7.3c0-3.3,2.9-6.8,6.6-6.6c4.7,0.1,6.8,3.7,6.8,7
	c0,2.4-1.2,4.7-3.1,6c-1.2,1-0.9,1.7,0.5,0.8c1.3-1.1,2.9-1.6,4.5-1.7c4.5-0.1,6.2,3.8,6,7.4c-0.2,3.4-3.1,6.8-6.9,6.4
	c-3.4-0.4-5.1-3.2-6.2-6.1c-0.3-0.9-0.9-1.1-0.9,0.2c0.8,6.5,3.2,10.5,3.2,10.5L17.6,95.8z"/>
<path id="path3476" inkscape:connector-curvature="0" sodipodi:nodetypes="cccscsccssscccsccccc" d="M268.4,304.1
	c-1.5,3.1-3,6.1-3.8,9.5c-0.5,3.2,0.6,2,1.2-0.1c0.9-2.9,3.5-4.3,5.9-4.3c4.3-0.1,6.5,3.3,6.3,7c0.5,3.8-3.4,6.6-6.4,6.4
	c-2.2-0.2-4.1-1.3-5.3-2.3c-0.8-0.4-1.6-0.6-0.4,0.5c2.1,2.4,3.9,3.8,3.9,7.3c0,3.3-2.9,6.8-6.6,6.6c-4.7-0.1-6.8-3.7-6.8-7
	c0-2.4,1.2-4.7,3.1-6c1.2-1,0.9-1.7-0.5-0.8c-1.3,1.1-2.9,1.6-4.5,1.7c-4.5,0.1-6.2-3.8-6-7.4c0.2-3.4,3.1-6.8,6.9-6.4
	c3.4,0.4,5.1,3.2,6.2,6.1c0.3,0.9,0.9,1.1,0.9-0.2c-0.8-6.5-3.2-10.5-3.2-10.5H268.4z"/>
</svg>
