<?xml version="1.0" encoding="utf-8"?>
<!-- Generator: Adobe Illustrator 22.1.0, SVG Export Plug-In . SVG Version: 6.00 Build 0)  -->
<svg version="1.1"
	 id="svg4423" inkscape:version="0.48.1 r9760" sodipodi:docname="2D.svg" xmlns:cc="http://creativecommons.org/ns#" xmlns:dc="http://purl.org/dc/elements/1.1/" xmlns:inkscape="http://www.inkscape.org/namespaces/inkscape" xmlns:rdf="http://www.w3.org/1999/02/22-rdf-syntax-ns#" xmlns:sodipodi="http://sodipodi.sourceforge.net/DTD/sodipodi-0.dtd" xmlns:svg="http://www.w3.org/2000/svg"
	 xmlns="http://www.w3.org/2000/svg" xmlns:xlink="http://www.w3.org/1999/xlink" x="0px" y="0px" viewBox="0 0 286 400"
	 style="enable-background:new 0 0 286 400;" xml:space="preserve">
<style type="text/css">
	.st0{fill:#D40000;}
</style>
<sodipodi:namedview  bordercolor="#666666" borderopacity="1.0" id="base" inkscape:current-layer="layer1" inkscape:cx="182.59483" inkscape:cy="384.37967" inkscape:document-units="px" inkscape:pageopacity="0.0" inkscape:pageshadow="2" inkscape:snap-bbox="true" inkscape:snap-global="true" inkscape:snap-page="true" inkscape:window-height="925" inkscape:window-maximized="0" inkscape:window-width="735" inkscape:window-x="1143" inkscape:window-y="71" inkscape:zoom="0.69999999" pagecolor="#ffffff" showgrid="false">
	</sodipodi:namedview>
<path id="path3680" inkscape:connector-curvature="0" sodipodi:nodetypes="ccccc" class="st0" d="M114.7,73.1
	c12.7-12.4,21.1-26,29-39c7,14.3,17,26.9,27.9,39c-11.6,12-20.6,24.9-27.9,38.4C135.7,97.6,127.2,85,114.7,73.1z"/>
<path id="path3684" inkscape:connector-curvature="0" sodipodi:nodetypes="ccccc" class="st0" d="M114.7,328.1
	c12.7-12.4,21.1-26,29-39c7,14.3,17,26.9,27.9,39c-11.6,12-20.6,24.9-27.9,38.4C135.7,352.6,127.2,340.1,114.7,328.1z"/>
<path id="path3730" inkscape:connector-curvature="0" sodipodi:nodetypes="ccccc" class="st0" d="M251.8,319.6
	c5.2-5.1,8.6-10.6,11.9-16c2.9,5.9,7,11,11.4,16c-4.8,4.9-8.5,10.2-11.4,15.7C260.4,329.6,256.9,324.5,251.8,319.6L251.8,319.6z"/>
<path id="path3732" inkscape:connector-curvature="0" sodipodi:nodetypes="ccccc" class="st0" d="M11.3,80.6
	c5.2-5.1,8.6-10.6,11.9-16c2.9,5.9,7,11,11.4,16c-4.8,4.9-8.5,10.2-11.4,15.7C19.9,90.6,16.4,85.5,11.3,80.6L11.3,80.6z"/>
<path id="path7100-7" inkscape:connector-curvature="0" sodipodi:nodetypes="csscscccsccccccc" class="st0" d="M10.6,59.8l0.2-2.6
	c0.7-8,2.4-10.7,12.3-19.1c4.8-4.1,6.4-6.1,6.6-8.4c0.6-5.5-4.3-7.2-7.5-7.2c-4.2,0-8.9,2.5-6.6,8.2L11,32.2
	c-0.9-5.4,0-10.4,4.4-12.7c5.8-2.9,13.3-1.8,17.1,2.8c2.5,3.1,3.1,7.4,1.8,10.7c-4,8.6-17.5,12.3-18.6,22.2h14.9v-5.5H35v10.1
	L10.6,59.8z"/>
<path id="path7116-5" inkscape:connector-curvature="0" sodipodi:nodetypes="csscscccsccccccc" class="st0" d="M275.4,340.2
	l-0.2,2.6c-0.7,8-2.4,10.7-12.3,19.1c-4.8,4.1-6.4,6.1-6.6,8.4c-0.6,5.5,4.3,7.2,7.5,7.2c4.2,0,8.9-2.5,6.6-8.2l4.7-1.4
	c0.9,5.4,0,10.4-4.4,12.7c-5.8,2.9-13.3,1.8-17.1-2.8c-2.5-3.1-3.1-7.4-1.8-10.7c4-8.6,17.5-12.3,18.6-22.2h-14.9v5.5H251v-10.1
	L275.4,340.2z"/>
</svg>
