<?xml version="1.0" encoding="utf-8"?>
<!-- Generator: Adobe Illustrator 22.1.0, SVG Export Plug-In . SVG Version: 6.00 Build 0)  -->
<svg version="1.1"
	 id="svg4423" inkscape:version="0.48.1 r9760" sodipodi:docname="2H.svg" xmlns:cc="http://creativecommons.org/ns#" xmlns:dc="http://purl.org/dc/elements/1.1/" xmlns:inkscape="http://www.inkscape.org/namespaces/inkscape" xmlns:rdf="http://www.w3.org/1999/02/22-rdf-syntax-ns#" xmlns:sodipodi="http://sodipodi.sourceforge.net/DTD/sodipodi-0.dtd" xmlns:svg="http://www.w3.org/2000/svg"
	 xmlns="http://www.w3.org/2000/svg" xmlns:xlink="http://www.w3.org/1999/xlink" x="0px" y="0px" viewBox="0 0 286 400"
	 style="enable-background:new 0 0 286 400;" xml:space="preserve">
<style type="text/css">
	.st0{fill:#D40000;}
</style>
<sodipodi:namedview  bordercolor="#666666" borderopacity="1.0" id="base" inkscape:current-layer="layer1" inkscape:cx="248.48484" inkscape:cy="492.08587" inkscape:document-units="px" inkscape:pageopacity="0.0" inkscape:pageshadow="2" inkscape:snap-bbox="true" inkscape:snap-global="true" inkscape:snap-page="true" inkscape:window-height="925" inkscape:window-maximized="0" inkscape:window-width="690" inkscape:window-x="935" inkscape:window-y="42" inkscape:zoom="0.98994948" pagecolor="#ffffff" showgrid="false">
	</sodipodi:namedview>
<path id="path8628" inkscape:connector-curvature="0" sodipodi:nodetypes="cccccccc" class="st0" d="M11.6,77.3
	c-2-4.5-2.3-12.1,3.8-13.1c4.6-0.6,6.4,1.5,6.8,4.8c0.2,1,0.7,1,0.9-0.1c0.3-3.3,3.6-5.3,6.2-4.8c7.1,1.2,6.7,9,4.4,14.3
	c-3.5,7-7.2,11.5-10.6,18.5C19.2,89.6,14.7,83.6,11.6,77.3L11.6,77.3z"/>
<path id="path8650" inkscape:connector-curvature="0" sodipodi:nodetypes="cccccccc" class="st0" d="M252.1,322.6
	c-2,4.5-2.3,12.1,3.8,13.1c4.6,0.6,6.4-1.5,6.8-4.8c0.2-1,0.7-1,0.9,0.1c0.3,3.3,3.6,5.3,6.2,4.8c7.1-1.2,6.7-9,4.4-14.3
	c-3.5-7-7.2-11.5-10.6-18.5C259.7,310.3,255.2,316.3,252.1,322.6L252.1,322.6z"/>
<path id="path7100" inkscape:connector-curvature="0" sodipodi:nodetypes="csscscccsccccccc" class="st0" d="M10.5,59.8l0.2-2.6
	c0.7-8,2.4-10.7,12.3-19.1c4.8-4.1,6.4-6.1,6.6-8.4c0.6-5.5-4.3-7.2-7.5-7.2c-4.2,0-8.9,2.5-6.6,8.2l-4.7,1.4
	c-0.9-5.4,0-10.4,4.4-12.7c5.8-2.9,13.3-1.8,17.1,2.8c2.5,3.1,3.1,7.4,1.8,10.7c-4,8.6-17.5,12.3-18.6,22.2h14.9v-5.5h4.4v10.1
	L10.5,59.8z"/>
<path id="path7116" inkscape:connector-curvature="0" sodipodi:nodetypes="csscscccsccccccc" class="st0" d="M275.2,340.2l-0.2,2.6
	c-0.7,8-2.4,10.7-12.3,19.1c-4.8,4.1-6.4,6.1-6.6,8.4c-0.6,5.5,4.3,7.2,7.5,7.2c4.2,0,8.9-2.5,6.6-8.2l4.7-1.4
	c0.9,5.4,0,10.4-4.4,12.7c-5.8,2.9-13.3,1.8-17.1-2.8c-2.5-3.1-3.1-7.4-1.8-10.7c4-8.6,17.5-12.3,18.6-22.2h-14.9v5.5h-4.4v-10.1
	L275.2,340.2z"/>
<path id="path8514" inkscape:connector-curvature="0" sodipodi:nodetypes="ccccsccssc" class="st0" d="M127.5,35.9
	c9.2-0.6,13.9,7.2,14.9,13.4c0.6,1,0.9,0.7,1.1-0.1c0.4-7.9,7.5-14.4,14.1-13.5c10.7,0.1,17.2,12,15.3,22.1
	c-2.2,12.3-8.8,19.7-13.8,27.3c-5.7,7.9-13.3,19.3-15.7,24.8c0,0-7.7-11.8-17.8-25.7c-6.7-9.3-12.1-19.3-12.6-28
	C112.2,46.3,116.3,37.4,127.5,35.9L127.5,35.9z"/>
<path id="path8580" inkscape:connector-curvature="0" sodipodi:nodetypes="ccccsccssc" class="st0" d="M127.5,364.7
	c9.2,0.6,13.9-7.2,14.9-13.4c0.6-1,0.9-0.7,1.1,0.1c0.4,7.9,7.5,14.4,14.1,13.5c10.7-0.1,17.2-12,15.3-22.1
	c-2.2-12.3-8.8-19.7-13.8-27.3c-5.7-7.9-13.3-19.3-15.7-24.8c0,0-7.7,11.8-17.8,25.7c-6.7,9.3-12.1,19.3-12.6,28
	C112.2,354.3,116.3,363.1,127.5,364.7L127.5,364.7z"/>
</svg>
