<?xml version="1.0" encoding="utf-8"?>
<!-- Generator: Adobe Illustrator 22.1.0, SVG Export Plug-In . SVG Version: 6.00 Build 0)  -->
<svg version="1.1"
	 id="svg4423" inkscape:version="0.48.1 r9760" sodipodi:docname="2S.svg" xmlns:cc="http://creativecommons.org/ns#" xmlns:dc="http://purl.org/dc/elements/1.1/" xmlns:inkscape="http://www.inkscape.org/namespaces/inkscape" xmlns:rdf="http://www.w3.org/1999/02/22-rdf-syntax-ns#" xmlns:sodipodi="http://sodipodi.sourceforge.net/DTD/sodipodi-0.dtd" xmlns:svg="http://www.w3.org/2000/svg"
	 xmlns="http://www.w3.org/2000/svg" xmlns:xlink="http://www.w3.org/1999/xlink" x="0px" y="0px" viewBox="0 0 286 400"
	 style="enable-background:new 0 0 286 400;" xml:space="preserve">
<path id="path7100-8" inkscape:connector-curvature="0" sodipodi:nodetypes="csscscccsccccccc" d="M10.6,59.8l0.2-2.6
	c0.7-8,2.4-10.7,12.3-19.1c4.8-4.1,6.4-6.1,6.6-8.4c0.6-5.5-4.3-7.2-7.5-7.2c-4.2,0-8.9,2.5-6.6,8.2L11,32.2
	c-0.9-5.4,0-10.4,4.4-12.7c5.8-2.9,13.3-1.8,17.1,2.8c2.5,3.1,3.1,7.4,1.8,10.7c-4,8.6-17.5,12.3-18.6,22.2h14.9v-5.5H35v10.1
	L10.6,59.8z"/>
<path id="path7116-6" inkscape:connector-curvature="0" sodipodi:nodetypes="csscscccsccccccc" d="M275.4,340.2l-0.2,2.6
	c-0.7,8-2.4,10.7-12.3,19.1c-4.8,4.1-6.4,6.1-6.6,8.4c-0.6,5.5,4.3,7.2,7.5,7.2c4.2,0,8.9-2.5,6.6-8.2l4.7-1.4
	c0.9,5.4,0,10.4-4.4,12.7c-5.8,2.9-13.3,1.8-17.1-2.8c-2.5-3.1-3.1-7.4-1.8-10.7c4-8.6,17.5-12.3,18.6-22.2h-14.9v5.5H251v-10.1
	L275.4,340.2z"/>
<path id="path3194" inkscape:connector-curvature="0" sodipodi:nodetypes="ccsscsccccc" d="M141.7,87.4c0-2.6-2-2.6-2-0.8
	c-0.2,9.5-8.2,14.2-14.1,13.1c-9-1.7-11.9-10.7-11.8-16c0.3-16.3,16.6-28.3,31.4-49.2c10.8,18.8,28.7,33.6,29.8,48.2
	c1.4,19.4-23.1,26.6-26.6,4c-0.2-1.6-2.1-2.3-2-0.1c0.5,6.2-0.2,8.8,6.7,24H135C139,103.7,141.4,95,141.7,87.4L141.7,87.4z"/>
<path id="path3254" inkscape:connector-curvature="0" sodipodi:nodetypes="ccsscsccccc" d="M141.7,313.1c0,2.6-2,2.6-2,0.8
	c-0.2-9.5-8.2-14.2-14.1-13.1c-9,1.7-11.9,10.7-11.8,16c0.3,16.3,16.6,28.3,31.4,49.2c10.8-18.8,28.7-33.6,29.8-48.2
	c1.4-19.4-23.1-26.6-26.6-4c-0.2,1.6-2.1,2.3-2,0.1c0.5-6.2-0.2-8.8,6.7-24H135C139,296.9,141.4,305.6,141.7,313.1L141.7,313.1z"/>
<path id="path3310" inkscape:connector-curvature="0" sodipodi:nodetypes="ccscccscsccccc" d="M23.6,88.9c0-1.1-1.1-0.6-1.3-0.2
	c-1.5,2.5-3.7,3.1-5.8,2.2c-2.1-0.9-3.3-2.9-3.1-5.8c0.4-4.4,3.9-9.2,5.6-12c1.6-2.5,3.4-5.4,5.2-9.2c2.2,4.3,3.3,5.5,5.6,9.5
	c2.1,3.5,5,6.9,5.2,11.1c0,3.2-1.3,6.2-4.4,6.7c-1.7,0.3-3.3-0.6-4.5-2.6c-0.4-0.5-1.1-0.2-1.1,0.5c0.2,2.7,1.2,5.1,3.6,8h-8.8
	C21.7,95,23.6,92.3,23.6,88.9z"/>
<path id="path3332" inkscape:connector-curvature="0" sodipodi:nodetypes="ccscccscsccccc" d="M264.2,311c0,1.1-1.1,0.6-1.3,0.2
	c-1.5-2.5-3.7-3.1-5.8-2.2c-2.1,0.9-3.3,2.9-3.1,5.8c0.4,4.4,3.9,9.2,5.6,12c1.6,2.5,3.4,5.4,5.2,9.2c2.2-4.3,3.3-5.5,5.6-9.5
	c2.1-3.5,5-6.9,5.2-11.1c0-3.2-1.3-6.2-4.4-6.7c-1.7-0.3-3.3,0.6-4.5,2.6c-0.4,0.5-1.1,0.2-1.1-0.5c0.2-2.7,1.2-5.1,3.6-8h-8.8
	C262.2,304.9,264.1,307.6,264.2,311z"/>
</svg>
