<?xml version="1.0" encoding="utf-8"?>
<!-- Generator: Adobe Illustrator 22.1.0, SVG Export Plug-In . SVG Version: 6.00 Build 0)  -->
<svg version="1.1"
	 id="svg4423" inkscape:version="0.48.1 r9760" sodipodi:docname="3C.svg" xmlns:cc="http://creativecommons.org/ns#" xmlns:dc="http://purl.org/dc/elements/1.1/" xmlns:inkscape="http://www.inkscape.org/namespaces/inkscape" xmlns:rdf="http://www.w3.org/1999/02/22-rdf-syntax-ns#" xmlns:sodipodi="http://sodipodi.sourceforge.net/DTD/sodipodi-0.dtd" xmlns:svg="http://www.w3.org/2000/svg"
	 xmlns="http://www.w3.org/2000/svg" xmlns:xlink="http://www.w3.org/1999/xlink" x="0px" y="0px" viewBox="0 0 286 400"
	 style="enable-background:new 0 0 286 400;" xml:space="preserve">
<path id="path7102-8" inkscape:connector-curvature="0" sodipodi:nodetypes="ccccscccccccccccscc" d="M8.9,48.5l3.3-2.4
	c2.9,4.6,6.1,7.6,11,7.1c7.4-0.5,10.4-8.1,8.9-13.8c-1.5-5.1-7.6-7.6-12.4-4.9c-1.1,0.6-2.5,1.4-2.5,1.4l-1.7-2.8l11.4-13.2H14.4
	v5.5H9.7v-9.8h24.1v3.3c0,0-6.5,6.6-8.6,10.2c5.3,0.2,9.5,3.5,11,8.6c0.9,2.7,0.5,9-0.7,11.6c-1.9,4.5-7.2,8.1-12.1,8.3
	C15.3,58.3,11,52.6,8.9,48.5L8.9,48.5z"/>
<path id="path7118-5" inkscape:connector-curvature="0" sodipodi:nodetypes="ccccscccccccccccscc" d="M276.4,351.5l-3.3,2.4
	c-2.9-4.6-6.1-7.6-11-7.1c-7.4,0.5-10.4,8.1-8.9,13.8c1.5,5.1,7.6,7.6,12.4,4.9c1.1-0.6,2.5-1.3,2.5-1.3l2,2.6l-11.7,13.3h12.3v-5.5
	h4.7v9.8h-24.1v-3.3c0,0,6.5-6.6,8.6-10.2c-5.3-0.2-9.5-3.5-11-8.6c-0.9-2.7-0.5-9,0.7-11.6c1.9-4.5,7.2-8.1,12.1-8.3
	C269.9,341.7,274.2,347.4,276.4,351.5L276.4,351.5z"/>
<path id="path3255" inkscape:connector-curvature="0" sodipodi:nodetypes="cccscccccscscc" d="M133.1,237.1
	c3.7-7.5,6.5-15.2,6.9-23.4c0.4-3-1.4-3.1-1.7-0.9c-5.3,20.2-33.4,14.8-32.4-4.3c0.8-15.4,16.1-18.8,24.1-13.7
	c3.2,1.9,3,0.7,1.3-1.2c-11.9-13.3-4.7-30.3,11.4-30.6c17.3,1,21.8,19.3,11.2,30.1c-1.3,1.3-4.3,5.4,0.2,2.5
	c10.7-7.6,25.7,0.6,25.4,12.4c-0.6,21.7-27,23.4-32.7,5.2c-0.5-2-2.1-3-1.7,0.4c0.8,6.2,2.4,15.5,7.1,23.6H133.1z"/>
<path id="path3257" inkscape:connector-curvature="0" sodipodi:nodetypes="cccscccccscscc" d="M133,109.3c3.7-7.5,6.5-15.2,6.9-23.4
	c0.4-3-1.4-3.1-1.7-0.9c-5.3,20.2-33.4,14.8-32.4-4.3c0.8-15.4,16.1-18.8,24.1-13.7c3.2,1.9,3,0.7,1.3-1.2
	c-11.9-13.3-4.7-30.3,11.4-30.6c17.3,1,21.8,19.3,11.2,30.1c-1.3,1.3-4.3,5.4,0.2,2.5c10.7-7.6,25.7,0.6,25.4,12.4
	c-0.6,21.7-27,23.4-32.7,5.2c-0.5-2-2.1-3-1.7,0.4c0.8,6.2,2.4,15.5,7.1,23.6H133z"/>
<path id="path3405" inkscape:connector-curvature="0" sodipodi:nodetypes="cccscccccscscc" d="M152.1,291
	c-3.7,7.5-6.5,15.2-6.9,23.4c-0.4,3,1.4,3.1,1.7,0.9c5.3-20.2,33.4-14.8,32.4,4.3c-0.8,15.4-16.1,18.8-24.1,13.7
	c-3.2-1.9-3-0.7-1.3,1.2c11.9,13.3,4.7,30.3-11.4,30.6c-17.3-1-21.8-19.3-11.2-30.1c1.3-1.3,4.3-5.4-0.2-2.5
	c-10.7,7.6-25.7-0.6-25.4-12.4c0.6-21.7,27-23.4,32.7-5.2c0.5,2,2.1,3,1.7-0.4c-0.8-6.2-2.4-15.5-7.1-23.6L152.1,291z"/>
<path id="path3456" inkscape:connector-curvature="0" sodipodi:nodetypes="cccscsccssscccsccccc" d="M16.5,95.1
	c1.5-3.2,3-6.1,3.9-9.6c0.5-3.3-0.6-2.1-1.2,0.1c-0.9,3-3.5,4.3-5.9,4.4c-4.4,0.1-6.6-3.4-6.4-7.1c-0.5-3.9,3.5-6.6,6.4-6.4
	c2.2,0.2,4.2,1.4,5.4,2.3c0.8,0.4,1.6,0.6,0.4-0.5c-2.2-2.4-4-3.8-3.9-7.4c0-3.3,2.9-6.8,6.7-6.7c4.7,0.1,6.9,3.8,6.9,7.1
	c0,2.5-1.2,4.7-3.1,6.1c-1.2,1-0.9,1.7,0.5,0.8c1.3-1.2,2.9-1.7,4.6-1.7c4.5-0.1,6.3,3.8,6,7.5c-0.2,3.4-3.1,6.9-7,6.5
	c-3.4-0.4-5.2-3.3-6.2-6.2c-0.3-0.9-0.9-1.1-0.9,0.2c0.8,6.6,3.2,10.7,3.2,10.6H16.5z"/>
<path id="path3484" inkscape:connector-curvature="0" sodipodi:nodetypes="cccscsccssscccsccccc" d="M269.5,305.9
	c-1.5,3.2-3,6.1-3.9,9.6c-0.5,3.3,0.6,2.1,1.2-0.1c0.9-3,3.5-4.3,5.9-4.4c4.4-0.1,6.6,3.4,6.4,7.1c0.5,3.9-3.5,6.6-6.4,6.4
	c-2.2-0.2-4.2-1.4-5.4-2.3c-0.8-0.4-1.6-0.6-0.4,0.5c2.2,2.4,4,3.8,3.9,7.4c0,3.3-2.9,6.8-6.7,6.7c-4.7-0.1-6.9-3.8-6.9-7.1
	c0-2.5,1.2-4.7,3.1-6.1c1.2-1,0.9-1.7-0.5-0.8c-1.3,1.2-2.9,1.7-4.6,1.7c-4.5,0.1-6.3-3.8-6-7.5c0.2-3.4,3.1-6.9,7-6.5
	c3.4,0.4,5.2,3.3,6.2,6.2c0.3,0.9,0.9,1.1,0.9-0.2c-0.8-6.6-3.2-10.7-3.2-10.6H269.5z"/>
</svg>
