<?xml version="1.0" encoding="utf-8"?>
<!-- Generator: Adobe Illustrator 22.1.0, SVG Export Plug-In . SVG Version: 6.00 Build 0)  -->
<svg version="1.1"
	 id="svg4423" inkscape:version="0.48.1 r9760" sodipodi:docname="3D.svg" xmlns:cc="http://creativecommons.org/ns#" xmlns:dc="http://purl.org/dc/elements/1.1/" xmlns:inkscape="http://www.inkscape.org/namespaces/inkscape" xmlns:rdf="http://www.w3.org/1999/02/22-rdf-syntax-ns#" xmlns:sodipodi="http://sodipodi.sourceforge.net/DTD/sodipodi-0.dtd" xmlns:svg="http://www.w3.org/2000/svg"
	 xmlns="http://www.w3.org/2000/svg" xmlns:xlink="http://www.w3.org/1999/xlink" x="0px" y="0px" viewBox="0 0 286 400"
	 style="enable-background:new 0 0 286 400;" xml:space="preserve">
<style type="text/css">
	.st0{fill:#D40000;}
</style>
<path id="path3666" inkscape:connector-curvature="0" sodipodi:nodetypes="ccccc" class="st0" d="M114.4,74c12.7-12.4,21.1-26,29-39
	c7,14.3,17,26.9,27.9,39c-11.6,12-20.6,24.9-27.9,38.4C135.5,98.6,127,86,114.4,74z"/>
<path id="path3668" inkscape:connector-curvature="0" sodipodi:nodetypes="ccccc" class="st0" d="M114.4,326.9
	c12.7-12.4,21.1-26,29-39c7,14.3,17,26.9,27.9,39c-11.6,12-20.6,24.9-27.9,38.4C135.5,351.4,127,338.9,114.4,326.9L114.4,326.9z"/>
<path id="path3672" inkscape:connector-curvature="0" sodipodi:nodetypes="ccccc" class="st0" d="M114.4,200.4
	c12.7-12.4,21.1-26,29-39c7,14.3,17,26.9,27.9,39c-11.6,12-20.6,24.9-27.9,38.4C135.5,224.9,127,212.3,114.4,200.4L114.4,200.4z"/>
<path id="path3734" inkscape:connector-curvature="0" sodipodi:nodetypes="ccccc" class="st0" d="M251.5,320
	c5.2-5.1,8.6-10.6,11.9-16c2.9,5.9,7,11,11.4,16c-4.8,4.9-8.5,10.2-11.4,15.7C260.1,330.1,256.7,324.9,251.5,320L251.5,320z"/>
<path id="path3736" inkscape:connector-curvature="0" sodipodi:nodetypes="ccccc" class="st0" d="M11.9,81.2
	c5.2-5.1,8.6-10.6,11.9-16c2.9,5.9,7,11,11.4,16c-4.8,4.9-8.5,10.2-11.4,15.7C20.5,91.2,17.1,86.1,11.9,81.2L11.9,81.2z"/>
<path id="path7102-0" inkscape:connector-curvature="0" sodipodi:nodetypes="ccccscccccccccccscc" class="st0" d="M10.8,50.3
	l3.3-2.4c2.8,4.5,6,7.5,10.8,7c7.3-0.5,10.3-8,8.8-13.6c-1.5-5.1-7.5-7.5-12.3-4.8c-1.1,0.6-2.4,1.4-2.4,1.4l-1.7-2.8l11.2-13.1
	H16.3v5.4h-4.7v-9.7h23.8v3.3c0,0-6.4,6.5-8.5,10.1c5.2,0.2,9.4,3.4,10.9,8.5c0.9,2.7,0.5,8.9-0.7,11.5c-1.9,4.4-7.2,8-11.9,8.2
	C17.2,59.9,13,54.4,10.8,50.3L10.8,50.3z"/>
<path id="path7118-1" inkscape:connector-curvature="0" sodipodi:nodetypes="ccccscccccccccccscc" class="st0" d="M275.2,349.7
	l-3.3,2.4c-2.8-4.5-6-7.5-10.8-7c-7.3,0.5-10.3,8-8.8,13.6c1.5,5.1,7.5,7.5,12.3,4.8c1.1-0.6,2.4-1.3,2.4-1.3l2,2.6l-11.5,13.1h12.2
	v-5.4h4.7v9.7h-23.8v-3.3c0,0,6.4-6.5,8.5-10.1c-5.2-0.2-9.4-3.4-10.9-8.5c-0.9-2.7-0.5-8.9,0.7-11.5c1.9-4.4,7.2-8,11.9-8.2
	C268.8,340.1,273,345.6,275.2,349.7L275.2,349.7z"/>
</svg>
