<?xml version="1.0" encoding="utf-8"?>
<!-- Generator: Adobe Illustrator 22.1.0, SVG Export Plug-In . SVG Version: 6.00 Build 0)  -->
<svg version="1.1"
	 id="svg4423" inkscape:version="0.48.1 r9760" sodipodi:docname="3H.svg" xmlns:cc="http://creativecommons.org/ns#" xmlns:dc="http://purl.org/dc/elements/1.1/" xmlns:inkscape="http://www.inkscape.org/namespaces/inkscape" xmlns:rdf="http://www.w3.org/1999/02/22-rdf-syntax-ns#" xmlns:sodipodi="http://sodipodi.sourceforge.net/DTD/sodipodi-0.dtd" xmlns:svg="http://www.w3.org/2000/svg"
	 xmlns="http://www.w3.org/2000/svg" xmlns:xlink="http://www.w3.org/1999/xlink" x="0px" y="0px" viewBox="0 0 286 400"
	 style="enable-background:new 0 0 286 400;" xml:space="preserve">
<style type="text/css">
	.st0{fill:#D40000;}
</style>
<path id="path7102" inkscape:connector-curvature="0" sodipodi:nodetypes="ccccscccccccccccscc" class="st0" d="M10.8,50.3l3.3-2.4
	c2.8,4.5,6,7.5,10.8,7c7.3-0.5,10.3-8,8.8-13.6c-1.5-5.1-7.5-7.5-12.3-4.8c-1.1,0.6-2.4,1.4-2.4,1.4l-1.7-2.8l11.2-13.1H16.3v5.4
	h-4.7v-9.7h23.8v3.3c0,0-6.4,6.5-8.5,10.1c5.2,0.2,9.4,3.4,10.9,8.5c0.9,2.7,0.5,8.9-0.7,11.5c-1.9,4.4-7.2,8-11.9,8.2
	C17.2,59.9,13,54.4,10.8,50.3L10.8,50.3z"/>
<path id="path7118" inkscape:connector-curvature="0" sodipodi:nodetypes="ccccscccccccccccscc" class="st0" d="M275.2,349.7
	l-3.3,2.4c-2.8-4.5-6-7.5-10.8-7c-7.3,0.5-10.3,8-8.8,13.6c1.5,5.1,7.5,7.5,12.3,4.8c1.1-0.6,2.4-1.3,2.4-1.3l2,2.6l-11.5,13.1h12.2
	v-5.4h4.7v9.7h-23.8v-3.3c0,0,6.4-6.5,8.5-10.1c-5.2-0.2-9.4-3.4-10.9-8.5c-0.9-2.7-0.5-8.9,0.7-11.5c1.9-4.4,7.2-8,11.9-8.2
	C268.8,340.1,273,345.6,275.2,349.7L275.2,349.7z"/>
<path id="path8630" inkscape:connector-curvature="0" sodipodi:nodetypes="cccccccc" class="st0" d="M12.5,77.8
	c-2-4.5-2.3-12.1,3.8-13.1c4.6-0.6,6.4,1.5,6.8,4.8c0.2,1,0.7,1,0.9-0.1c0.3-3.3,3.6-5.3,6.2-4.8c7.1,1.2,6.7,9,4.4,14.3
	c-3.5,7-7.2,11.5-10.6,18.5C20,90.1,15.6,84.1,12.5,77.8L12.5,77.8z"/>
<path id="path8516" inkscape:connector-curvature="0" sodipodi:nodetypes="ccccsccssc" class="st0" d="M127.5,36.9
	c9.2-0.6,13.9,7.2,14.9,13.4c0.6,1,0.9,0.7,1.1-0.1c0.4-7.9,7.5-14.4,14.1-13.5c10.7,0.1,17.2,12,15.3,22.1
	c-2.2,12.3-8.8,19.7-13.8,27.3c-5.7,7.9-13.3,19.3-15.7,24.8c0,0-7.7-11.8-17.8-25.7c-6.7-9.3-12.1-19.3-12.6-28
	C112.2,47.3,116.2,38.4,127.5,36.9L127.5,36.9z"/>
<path id="path8518" inkscape:connector-curvature="0" sodipodi:nodetypes="ccccsccssc" class="st0" d="M127.6,163.1
	c9.2-0.6,13.9,7.2,14.9,13.4c0.6,1,0.9,0.7,1.1-0.1c0.4-7.9,7.5-14.4,14.1-13.5c10.7,0.1,17.2,12,15.3,22.1
	c-2.2,12.3-8.8,19.7-13.8,27.3c-5.7,7.9-13.3,19.3-15.7,24.8c0,0-7.7-11.8-17.8-25.7c-6.7-9.3-12.1-19.3-12.6-28
	C112.3,173.5,116.3,164.7,127.6,163.1L127.6,163.1z"/>
<path id="path8652" inkscape:connector-curvature="0" sodipodi:nodetypes="cccccccc" class="st0" d="M252,323.1
	c-2,4.5-2.3,12.1,3.8,13.1c4.6,0.6,6.4-1.5,6.8-4.8c0.2-1,0.7-1,0.9,0.1c0.3,3.3,3.6,5.3,6.2,4.8c7.1-1.2,6.7-9,4.4-14.3
	c-3.5-7-7.2-11.5-10.6-18.5C259.6,310.8,255.1,316.8,252,323.1L252,323.1z"/>
<path id="path8582" inkscape:connector-curvature="0" sodipodi:nodetypes="ccccsccssc" class="st0" d="M127.5,363.5
	c9.2,0.6,13.9-7.2,14.9-13.4c0.6-1,0.9-0.7,1.1,0.1c0.4,7.9,7.5,14.4,14.1,13.5c10.7-0.1,17.2-12,15.3-22.1
	c-2.2-12.3-8.8-19.7-13.8-27.3c-5.7-7.9-13.3-19.3-15.7-24.8c0,0-7.7,11.8-17.8,25.7c-6.7,9.3-12.1,19.3-12.6,28
	C112.2,353.1,116.2,361.9,127.5,363.5L127.5,363.5z"/>
</svg>
