<?xml version="1.0" encoding="utf-8"?>
<!-- Generator: Adobe Illustrator 22.1.0, SVG Export Plug-In . SVG Version: 6.00 Build 0)  -->
<svg version="1.1"
	 id="svg4423" inkscape:version="0.48.1 r9760" sodipodi:docname="3S.svg" xmlns:cc="http://creativecommons.org/ns#" xmlns:dc="http://purl.org/dc/elements/1.1/" xmlns:inkscape="http://www.inkscape.org/namespaces/inkscape" xmlns:rdf="http://www.w3.org/1999/02/22-rdf-syntax-ns#" xmlns:sodipodi="http://sodipodi.sourceforge.net/DTD/sodipodi-0.dtd" xmlns:svg="http://www.w3.org/2000/svg"
	 xmlns="http://www.w3.org/2000/svg" xmlns:xlink="http://www.w3.org/1999/xlink" x="0px" y="0px" viewBox="0 0 286 400"
	 style="enable-background:new 0 0 286 400;" xml:space="preserve">
<path id="path7102-86" inkscape:connector-curvature="0" sodipodi:nodetypes="ccccscccccccccccscc" d="M10.8,50.3l3.3-2.4
	c2.8,4.5,6,7.5,10.8,7c7.3-0.5,10.3-8,8.8-13.6c-1.5-5.1-7.5-7.5-12.3-4.8c-1.1,0.6-2.4,1.4-2.4,1.4l-1.7-2.8l11.2-13.1H16.3v5.4
	h-4.7v-9.7h23.8v3.3c0,0-6.4,6.5-8.5,10.1c5.2,0.2,9.4,3.4,10.9,8.5c0.9,2.7,0.5,8.9-0.7,11.5c-1.9,4.4-7.2,8-11.9,8.2
	C17.2,59.9,13,54.4,10.8,50.3L10.8,50.3z"/>
<path id="path7118-50" inkscape:connector-curvature="0" sodipodi:nodetypes="ccccscccccccccccscc" d="M275.2,349.7l-3.3,2.4
	c-2.8-4.5-6-7.5-10.8-7c-7.3,0.5-10.3,8-8.8,13.6c1.5,5.1,7.5,7.5,12.3,4.8c1.1-0.6,2.4-1.3,2.4-1.3l2,2.6l-11.5,13.1h12.2v-5.4h4.7
	v9.7h-23.8v-3.3c0,0,6.4-6.5,8.5-10.1c-5.2-0.2-9.4-3.4-10.9-8.5c-0.9-2.7-0.5-8.9,0.7-11.5c1.9-4.4,7.2-8,11.9-8.2
	C268.8,340.1,273,345.6,275.2,349.7L275.2,349.7z"/>
<path id="path3196" inkscape:connector-curvature="0" sodipodi:nodetypes="ccsscsccccc" d="M140.2,88.4c0-2.6-2-2.6-2-0.8
	c-0.2,9.5-8.2,14.2-14.1,13.1c-9-1.7-11.9-10.7-11.8-16c0.3-16.3,16.6-28.3,31.4-49.2c10.8,18.8,28.7,33.6,29.8,48.2
	c1.4,19.4-23.1,26.6-26.6,4c-0.2-1.6-2.1-2.3-2-0.1c0.5,6.2-0.2,8.8,6.7,24h-18.2C137.5,104.7,139.9,95.9,140.2,88.4L140.2,88.4z"/>
<path id="path3256" inkscape:connector-curvature="0" sodipodi:nodetypes="ccsscsccccc" d="M140.3,185.3c0,2.6-2,2.6-2,0.8
	c-0.2-9.5-8.2-14.2-14.1-13.1c-9,1.7-11.9,10.7-11.8,16c0.3,16.3,16.6,28.3,31.4,49.2c10.8-18.8,28.7-33.6,29.8-48.2
	c1.4-19.4-23.1-26.6-26.6-4c-0.2,1.6-2.1,2.3-2,0.1c0.5-6.2-0.2-8.8,6.7-24h-18.2C137.6,169.1,140,177.8,140.3,185.3L140.3,185.3z"
	/>
<path id="path3258" inkscape:connector-curvature="0" sodipodi:nodetypes="ccsscsccccc" d="M140.2,311.9c0,2.6-2,2.6-2,0.8
	c-0.2-9.5-8.2-14.2-14.1-13.1c-9,1.7-11.9,10.7-11.8,16c0.3,16.3,16.6,28.3,31.4,49.2c10.8-18.8,28.7-33.6,29.8-48.2
	c1.4-19.4-23.1-26.6-26.6-4c-0.2,1.6-2.1,2.3-2,0.1c0.5-6.2-0.2-8.8,6.7-24h-18.2C137.5,295.7,139.9,304.4,140.2,311.9L140.2,311.9z
	"/>
<path id="path3312" inkscape:connector-curvature="0" sodipodi:nodetypes="ccscccscsccccc" d="M23.1,89.4c0-1.1-1.1-0.6-1.3-0.2
	c-1.5,2.5-3.7,3.1-5.8,2.2c-2.1-0.9-3.3-2.9-3.1-5.8c0.4-4.4,3.9-9.2,5.6-12c1.6-2.5,3.4-5.4,5.2-9.2c2.2,4.3,3.3,5.5,5.6,9.5
	c2.1,3.5,5,6.9,5.2,11.1c0,3.2-1.3,6.2-4.4,6.7c-1.7,0.3-3.3-0.6-4.5-2.6c-0.4-0.5-1.1-0.2-1.1,0.5c0.2,2.7,1.2,5.1,3.6,8h-8.8
	C21.1,95.6,23,92.8,23.1,89.4L23.1,89.4z"/>
<path id="path3334" inkscape:connector-curvature="0" sodipodi:nodetypes="ccscccscsccccc" d="M262.6,311.5c0,1.1-1.1,0.6-1.3,0.2
	c-1.5-2.5-3.7-3.1-5.8-2.2c-2.1,0.9-3.3,2.9-3.1,5.8c0.4,4.4,3.9,9.2,5.6,12c1.6,2.5,3.4,5.4,5.2,9.2c2.2-4.3,3.3-5.5,5.6-9.5
	c2.1-3.5,5-6.9,5.2-11.1c0-3.2-1.3-6.2-4.4-6.7c-1.7-0.3-3.3,0.6-4.5,2.6c-0.4,0.5-1.1,0.2-1.1-0.5c0.2-2.7,1.2-5.1,3.6-8h-8.8
	C260.7,305.4,262.5,308.1,262.6,311.5L262.6,311.5z"/>
</svg>
