<?xml version="1.0" encoding="utf-8"?>
<!-- Generator: Adobe Illustrator 22.1.0, SVG Export Plug-In . SVG Version: 6.00 Build 0)  -->
<svg version="1.1"
	 id="svg4423" inkscape:version="0.48.1 r9760" sodipodi:docname="4C.svg" xmlns:cc="http://creativecommons.org/ns#" xmlns:dc="http://purl.org/dc/elements/1.1/" xmlns:inkscape="http://www.inkscape.org/namespaces/inkscape" xmlns:rdf="http://www.w3.org/1999/02/22-rdf-syntax-ns#" xmlns:sodipodi="http://sodipodi.sourceforge.net/DTD/sodipodi-0.dtd" xmlns:svg="http://www.w3.org/2000/svg"
	 xmlns="http://www.w3.org/2000/svg" xmlns:xlink="http://www.w3.org/1999/xlink" x="0px" y="0px" viewBox="0 0 286 400"
	 style="enable-background:new 0 0 286 400;" xml:space="preserve">
<path id="path7104-3" inkscape:connector-curvature="0" sodipodi:nodetypes="cccccccccccccccccccc" d="M23.6,59.5v-3.6h3.3v-5.9
	H10.3v-4.2l17.9-27.1l2.9,0v27.1h5.1v4.2h-5.1l-0.1,5.9h2.8v3.6L23.6,59.5z M26.9,28.6L15.5,45.7h11.4V28.6z"/>
<path id="path7159-2" inkscape:connector-curvature="0" sodipodi:nodetypes="cccccccccccccccccccc" d="M263.9,340.5v3.6h-3.3v5.9
	h16.6v4.2l-17.9,27.1l-2.9,0v-27.1h-5.1v-4.2h5.1l0.1-5.9h-2.8v-3.6H263.9z M260.6,371.4l11.4-17.2h-11.4V371.4z"/>
<path id="path3251" inkscape:connector-curvature="0" sodipodi:nodetypes="cccscccccscscc" d="M197.1,107c3.7-7.4,6.4-15,6.9-23.1
	c0.4-3-1.4-3-1.7-0.9c-5.2,20-33,14.6-32.1-4.2c0.8-15.3,15.9-18.5,23.8-13.6c3.1,1.8,2.9,0.7,1.2-1.2c-11.7-13.1-4.6-30,11.2-30.3
	c17.1,1,21.6,19.1,11.1,29.7c-1.3,1.3-4.2,5.4,0.2,2.5c10.6-7.6,25.4,0.6,25.1,12.2c-0.6,21.5-26.7,23.1-32.3,5.1
	c-0.5-2-2.1-3-1.7,0.4c0.8,6.1,2.4,15.3,7,23.4L197.1,107z"/>
<path id="path3253" inkscape:connector-curvature="0" sodipodi:nodetypes="cccscccccscscc" d="M69.5,107c3.7-7.4,6.4-15,6.9-23.1
	c0.4-3-1.4-3-1.7-0.9c-5.2,20-33,14.6-32.1-4.2c0.8-15.3,15.9-18.5,23.8-13.6c3.1,1.8,2.9,0.7,1.2-1.2C56,50.8,63.1,34,79,33.7
	c17.1,1,21.6,19.1,11.1,29.7c-1.3,1.3-4.2,5.4,0.2,2.5c10.6-7.6,25.4,0.6,25.1,12.2c-0.6,21.5-26.7,23.1-32.3,5.1
	c-0.5-2-2.1-3-1.7,0.4c0.8,6.1,2.4,15.3,7,23.4L69.5,107z"/>
<path id="path3401" inkscape:connector-curvature="0" sodipodi:nodetypes="cccscccccscscc" d="M215.9,288.7
	c-3.7,7.4-6.4,15-6.9,23.1c-0.4,3,1.4,3,1.7,0.9c5.2-20,33-14.6,32.1,4.2c-0.8,15.3-15.9,18.5-23.8,13.6c-3.1-1.8-2.9-0.7-1.2,1.2
	c11.7,13.1,4.6,30-11.2,30.3c-17.1-1-21.6-19.1-11.1-29.7c1.3-1.3,4.2-5.4-0.2-2.5c-10.6,7.6-25.4-0.6-25.1-12.2
	c0.6-21.5,26.7-23.1,32.3-5.1c0.5,2,2.1,3,1.7-0.4c-0.8-6.1-2.4-15.3-7-23.4L215.9,288.7z"/>
<path id="path3403" inkscape:connector-curvature="0" sodipodi:nodetypes="cccscccccscscc" d="M88.4,288.7c-3.7,7.4-6.4,15-6.9,23.1
	c-0.4,3,1.4,3,1.7,0.9c5.2-20,33-14.6,32.1,4.2c-0.8,15.3-15.9,18.5-23.8,13.6c-3.1-1.8-2.9-0.7-1.2,1.2c11.7,13.1,4.6,30-11.2,30.3
	c-17.1-1-21.6-19.1-11.1-29.7c1.3-1.3,4.2-5.4-0.2-2.5c-10.6,7.6-25.4-0.6-25.1-12.2c0.6-21.5,26.7-23.1,32.3-5.1
	c0.5,2,2.1,3,1.7-0.4c-0.8-6.1-2.4-15.3-7-23.4L88.4,288.7z"/>
<path id="path3458" inkscape:connector-curvature="0" sodipodi:nodetypes="cccscsccssscccsccccc" d="M17.9,96.8
	c1.5-3.1,3-6.1,3.8-9.5c0.5-3.2-0.6-2-1.2,0.1c-0.9,2.9-3.5,4.3-5.9,4.3c-4.3,0.1-6.5-3.3-6.3-7c-0.5-3.8,3.4-6.6,6.4-6.4
	c2.2,0.2,4.1,1.3,5.3,2.3c0.8,0.4,1.6,0.6,0.4-0.5c-2.1-2.4-3.9-3.8-3.9-7.3c0-3.3,2.9-6.8,6.6-6.6c4.7,0.1,6.8,3.7,6.8,7
	c0,2.4-1.2,4.7-3.1,6c-1.2,1-0.9,1.7,0.5,0.8c1.3-1.1,2.9-1.6,4.5-1.7c4.5-0.1,6.2,3.8,6,7.4c-0.2,3.4-3.1,6.8-6.9,6.4
	c-3.4-0.4-5.1-3.2-6.2-6.1c-0.3-0.9-0.9-1.1-0.9,0.2c0.8,6.5,3.2,10.5,3.2,10.5H17.9z"/>
<path id="path3482" inkscape:connector-curvature="0" sodipodi:nodetypes="cccscsccssscccsccccc" d="M268.1,303.6
	c-1.5,3.1-3,6.1-3.8,9.5c-0.5,3.2,0.6,2,1.2-0.1c0.9-2.9,3.5-4.3,5.9-4.3c4.3-0.1,6.5,3.3,6.3,7c0.5,3.8-3.4,6.6-6.4,6.4
	c-2.2-0.2-4.1-1.3-5.3-2.3c-0.8-0.4-1.6-0.6-0.4,0.5c2.1,2.4,3.9,3.8,3.9,7.3c0,3.3-2.9,6.8-6.6,6.6c-4.7-0.1-6.8-3.7-6.8-7
	c0-2.4,1.2-4.7,3.1-6c1.2-1,0.9-1.7-0.5-0.8c-1.3,1.1-2.9,1.6-4.5,1.7c-4.5,0.1-6.2-3.8-6-7.4c0.2-3.4,3.1-6.8,6.9-6.4
	c3.4,0.4,5.1,3.2,6.2,6.1c0.3,0.9,0.9,1.1,0.9-0.2c-0.8-6.5-3.2-10.5-3.2-10.5H268.1z"/>
</svg>
