<?xml version="1.0" encoding="utf-8"?>
<!-- Generator: Adobe Illustrator 22.1.0, SVG Export Plug-In . SVG Version: 6.00 Build 0)  -->
<svg version="1.1"
	 id="svg4423" inkscape:version="0.48.1 r9760" sodipodi:docname="4D.svg" xmlns:cc="http://creativecommons.org/ns#" xmlns:dc="http://purl.org/dc/elements/1.1/" xmlns:inkscape="http://www.inkscape.org/namespaces/inkscape" xmlns:rdf="http://www.w3.org/1999/02/22-rdf-syntax-ns#" xmlns:sodipodi="http://sodipodi.sourceforge.net/DTD/sodipodi-0.dtd" xmlns:svg="http://www.w3.org/2000/svg"
	 xmlns="http://www.w3.org/2000/svg" xmlns:xlink="http://www.w3.org/1999/xlink" x="0px" y="0px" viewBox="0 0 286 400"
	 style="enable-background:new 0 0 286 400;" xml:space="preserve">
<style type="text/css">
	.st0{fill:#D40000;}
</style>
<path id="path3656" inkscape:connector-curvature="0" sodipodi:nodetypes="ccccc" class="st0" d="M44.6,70.6
	c12.7-12.4,21.1-26,29-39c7,14.3,17,26.9,27.9,39c-11.6,12-20.6,24.9-27.9,38.4C65.7,95.1,57.2,82.6,44.6,70.6z"/>
<path id="path3658" inkscape:connector-curvature="0" sodipodi:nodetypes="ccccc" class="st0" d="M44.6,325.7
	c12.7-12.4,21.1-26,29-39c7,14.3,17,26.9,27.9,39c-11.6,12-20.6,24.9-27.9,38.4C65.7,350.2,57.2,337.7,44.6,325.7z"/>
<path id="path3660" inkscape:connector-curvature="0" sodipodi:nodetypes="ccccc" class="st0" d="M187.5,70.6
	c12.7-12.4,21.1-26,29-39c7,14.3,17,26.9,27.9,39c-11.6,12-20.6,24.9-27.9,38.4C208.6,95.1,200.1,82.6,187.5,70.6L187.5,70.6z"/>
<path id="path3664" inkscape:connector-curvature="0" sodipodi:nodetypes="ccccc" class="st0" d="M187.5,325.7
	c12.7-12.4,21.1-26,29-39c7,14.3,17,26.9,27.9,39c-11.6,12-20.6,24.9-27.9,38.4C208.6,350.2,200.1,337.7,187.5,325.7L187.5,325.7z"
	/>
<path id="path3738" inkscape:connector-curvature="0" sodipodi:nodetypes="ccccc" class="st0" d="M250.5,319
	c5.2-5.1,8.6-10.6,11.9-16c2.9,5.9,7,11,11.4,16c-4.8,4.9-8.5,10.2-11.4,15.7C259.1,329.1,255.7,324,250.5,319z"/>
<path id="path3740" inkscape:connector-curvature="0" sodipodi:nodetypes="ccccc" class="st0" d="M10.7,81.6
	c5.2-5.1,8.6-10.6,11.9-16c2.9,5.9,7,11,11.4,16c-4.8,4.9-8.5,10.2-11.4,15.7C19.3,91.6,15.8,86.5,10.7,81.6L10.7,81.6z"/>
<path id="path7104-8" inkscape:connector-curvature="0" sodipodi:nodetypes="cccccccccccccccccccc" class="st0" d="M22.9,59.5v-3.6
	h3.3v-5.9H9.6v-4.2l17.9-27.1l2.9,0v27.1h5.1v4.2h-5.1l-0.1,5.9h2.8v3.6L22.9,59.5z M26.2,28.6L14.8,45.7h11.4V28.6z"/>
<path id="path7159-9" inkscape:connector-curvature="0" sodipodi:nodetypes="cccccccccccccccccccc" class="st0" d="M263.1,340.5v3.6
	h-3.3v5.9h16.6v4.2l-17.9,27.1l-2.9,0v-27.1h-5.1v-4.2h5.1l0.1-5.9h-2.8v-3.6H263.1z M259.8,371.4l11.4-17.2h-11.4V371.4z"/>
</svg>
