<?xml version="1.0" encoding="utf-8"?>
<!-- Generator: Adobe Illustrator 22.1.0, SVG Export Plug-In . SVG Version: 6.00 Build 0)  -->
<svg version="1.1"
	 id="svg4423" inkscape:version="0.48.1 r9760" sodipodi:docname="4H.svg" xmlns:cc="http://creativecommons.org/ns#" xmlns:dc="http://purl.org/dc/elements/1.1/" xmlns:inkscape="http://www.inkscape.org/namespaces/inkscape" xmlns:rdf="http://www.w3.org/1999/02/22-rdf-syntax-ns#" xmlns:sodipodi="http://sodipodi.sourceforge.net/DTD/sodipodi-0.dtd" xmlns:svg="http://www.w3.org/2000/svg"
	 xmlns="http://www.w3.org/2000/svg" xmlns:xlink="http://www.w3.org/1999/xlink" x="0px" y="0px" viewBox="0 0 286 400"
	 style="enable-background:new 0 0 286 400;" xml:space="preserve">
<style type="text/css">
	.st0{fill:#D40000;}
</style>
<path id="path7104" inkscape:connector-curvature="0" sodipodi:nodetypes="cccccccccccccccccccc" class="st0" d="M22.9,59.5v-3.6
	h3.3v-5.9H9.6v-4.2l17.9-27.1l2.9,0v27.1h5.1v4.2h-5.1l-0.1,5.9h2.8v3.6L22.9,59.5z M26.2,28.6L14.8,45.7h11.4V28.6z"/>
<path id="path7159" inkscape:connector-curvature="0" sodipodi:nodetypes="cccccccccccccccccccc" class="st0" d="M263.1,340.5v3.6
	h-3.3v5.9h16.6v4.2l-17.9,27.1l-2.9,0v-27.1h-5.1v-4.2h5.1l0.1-5.9h-2.8v-3.6H263.1z M259.8,371.4l11.4-17.2h-11.4V371.4z"/>
<path id="path8638" inkscape:connector-curvature="0" sodipodi:nodetypes="cccccccc" class="st0" d="M11.2,78.2
	C9.2,73.8,9,66.2,15,65.2c4.6-0.6,6.4,1.5,6.8,4.8c0.2,1,0.7,1,0.9-0.1c0.3-3.3,3.6-5.3,6.2-4.8c7.1,1.2,6.7,9,4.4,14.3
	c-3.5,7-7.2,11.5-10.6,18.5C18.8,90.6,14.3,84.6,11.2,78.2L11.2,78.2z"/>
<path id="path8520" inkscape:connector-curvature="0" sodipodi:nodetypes="ccccsccssc" class="st0" d="M57.7,33.4
	c9.2-0.6,13.9,7.2,14.9,13.4c0.6,1,0.9,0.7,1.1-0.1c0.4-7.9,7.5-14.4,14.1-13.5c10.7,0.1,17.2,12,15.3,22.1
	c-2.2,12.3-8.8,19.7-13.8,27.3c-5.7,7.9-13.3,19.3-15.7,24.8c0,0-7.7-11.8-17.8-25.7c-6.7-9.3-12.1-19.3-12.6-28
	C42.4,43.8,46.4,35,57.7,33.4L57.7,33.4z"/>
<path id="path8522" inkscape:connector-curvature="0" sodipodi:nodetypes="ccccsccssc" class="st0" d="M198,33.4
	c9.2-0.6,13.9,7.2,14.9,13.4c0.6,1,0.9,0.7,1.1-0.1c0.4-7.9,7.5-14.4,14.1-13.5c10.7,0.1,17.2,12,15.3,22.1
	c-2.2,12.3-8.8,19.7-13.8,27.3c-5.7,7.9-13.3,19.3-15.7,24.8c0,0-7.7-11.8-17.8-25.7c-6.7-9.3-12.1-19.3-12.6-28
	C182.7,43.8,186.7,35,198,33.4L198,33.4z"/>
<path id="path8584" inkscape:connector-curvature="0" sodipodi:nodetypes="ccccsccssc" class="st0" d="M57.7,362.3
	c9.2,0.6,13.9-7.2,14.9-13.4c0.6-1,0.9-0.7,1.1,0.1c0.4,7.9,7.5,14.4,14.1,13.5c10.7-0.1,17.2-12,15.3-22.1
	c-2.2-12.3-8.8-19.7-13.8-27.3c-5.7-7.9-13.3-19.3-15.7-24.8c0,0-7.7,11.8-17.8,25.7c-6.7,9.3-12.1,19.3-12.6,28
	C42.4,351.9,46.4,360.7,57.7,362.3L57.7,362.3z"/>
<path id="path8586" inkscape:connector-curvature="0" sodipodi:nodetypes="ccccsccssc" class="st0" d="M198,362.3
	c9.2,0.6,13.9-7.2,14.9-13.4c0.6-1,0.9-0.7,1.1,0.1c0.4,7.9,7.5,14.4,14.1,13.5c10.7-0.1,17.2-12,15.3-22.1
	c-2.2-12.3-8.8-19.7-13.8-27.3c-5.7-7.9-13.3-19.3-15.7-24.8c0,0-7.7,11.8-17.8,25.7c-6.7,9.3-12.1,19.3-12.6,28
	C182.7,351.9,186.7,360.7,198,362.3L198,362.3z"/>
<path id="path8654" inkscape:connector-curvature="0" sodipodi:nodetypes="cccccccc" class="st0" d="M251.1,322.1
	c-2,4.5-2.3,12.1,3.8,13.1c4.6,0.6,6.4-1.5,6.8-4.8c0.2-1,0.7-1,0.9,0.1c0.3,3.3,3.6,5.3,6.2,4.8c7.1-1.2,6.7-9,4.4-14.3
	c-3.5-7-7.2-11.5-10.6-18.5C258.6,309.8,254.2,315.8,251.1,322.1L251.1,322.1z"/>
</svg>
