<?xml version="1.0" encoding="utf-8"?>
<!-- Generator: Adobe Illustrator 22.1.0, SVG Export Plug-In . SVG Version: 6.00 Build 0)  -->
<svg version="1.1"
	 id="svg4423" inkscape:version="0.48.1 r9760" sodipodi:docname="4S.svg" xmlns:cc="http://creativecommons.org/ns#" xmlns:dc="http://purl.org/dc/elements/1.1/" xmlns:inkscape="http://www.inkscape.org/namespaces/inkscape" xmlns:rdf="http://www.w3.org/1999/02/22-rdf-syntax-ns#" xmlns:sodipodi="http://sodipodi.sourceforge.net/DTD/sodipodi-0.dtd" xmlns:svg="http://www.w3.org/2000/svg"
	 xmlns="http://www.w3.org/2000/svg" xmlns:xlink="http://www.w3.org/1999/xlink" x="0px" y="0px" viewBox="0 0 286 400"
	 style="enable-background:new 0 0 286 400;" xml:space="preserve">
<path id="path7104-6" inkscape:connector-curvature="0" sodipodi:nodetypes="cccccccccccccccccccc" d="M22.9,59.5v-3.6h3.3v-5.9H9.6
	v-4.2l17.9-27.1l2.9,0v27.1h5.1v4.2h-5.1l-0.1,5.9h2.8v3.6L22.9,59.5z M26.2,28.6L14.8,45.7h11.4V28.6z"/>
<path id="path7159-1" inkscape:connector-curvature="0" sodipodi:nodetypes="cccccccccccccccccccc" d="M263.1,340.5v3.6h-3.3v5.9
	h16.6v4.2l-17.9,27.1l-2.9,0v-27.1h-5.1v-4.2h5.1l0.1-5.9h-2.8v-3.6H263.1z M259.8,371.4l11.4-17.2h-11.4V371.4z"/>
<path id="path3198" inkscape:connector-curvature="0" sodipodi:nodetypes="ccsscsccccc" d="M70.3,85c0-2.6-2-2.6-2-0.8
	c-0.2,9.5-8.2,14.2-14.1,13.1c-9-1.7-11.9-10.7-11.8-16c0.3-16.3,16.6-28.3,31.4-49.2c10.8,18.8,28.7,33.6,29.8,48.2
	c1.4,19.4-23.1,26.6-26.6,4c-0.2-1.6-2.1-2.3-2-0.1c0.5,6.2-0.2,8.8,6.7,24H63.6C67.7,101.3,70.1,92.5,70.3,85L70.3,85z"/>
<path id="path3200" inkscape:connector-curvature="0" sodipodi:nodetypes="ccsscsccccc" d="M213.2,85c0-2.6-2-2.6-2-0.8
	c-0.2,9.5-8.2,14.2-14.1,13.1c-9-1.7-11.9-10.7-11.8-16c0.3-16.3,16.6-28.3,31.4-49.2c10.8,18.8,28.7,33.6,29.8,48.2
	c1.4,19.4-23.1,26.6-26.6,4c-0.2-1.6-2.1-2.3-2-0.1c0.5,6.2-0.2,8.8,6.7,24h-18.2C210.6,101.3,213,92.5,213.2,85L213.2,85z"/>
<path id="path3260" inkscape:connector-curvature="0" sodipodi:nodetypes="ccsscsccccc" d="M70.4,310.7c0,2.6-2,2.6-2,0.8
	c-0.2-9.5-8.2-14.2-14.1-13.1c-9,1.7-11.9,10.7-11.8,16c0.3,16.3,16.6,28.3,31.4,49.2c10.8-18.8,28.7-33.6,29.8-48.2
	c1.4-19.4-23.1-26.6-26.6-4c-0.2,1.6-2.1,2.3-2,0.1c0.5-6.2-0.2-8.8,6.7-24H63.6C67.7,294.5,70.1,303.2,70.4,310.7L70.4,310.7z"/>
<path id="path3262" inkscape:connector-curvature="0" sodipodi:nodetypes="ccsscsccccc" d="M213.3,310.7c0,2.6-2,2.6-2,0.8
	c-0.2-9.5-8.2-14.2-14.1-13.1c-9,1.7-11.9,10.7-11.8,16c0.3,16.3,16.6,28.3,31.4,49.2c10.8-18.8,28.7-33.6,29.8-48.2
	c1.4-19.4-23.1-26.6-26.6-4c-0.2,1.6-2.1,2.3-2,0.1c0.5-6.2-0.2-8.8,6.7-24h-18.2C210.6,294.5,213,303.2,213.3,310.7L213.3,310.7z"
	/>
<path id="path3314" inkscape:connector-curvature="0" sodipodi:nodetypes="ccscccscsccccc" d="M21.8,89.9c0-1.1-1.1-0.6-1.3-0.2
	c-1.5,2.5-3.7,3.1-5.8,2.2c-2.1-0.9-3.3-2.9-3.1-5.8c0.4-4.4,3.9-9.2,5.6-12c1.6-2.5,3.4-5.4,5.2-9.2c2.2,4.3,3.3,5.5,5.6,9.5
	c2.1,3.5,5,6.9,5.2,11.1c0,3.2-1.3,6.2-4.4,6.7c-1.7,0.3-3.3-0.6-4.5-2.6c-0.4-0.5-1.1-0.2-1.1,0.5c0.2,2.7,1.2,5.1,3.6,8H18
	C19.9,96,21.7,93.3,21.8,89.9L21.8,89.9z"/>
<path id="path3336" inkscape:connector-curvature="0" sodipodi:nodetypes="ccscccscsccccc" d="M261.6,310.5c0,1.1-1.1,0.6-1.3,0.2
	c-1.5-2.5-3.7-3.1-5.8-2.2c-2.1,0.9-3.3,2.9-3.1,5.8c0.4,4.4,3.9,9.2,5.6,12c1.6,2.5,3.4,5.4,5.2,9.2c2.2-4.3,3.3-5.5,5.6-9.5
	c2.1-3.5,5-6.9,5.2-11.1c0-3.2-1.3-6.2-4.4-6.7c-1.7-0.3-3.3,0.6-4.5,2.6c-0.4,0.5-1.1,0.2-1.1-0.5c0.2-2.7,1.2-5.1,3.6-8h-8.8
	C259.7,304.4,261.6,307.1,261.6,310.5L261.6,310.5z"/>
</svg>
