<?xml version="1.0" encoding="utf-8"?>
<!-- Generator: Adobe Illustrator 22.1.0, SVG Export Plug-In . SVG Version: 6.00 Build 0)  -->
<svg version="1.1"
	 id="svg4423" inkscape:version="0.48.1 r9760" sodipodi:docname="5C.svg" xmlns:cc="http://creativecommons.org/ns#" xmlns:dc="http://purl.org/dc/elements/1.1/" xmlns:inkscape="http://www.inkscape.org/namespaces/inkscape" xmlns:rdf="http://www.w3.org/1999/02/22-rdf-syntax-ns#" xmlns:sodipodi="http://sodipodi.sourceforge.net/DTD/sodipodi-0.dtd" xmlns:svg="http://www.w3.org/2000/svg"
	 xmlns="http://www.w3.org/2000/svg" xmlns:xlink="http://www.w3.org/1999/xlink" x="0px" y="0px" viewBox="0 0 286 400"
	 style="enable-background:new 0 0 286 400;" xml:space="preserve">
<path id="path7106-7" inkscape:connector-curvature="0" sodipodi:nodetypes="cccssccccccccccc" d="M10.6,48.2l4.1,0
	c0.8,2.5,2.5,5,4.9,5.7c6.7,1.6,11-2.2,12.4-6.5c1.7-5.2,0-12.6-4.6-15.2c-3.8-2.2-9.5-0.3-12.1,4.3l-2.9-1.8l1.6-17.2h18.9v4.1
	H17.5l-0.2,7.2c3.3-2.3,8.4-2.3,11.6-0.7c6.2,3,9.1,9.7,7.9,17.7c-1.7,7.9-5.4,12.4-13.7,13.1C13.8,58.9,10.5,52.6,10.6,48.2
	L10.6,48.2z"/>
<path id="path7122-6" inkscape:connector-curvature="0" sodipodi:nodetypes="cccssccccccccccc" d="M275.6,351.8l-4.1,0
	c-0.8-2.5-2.5-5-4.9-5.7c-6.7-1.6-11,2.2-12.4,6.5c-1.7,5.2,0,12.6,4.6,15.2c3.8,2.2,9.5,0.3,12.1-4.3l2.9,1.8l-1.6,17.2h-18.9v-4.1
	h15.3l0.2-7.2c-3.3,2.3-8.4,2.3-11.6,0.7c-6.2-3-9.1-9.7-7.9-17.7c1.7-7.9,5.4-12.4,13.7-13.1C272.4,341.1,275.7,347.4,275.6,351.8
	L275.6,351.8z"/>
<path id="path3245" inkscape:connector-curvature="0" sodipodi:nodetypes="cccscccccscscc" d="M133.6,236.7c3.7-7.4,6.4-15,6.9-23.1
	c0.4-3-1.4-3-1.7-0.9c-5.2,20-33,14.6-32.1-4.2c0.8-15.3,15.9-18.5,23.8-13.6c3.1,1.8,2.9,0.7,1.2-1.2c-11.7-13.1-4.6-30,11.2-30.3
	c17.1,1,21.6,19.1,11.1,29.7c-1.3,1.3-4.2,5.4,0.2,2.5c10.6-7.6,25.4,0.6,25.1,12.2c-0.6,21.5-26.7,23.1-32.3,5.1
	c-0.5-2-2.1-3-1.7,0.4c0.8,6.1,2.4,15.3,7,23.4H133.6z"/>
<path id="path3247" inkscape:connector-curvature="0" sodipodi:nodetypes="cccscccccscscc" d="M196.7,109.3c3.7-7.4,6.4-15,6.9-23.1
	c0.4-3-1.4-3-1.7-0.9c-5.2,20-33,14.6-32.1-4.2c0.8-15.3,15.9-18.5,23.8-13.6c3.1,1.8,2.9,0.7,1.2-1.2c-11.7-13.1-4.6-30,11.2-30.3
	c17.1,1,21.6,19.1,11.1,29.7c-1.3,1.3-4.2,5.4,0.2,2.5c10.6-7.6,25.4,0.6,25.1,12.2c-0.6,21.5-26.7,23.1-32.3,5.1
	c-0.5-2-2.1-3-1.7,0.4c0.8,6.1,2.4,15.3,7,23.4L196.7,109.3z"/>
<path id="path3249" inkscape:connector-curvature="0" sodipodi:nodetypes="cccscccccscscc" d="M70.2,109.3c3.7-7.4,6.4-15,6.9-23.1
	c0.4-3-1.4-3-1.7-0.9c-5.2,20-33,14.6-32.1-4.2c0.8-15.3,15.9-18.5,23.8-13.6c3.1,1.8,2.9,0.7,1.2-1.2c-11.7-13.1-4.6-30,11.2-30.3
	c17.1,1,21.6,19.1,11.1,29.7c-1.3,1.3-4.2,5.4,0.2,2.5c10.6-7.6,25.4,0.6,25.1,12.2c-0.6,21.5-26.7,23.1-32.3,5.1
	c-0.5-2-2.1-3-1.7,0.4c0.8,6.1,2.4,15.3,7,23.4L70.2,109.3z"/>
<path id="path3397" inkscape:connector-curvature="0" sodipodi:nodetypes="cccscccccscscc" d="M215.5,288.3
	c-3.7,7.4-6.4,15-6.9,23.1c-0.4,3,1.4,3,1.7,0.9c5.2-20,33-14.6,32.1,4.2c-0.8,15.3-15.9,18.5-23.8,13.6c-3.1-1.8-2.9-0.7-1.2,1.2
	c11.7,13.1,4.6,30-11.2,30.3c-17.1-1-21.6-19.1-11.1-29.7c1.3-1.3,4.2-5.4-0.2-2.5c-10.6,7.6-25.4-0.6-25.1-12.2
	c0.6-21.5,26.7-23.1,32.3-5.1c0.5,2,2.1,3,1.7-0.4c-0.8-6.1-2.4-15.3-7-23.4H215.5z"/>
<path id="path3399" inkscape:connector-curvature="0" sodipodi:nodetypes="cccscccccscscc" d="M89.1,288.3c-3.7,7.4-6.4,15-6.9,23.1
	c-0.4,3,1.4,3,1.7,0.9c5.2-20,33-14.6,32.1,4.2c-0.8,15.3-15.9,18.5-23.8,13.6c-3.1-1.8-2.9-0.7-1.2,1.2c11.7,13.1,4.6,30-11.2,30.3
	c-17.1-1-21.6-19.1-11.1-29.7c1.3-1.3,4.2-5.4-0.2-2.5c-10.6,7.6-25.4-0.6-25.1-12.2c0.6-21.5,26.7-23.1,32.3-5.1
	c0.5,2,2.1,3,1.7-0.4c-0.8-6.1-2.4-15.3-7-23.4H89.1z"/>
<path id="path3460" inkscape:connector-curvature="0" sodipodi:nodetypes="cccscsccssscccsccccc" d="M18.2,96.2
	c1.5-3.1,3-6.1,3.8-9.5c0.5-3.2-0.6-2-1.2,0.1c-0.9,2.9-3.5,4.3-5.9,4.3c-4.3,0.1-6.5-3.3-6.3-7c-0.5-3.8,3.4-6.6,6.4-6.4
	c2.2,0.2,4.1,1.3,5.3,2.3c0.8,0.4,1.6,0.6,0.4-0.5c-2.1-2.4-3.9-3.8-3.9-7.3c0-3.3,2.9-6.8,6.6-6.6c4.7,0.1,6.8,3.7,6.8,7
	c0,2.4-1.2,4.7-3.1,6c-1.2,1-0.9,1.7,0.5,0.8c1.3-1.1,2.9-1.6,4.5-1.7c4.5-0.1,6.2,3.8,6,7.4c-0.2,3.4-3.1,6.8-6.9,6.4
	c-3.4-0.4-5.1-3.2-6.2-6.1c-0.3-0.9-0.9-1.1-0.9,0.2c0.8,6.5,3.2,10.5,3.2,10.5H18.2z"/>
<path id="path3480" inkscape:connector-curvature="0" sodipodi:nodetypes="cccscsccssscccsccccc" d="M267.8,304.1
	c-1.5,3.1-3,6.1-3.8,9.5c-0.5,3.2,0.6,2,1.2-0.1c0.9-2.9,3.5-4.3,5.9-4.3c4.3-0.1,6.5,3.3,6.3,7c0.5,3.8-3.4,6.6-6.4,6.4
	c-2.2-0.2-4.1-1.3-5.3-2.3c-0.8-0.4-1.6-0.6-0.4,0.5c2.1,2.4,3.9,3.8,3.9,7.3c0,3.3-2.9,6.8-6.6,6.6c-4.7-0.1-6.8-3.7-6.8-7
	c0-2.4,1.2-4.7,3.1-6c1.2-1,0.9-1.7-0.5-0.8c-1.3,1.1-2.9,1.6-4.5,1.7c-4.5,0.1-6.2-3.8-6-7.4c0.2-3.4,3.1-6.8,6.9-6.4
	c3.4,0.4,5.1,3.2,6.2,6.1c0.3,0.9,0.9,1.1,0.9-0.2c-0.8-6.5-3.2-10.5-3.2-10.5H267.8z"/>
</svg>
