<?xml version="1.0" encoding="utf-8"?>
<!-- Generator: Adobe Illustrator 22.1.0, SVG Export Plug-In . SVG Version: 6.00 Build 0)  -->
<svg version="1.1"
	 id="svg4423" inkscape:version="0.48.1 r9760" sodipodi:docname="5D.svg" xmlns:cc="http://creativecommons.org/ns#" xmlns:dc="http://purl.org/dc/elements/1.1/" xmlns:inkscape="http://www.inkscape.org/namespaces/inkscape" xmlns:rdf="http://www.w3.org/1999/02/22-rdf-syntax-ns#" xmlns:sodipodi="http://sodipodi.sourceforge.net/DTD/sodipodi-0.dtd" xmlns:svg="http://www.w3.org/2000/svg"
	 xmlns="http://www.w3.org/2000/svg" xmlns:xlink="http://www.w3.org/1999/xlink" x="0px" y="0px" viewBox="0 0 286 400"
	 style="enable-background:new 0 0 286 400;" xml:space="preserve">
<style type="text/css">
	.st0{fill:#D40000;}
</style>
<path id="path3459" inkscape:connector-curvature="0" sodipodi:nodetypes="ccccc" class="st0" d="M43.4,73c12.7-12.4,21.1-26,29-39
	c7,14.3,17,26.9,27.9,39c-11.6,12-20.6,24.9-27.9,38.4C64.5,97.5,56,85,43.4,73z"/>
<path id="path3463" inkscape:connector-curvature="0" sodipodi:nodetypes="ccccc" class="st0" d="M43.4,325.3
	c12.7-12.4,21.1-26,29-39c7,14.3,17,26.9,27.9,39c-11.6,12-20.6,24.9-27.9,38.4C64.5,349.8,56,337.3,43.4,325.3L43.4,325.3z"/>
<path id="path3465" inkscape:connector-curvature="0" sodipodi:nodetypes="ccccc" class="st0" d="M185.2,73c12.7-12.4,21.1-26,29-39
	c7,14.3,17,26.9,27.9,39c-11.6,12-20.6,24.9-27.9,38.4C206.3,97.5,197.8,85,185.2,73L185.2,73z"/>
<path id="path3467" inkscape:connector-curvature="0" sodipodi:nodetypes="ccccc" class="st0" d="M114.4,200.3
	c12.7-12.4,21.1-26,29-39c7,14.3,17,26.9,27.9,39c-11.6,12-20.6,24.9-27.9,38.4C135.5,224.9,127,212.3,114.4,200.3L114.4,200.3z"/>
<path id="path3469" inkscape:connector-curvature="0" sodipodi:nodetypes="ccccc" class="st0" d="M185.2,325.3
	c12.7-12.4,21.1-26,29-39c7,14.3,17,26.9,27.9,39c-11.6,12-20.6,24.9-27.9,38.4C206.3,349.8,197.8,337.3,185.2,325.3L185.2,325.3z"
	/>
<path id="path3742" inkscape:connector-curvature="0" sodipodi:nodetypes="ccccc" class="st0" d="M250.8,319.5
	c5.2-5.1,8.6-10.6,11.9-16c2.9,5.9,7,11,11.4,16c-4.8,4.9-8.5,10.2-11.4,15.7C259.5,329.5,256,324.4,250.8,319.5z"/>
<path id="path3744" inkscape:connector-curvature="0" sodipodi:nodetypes="ccccc" class="st0" d="M11.6,81.1
	c5.2-5.1,8.6-10.6,11.9-16c2.9,5.9,7,11,11.4,16c-4.8,4.9-8.5,10.2-11.4,15.7C20.3,91.1,16.8,86,11.6,81.1L11.6,81.1z"/>
<path id="path7106-71" inkscape:connector-curvature="0" sodipodi:nodetypes="cccssccccccccccc" class="st0" d="M10.5,48.2l4.1,0
	c0.8,2.5,2.5,5,4.9,5.7c6.7,1.6,11-2.2,12.4-6.5c1.7-5.2,0-12.6-4.6-15.2c-3.8-2.2-9.5-0.3-12.1,4.3l-2.9-1.8l1.6-17.2h18.9v4.1
	H17.4l-0.2,7.2c3.3-2.3,8.4-2.3,11.6-0.7c6.2,3,9.1,9.7,7.9,17.7c-1.7,7.9-5.4,12.4-13.7,13.1C13.7,58.9,10.4,52.6,10.5,48.2
	L10.5,48.2z"/>
<path id="path7122-7" inkscape:connector-curvature="0" sodipodi:nodetypes="cccssccccccccccc" class="st0" d="M275.5,351.8l-4.1,0
	c-0.8-2.5-2.5-5-4.9-5.7c-6.7-1.6-11,2.2-12.4,6.5c-1.7,5.2,0,12.6,4.6,15.2c3.8,2.2,9.5,0.3,12.1-4.3l2.9,1.8l-1.6,17.2h-18.9v-4.1
	h15.3l0.2-7.2c-3.3,2.3-8.4,2.3-11.6,0.7c-6.2-3-9.1-9.7-7.9-17.7c1.7-7.9,5.4-12.4,13.7-13.1C272.3,341.1,275.6,347.4,275.5,351.8
	L275.5,351.8z"/>
</svg>
