<?xml version="1.0" encoding="utf-8"?>
<!-- Generator: Adobe Illustrator 22.1.0, SVG Export Plug-In . SVG Version: 6.00 Build 0)  -->
<svg version="1.1"
	 id="svg4423" inkscape:version="0.48.1 r9760" sodipodi:docname="5H.svg" xmlns:cc="http://creativecommons.org/ns#" xmlns:dc="http://purl.org/dc/elements/1.1/" xmlns:inkscape="http://www.inkscape.org/namespaces/inkscape" xmlns:rdf="http://www.w3.org/1999/02/22-rdf-syntax-ns#" xmlns:sodipodi="http://sodipodi.sourceforge.net/DTD/sodipodi-0.dtd" xmlns:svg="http://www.w3.org/2000/svg"
	 xmlns="http://www.w3.org/2000/svg" xmlns:xlink="http://www.w3.org/1999/xlink" x="0px" y="0px" viewBox="0 0 286 400"
	 style="enable-background:new 0 0 286 400;" xml:space="preserve">
<style type="text/css">
	.st0{fill:#D40000;}
</style>
<path id="path7106" inkscape:connector-curvature="0" sodipodi:nodetypes="cccssccccccccccc" class="st0" d="M10.5,48.2l4.1,0
	c0.8,2.5,2.5,5,4.9,5.7c6.7,1.6,11-2.2,12.4-6.5c1.7-5.2,0-12.6-4.6-15.2c-3.8-2.2-9.5-0.3-12.1,4.3l-2.9-1.8l1.6-17.2h18.9v4.1
	H17.4l-0.2,7.2c3.3-2.3,8.4-2.3,11.6-0.7c6.2,3,9.1,9.7,7.9,17.7c-1.7,7.9-5.4,12.4-13.7,13.1C13.7,58.9,10.4,52.6,10.5,48.2
	L10.5,48.2z"/>
<path id="path7122" inkscape:connector-curvature="0" sodipodi:nodetypes="cccssccccccccccc" class="st0" d="M275.5,351.8l-4.1,0
	c-0.8-2.5-2.5-5-4.9-5.7c-6.7-1.6-11,2.2-12.4,6.5c-1.7,5.2,0,12.6,4.6,15.2c3.8,2.2,9.5,0.3,12.1-4.3l2.9,1.8l-1.6,17.2h-18.9v-4.1
	h15.3l0.2-7.2c-3.3,2.3-8.4,2.3-11.6,0.7c-6.2-3-9.1-9.7-7.9-17.7c1.7-7.9,5.4-12.4,13.7-13.1C272.3,341.1,275.6,347.4,275.5,351.8
	L275.5,351.8z"/>
<path id="path8640" inkscape:connector-curvature="0" sodipodi:nodetypes="cccccccc" class="st0" d="M12.2,77.7
	c-2-4.5-2.3-12.1,3.8-13.1c4.6-0.6,6.4,1.5,6.8,4.8c0.2,1,0.7,1,0.9-0.1c0.3-3.3,3.6-5.3,6.2-4.8c7.1,1.2,6.7,9,4.4,14.3
	c-3.5,7-7.2,11.5-10.6,18.5C19.7,90,15.3,84.1,12.2,77.7L12.2,77.7z"/>
<path id="path8524" inkscape:connector-curvature="0" sodipodi:nodetypes="ccccsccssc" class="st0" d="M56.4,35.8
	c9.2-0.6,13.9,7.2,14.9,13.4c0.6,1,0.9,0.7,1.1-0.1c0.4-7.9,7.5-14.4,14.1-13.5c10.7,0.1,17.2,12,15.3,22.1
	C99.6,70,92.9,77.4,87.9,85c-5.7,7.9-13.3,19.3-15.7,24.8c0,0-7.7-11.8-17.8-25.7c-6.7-9.3-12.1-19.3-12.6-28
	C41.2,46.2,45.2,37.4,56.4,35.8L56.4,35.8z"/>
<path id="path8526" inkscape:connector-curvature="0" sodipodi:nodetypes="ccccsccssc" class="st0" d="M198.2,35.8
	c9.2-0.6,13.9,7.2,14.9,13.4c0.6,1,0.9,0.7,1.1-0.1c0.4-7.9,7.5-14.4,14.1-13.5c10.7,0.1,17.2,12,15.3,22.1
	c-2.2,12.3-8.8,19.7-13.8,27.3c-5.7,7.9-13.3,19.3-15.7,24.8c0,0-7.7-11.8-17.8-25.7c-6.7-9.3-12.1-19.3-12.6-28
	C183,46.2,187,37.4,198.2,35.8L198.2,35.8z"/>
<path id="path8528" inkscape:connector-curvature="0" sodipodi:nodetypes="ccccsccssc" class="st0" d="M127.6,163.1
	c9.2-0.6,13.9,7.2,14.9,13.4c0.6,1,0.9,0.7,1.1-0.1c0.4-7.9,7.5-14.4,14.1-13.5c10.7,0.1,17.2,12,15.3,22.1
	c-2.2,12.3-8.8,19.7-13.8,27.3c-5.7,7.9-13.3,19.3-15.7,24.8c0,0-7.7-11.8-17.8-25.7c-6.7-9.3-12.1-19.3-12.6-28
	C112.3,173.5,116.3,164.7,127.6,163.1L127.6,163.1z"/>
<path id="path8588" inkscape:connector-curvature="0" sodipodi:nodetypes="ccccsccssc" class="st0" d="M56.4,361.8
	c9.2,0.6,13.9-7.2,14.9-13.4c0.6-1,0.9-0.7,1.1,0.1c0.4,7.9,7.5,14.4,14.1,13.5c10.7-0.1,17.2-12,15.3-22.1
	c-2.2-12.3-8.8-19.7-13.8-27.3c-5.7-7.9-13.3-19.3-15.7-24.8c0,0-7.7,11.8-17.8,25.7c-6.7,9.3-12.1,19.3-12.6,28
	C41.2,351.4,45.2,360.3,56.4,361.8L56.4,361.8z"/>
<path id="path8590" inkscape:connector-curvature="0" sodipodi:nodetypes="ccccsccssc" class="st0" d="M198.2,361.8
	c9.2,0.6,13.9-7.2,14.9-13.4c0.6-1,0.9-0.7,1.1,0.1c0.4,7.9,7.5,14.4,14.1,13.5c10.7-0.1,17.2-12,15.3-22.1
	c-2.2-12.3-8.8-19.7-13.8-27.3c-5.7-7.9-13.3-19.3-15.7-24.8c0,0-7.7,11.8-17.8,25.7c-6.7,9.3-12.1,19.3-12.6,28
	C183,351.4,187,360.3,198.2,361.8L198.2,361.8z"/>
<path id="path8656" inkscape:connector-curvature="0" sodipodi:nodetypes="cccccccc" class="st0" d="M251.4,322.6
	c-2,4.5-2.3,12.1,3.8,13.1c4.6,0.6,6.4-1.5,6.8-4.8c0.2-1,0.7-1,0.9,0.1c0.3,3.3,3.6,5.3,6.2,4.8c7.1-1.2,6.7-9,4.4-14.3
	c-3.5-7-7.2-11.5-10.6-18.5C258.9,310.3,254.5,316.3,251.4,322.6L251.4,322.6z"/>
</svg>
