<?xml version="1.0" encoding="utf-8"?>
<!-- Generator: Adobe Illustrator 22.1.0, SVG Export Plug-In . SVG Version: 6.00 Build 0)  -->
<svg version="1.1"
	 id="svg4423" inkscape:version="0.48.1 r9760" sodipodi:docname="5S.svg" xmlns:cc="http://creativecommons.org/ns#" xmlns:dc="http://purl.org/dc/elements/1.1/" xmlns:inkscape="http://www.inkscape.org/namespaces/inkscape" xmlns:rdf="http://www.w3.org/1999/02/22-rdf-syntax-ns#" xmlns:sodipodi="http://sodipodi.sourceforge.net/DTD/sodipodi-0.dtd" xmlns:svg="http://www.w3.org/2000/svg"
	 xmlns="http://www.w3.org/2000/svg" xmlns:xlink="http://www.w3.org/1999/xlink" x="0px" y="0px" viewBox="0 0 286 400"
	 style="enable-background:new 0 0 286 400;" xml:space="preserve">
<path id="path7106-3" inkscape:connector-curvature="0" sodipodi:nodetypes="cccssccccccccccc" d="M10.5,48.2l4.1,0
	c0.8,2.5,2.5,5,4.9,5.7c6.7,1.6,11-2.2,12.4-6.5c1.7-5.2,0-12.6-4.6-15.2c-3.8-2.2-9.5-0.3-12.1,4.3l-2.9-1.8l1.6-17.2h18.9v4.1
	H17.4l-0.2,7.2c3.3-2.3,8.4-2.3,11.6-0.7c6.2,3,9.1,9.7,7.9,17.7c-1.7,7.9-5.4,12.4-13.7,13.1C13.7,58.9,10.4,52.6,10.5,48.2
	L10.5,48.2z"/>
<path id="path7122-4" inkscape:connector-curvature="0" sodipodi:nodetypes="cccssccccccccccc" d="M275.5,351.8l-4.1,0
	c-0.8-2.5-2.5-5-4.9-5.7c-6.7-1.6-11,2.2-12.4,6.5c-1.7,5.2,0,12.6,4.6,15.2c3.8,2.2,9.5,0.3,12.1-4.3l2.9,1.8l-1.6,17.2h-18.9v-4.1
	h15.3l0.2-7.2c-3.3,2.3-8.4,2.3-11.6,0.7c-6.2-3-9.1-9.7-7.9-17.7c1.7-7.9,5.4-12.4,13.7-13.1C272.3,341.1,275.6,347.4,275.5,351.8
	L275.5,351.8z"/>
<path id="path3202" inkscape:connector-curvature="0" sodipodi:nodetypes="ccsscsccccc" d="M69.1,87.4c0-2.6-2-2.6-2-0.8
	c-0.2,9.5-8.2,14.2-14.1,13.1c-9-1.7-11.9-10.7-11.8-16c0.3-16.3,16.6-28.3,31.4-49.2c10.8,18.8,28.7,33.6,29.8,48.2
	c1.4,19.4-23.1,26.6-26.6,4c-0.2-1.6-2.1-2.3-2-0.1c0.5,6.2-0.2,8.8,6.7,24H62.4C66.5,103.7,68.9,94.9,69.1,87.4L69.1,87.4z"/>
<path id="path3204" inkscape:connector-curvature="0" sodipodi:nodetypes="ccsscsccccc" d="M210.9,87.4c0-2.6-2-2.6-2-0.8
	c-0.2,9.5-8.2,14.2-14.1,13.1c-9-1.7-11.9-10.7-11.8-16c0.3-16.3,16.6-28.3,31.4-49.2c10.8,18.8,28.7,33.6,29.8,48.2
	c1.4,19.4-23.1,26.6-26.6,4c-0.2-1.6-2.1-2.3-2-0.1c0.5,6.2-0.2,8.8,6.7,24h-18.2C208.3,103.7,210.7,94.9,210.9,87.4L210.9,87.4z"/>
<path id="path3206" inkscape:connector-curvature="0" sodipodi:nodetypes="ccsscsccccc" d="M140.2,214.7c0-2.6-2-2.6-2-0.8
	c-0.2,9.5-8.2,14.2-14.1,13.1c-9-1.7-11.9-10.7-11.8-16c0.3-16.3,16.6-28.3,31.4-49.2c10.8,18.8,28.7,33.6,29.8,48.2
	c1.4,19.4-23.1,26.6-26.6,4c-0.2-1.6-2.1-2.3-2-0.1c0.5,6.2-0.2,8.8,6.7,24h-18.2C137.5,231,139.9,222.2,140.2,214.7L140.2,214.7z"
	/>
<path id="path3264" inkscape:connector-curvature="0" sodipodi:nodetypes="ccsscsccccc" d="M69.2,310.3c0,2.6-2,2.6-2,0.8
	c-0.2-9.5-8.2-14.2-14.1-13.1c-9,1.7-11.9,10.7-11.8,16c0.3,16.3,16.6,28.3,31.4,49.2c10.8-18.8,28.7-33.6,29.8-48.2
	c1.4-19.4-23.1-26.6-26.6-4c-0.2,1.6-2.1,2.3-2,0.1c0.5-6.2-0.2-8.8,6.7-24H62.4C66.5,294,68.9,302.8,69.2,310.3L69.2,310.3z"/>
<path id="path3266" inkscape:connector-curvature="0" sodipodi:nodetypes="ccsscsccccc" d="M211,310.3c0,2.6-2,2.6-2,0.8
	c-0.2-9.5-8.2-14.2-14.1-13.1c-9,1.7-11.9,10.7-11.8,16c0.3,16.3,16.6,28.3,31.4,49.2c10.8-18.8,28.7-33.6,29.8-48.2
	c1.4-19.4-23.1-26.6-26.6-4c-0.2,1.6-2.1,2.3-2,0.1c0.5-6.2-0.2-8.8,6.7-24h-18.2C208.3,294,210.7,302.8,211,310.3L211,310.3z"/>
<path id="path3316" inkscape:connector-curvature="0" sodipodi:nodetypes="ccscccscsccccc" d="M22.8,89.4c0-1.1-1.1-0.6-1.3-0.2
	c-1.5,2.5-3.7,3.1-5.8,2.2c-2.1-0.9-3.3-2.9-3.1-5.8c0.4-4.4,3.9-9.2,5.6-12c1.6-2.5,3.4-5.4,5.2-9.2c2.2,4.3,3.3,5.5,5.6,9.5
	c2.1,3.5,5,6.9,5.2,11.1c0,3.2-1.3,6.2-4.4,6.7c-1.7,0.3-3.3-0.6-4.5-2.6c-0.4-0.5-1.1-0.2-1.1,0.5c0.2,2.7,1.2,5.1,3.6,8H19
	C20.8,95.5,22.7,92.7,22.8,89.4L22.8,89.4z"/>
<path id="path3338" inkscape:connector-curvature="0" sodipodi:nodetypes="ccscccscsccccc" d="M262,311c0,1.1-1.1,0.6-1.3,0.2
	c-1.5-2.5-3.7-3.1-5.8-2.2c-2.1,0.9-3.3,2.9-3.1,5.8c0.4,4.4,3.9,9.2,5.6,12c1.6,2.5,3.4,5.4,5.2,9.2c2.2-4.3,3.3-5.5,5.6-9.5
	c2.1-3.5,5-6.9,5.2-11.1c0-3.2-1.3-6.2-4.4-6.7c-1.7-0.3-3.3,0.6-4.5,2.6c-0.4,0.5-1.1,0.2-1.1-0.5c0.2-2.7,1.2-5.1,3.6-8h-8.8
	C260,304.8,261.9,307.6,262,311L262,311z"/>
</svg>
