<?xml version="1.0" encoding="utf-8"?>
<!-- Generator: Adobe Illustrator 22.1.0, SVG Export Plug-In . SVG Version: 6.00 Build 0)  -->
<svg version="1.1"
	 id="svg4423" inkscape:version="0.48.1 r9760" sodipodi:docname="6C.svg" xmlns:cc="http://creativecommons.org/ns#" xmlns:dc="http://purl.org/dc/elements/1.1/" xmlns:inkscape="http://www.inkscape.org/namespaces/inkscape" xmlns:rdf="http://www.w3.org/1999/02/22-rdf-syntax-ns#" xmlns:sodipodi="http://sodipodi.sourceforge.net/DTD/sodipodi-0.dtd" xmlns:svg="http://www.w3.org/2000/svg"
	 xmlns="http://www.w3.org/2000/svg" xmlns:xlink="http://www.w3.org/1999/xlink" x="0px" y="0px" viewBox="0 0 286 400"
	 style="enable-background:new 0 0 286 400;" xml:space="preserve">
<path id="path7108-1" inkscape:connector-curvature="0" sodipodi:nodetypes="cssccacccccszsss" d="M10.4,46.2
	c-0.5-3.5-0.5-12.6-0.1-15.3c1.3-8.2,4.5-12,9.9-13.3c5.2-1.2,12.5,0.1,14.1,7L30,24.7c-2.4-4.7-8.3-3.4-11.7-1.4
	c-2.7,1.6-3.9,8.4-3.4,8.8c0,0,5.1-3.7,9.1-3.4c8.5,0.9,12.1,8.2,11.8,15c-0.3,8.3-2.9,14.9-12,15.3C15.2,58.7,11.2,54.1,10.4,46.2z
	 M31.6,44c0-5.7-2.6-10-7.6-10.5c-5-0.5-10.1,4.3-9.7,10.2c0.4,5.9,2.7,10.8,8.7,10.8C29.6,54.4,31.6,48.1,31.6,44L31.6,44z"/>
<path id="path7161-2" inkscape:connector-curvature="0" sodipodi:nodetypes="cssccacccccszsss" d="M275.3,353.8
	c0.5,3.5,0.5,12.6,0.1,15.3c-1.3,8.2-4.5,12-9.9,13.3c-5.2,1.2-12.5-0.1-14.1-7l4.4-0.1c2.4,4.7,8.3,3.4,11.7,1.4
	c2.7-1.6,3.9-8.4,3.4-8.8c0,0-5.1,3.7-9.1,3.4c-8.5-0.9-12.1-8.2-11.8-15c0.3-8.3,2.9-14.9,12-15.3
	C270.5,341.3,274.5,345.9,275.3,353.8L275.3,353.8z M254.1,356c0,5.7,2.6,10,7.6,10.5c5,0.5,10.1-4.3,9.7-10.2
	c-0.4-5.9-2.7-10.8-8.7-10.8C256.1,345.6,254.1,351.9,254.1,356L254.1,356z"/>
<path id="path3237" inkscape:connector-curvature="0" sodipodi:nodetypes="cccscccccscscc" d="M197.4,236.8c3.7-7.4,6.4-15,6.9-23.1
	c0.4-3-1.4-3-1.7-0.9c-5.2,20-33,14.6-32.1-4.2c0.8-15.3,15.9-18.5,23.8-13.6c3.1,1.8,2.9,0.7,1.2-1.2c-11.7-13.1-4.6-30,11.2-30.3
	c17.1,1,21.6,19.1,11.1,29.7c-1.3,1.3-4.2,5.4,0.2,2.5c10.6-7.6,25.4,0.6,25.1,12.2c-0.6,21.5-26.7,23.1-32.3,5.1
	c-0.5-2-2.1-3-1.7,0.4c0.8,6.1,2.4,15.3,7,23.4L197.4,236.8z"/>
<path id="path3239" inkscape:connector-curvature="0" sodipodi:nodetypes="cccscccccscscc" d="M69.9,236.8c3.7-7.4,6.4-15,6.9-23.1
	c0.4-3-1.4-3-1.7-0.9c-5.2,20-33,14.6-32.1-4.2c0.8-15.3,15.9-18.5,23.8-13.6c3.1,1.8,2.9,0.7,1.2-1.2c-11.7-13.1-4.6-30,11.2-30.3
	c17.1,1,21.6,19.1,11.1,29.7c-1.3,1.3-4.2,5.4,0.2,2.5c10.6-7.6,25.4,0.6,25.1,12.2C115,229.4,88.9,231,83.3,213
	c-0.5-2-2.1-3-1.7,0.4c0.8,6.1,2.4,15.3,7,23.4L69.9,236.8z"/>
<path id="path3241" inkscape:connector-curvature="0" sodipodi:nodetypes="cccscccccscscc" d="M197.4,109.9c3.7-7.4,6.4-15,6.9-23.1
	c0.4-3-1.4-3-1.7-0.9c-5.2,20-33,14.6-32.1-4.2c0.8-15.3,15.9-18.5,23.8-13.6c3.1,1.8,2.9,0.7,1.2-1.2c-11.7-13.1-4.6-30,11.2-30.3
	c17.1,1,21.6,19.1,11.1,29.7c-1.3,1.3-4.2,5.4,0.2,2.5c10.6-7.6,25.4,0.6,25.1,12.2c-0.6,21.5-26.7,23.1-32.3,5.1
	c-0.5-2-2.1-3-1.7,0.4c0.8,6.1,2.4,15.3,7,23.4L197.4,109.9z"/>
<path id="path3243" inkscape:connector-curvature="0" sodipodi:nodetypes="cccscccccscscc" d="M69.9,109.9c3.7-7.4,6.4-15,6.9-23.1
	c0.4-3-1.4-3-1.7-0.9c-5.2,20-33,14.6-32.1-4.2c0.8-15.3,15.9-18.5,23.8-13.6c3.1,1.8,2.9,0.7,1.2-1.2c-11.7-13.1-4.6-30,11.2-30.3
	c17.1,1,21.6,19.1,11.1,29.7c-1.3,1.3-4.2,5.4,0.2,2.5c10.6-7.6,25.4,0.6,25.1,12.2c-0.6,21.5-26.7,23.1-32.3,5.1
	c-0.5-2-2.1-3-1.7,0.4c0.8,6.1,2.4,15.3,7,23.4L69.9,109.9z"/>
<path id="path3393" inkscape:connector-curvature="0" sodipodi:nodetypes="cccscccccscscc" d="M216.2,290c-3.7,7.4-6.4,15-6.9,23.1
	c-0.4,3,1.4,3,1.7,0.9c5.2-20,33-14.6,32.1,4.2c-0.8,15.3-15.9,18.5-23.8,13.6c-3.1-1.8-2.9-0.7-1.2,1.2c11.7,13.1,4.6,30-11.2,30.3
	c-17.1-1-21.6-19.1-11.1-29.7c1.3-1.3,4.2-5.4-0.2-2.5c-10.6,7.6-25.4-0.6-25.1-12.2c0.6-21.5,26.7-23.1,32.3-5.1
	c0.5,2,2.1,3,1.7-0.4c-0.8-6.1-2.4-15.3-7-23.4H216.2z"/>
<path id="path3395" inkscape:connector-curvature="0" sodipodi:nodetypes="cccscccccscscc" d="M88.7,290c-3.7,7.4-6.4,15-6.9,23.1
	c-0.4,3,1.4,3,1.7,0.9c5.2-20,33-14.6,32.1,4.2c-0.8,15.3-15.9,18.5-23.8,13.6c-3.1-1.8-2.9-0.7-1.2,1.2c11.7,13.1,4.6,30-11.2,30.3
	c-17.1-1-21.6-19.1-11.1-29.7c1.3-1.3,4.2-5.4-0.2-2.5c-10.6,7.6-25.4-0.6-25.1-12.2c0.6-21.5,26.7-23.1,32.3-5.1
	c0.5,2,2.1,3,1.7-0.4c-0.8-6.1-2.4-15.3-7-23.4H88.7z"/>
<path id="path3462" inkscape:connector-curvature="0" sodipodi:nodetypes="cccscsccssscccsccccc" d="M16.9,94.7
	c1.5-3.1,3-6.1,3.8-9.5c0.5-3.2-0.6-2-1.2,0.1c-0.9,2.9-3.5,4.3-5.9,4.3c-4.3,0.1-6.5-3.3-6.3-7c-0.5-3.8,3.4-6.6,6.4-6.4
	c2.2,0.2,4.1,1.3,5.3,2.3c0.8,0.4,1.6,0.6,0.4-0.5c-2.1-2.4-3.9-3.8-3.9-7.3c0-3.3,2.9-6.8,6.6-6.6c4.7,0.1,6.8,3.7,6.8,7
	c0,2.4-1.2,4.7-3.1,6c-1.2,1-0.9,1.7,0.5,0.8c1.3-1.1,2.9-1.6,4.5-1.7c4.5-0.1,6.2,3.8,6,7.4c-0.2,3.4-3.1,6.8-6.9,6.4
	c-3.4-0.4-5.1-3.2-6.2-6.1c-0.3-0.9-0.9-1.1-0.9,0.2c0.8,6.5,3.2,10.5,3.2,10.5H16.9z"/>
<path id="path3488" inkscape:connector-curvature="0" sodipodi:nodetypes="cccscsccssscccsccccc" d="M269.1,302.5
	c-1.5,3.1-3,6.1-3.8,9.5c-0.5,3.2,0.6,2,1.2-0.1c0.9-2.9,3.5-4.3,5.9-4.3c4.3-0.1,6.5,3.3,6.3,7c0.5,3.8-3.4,6.6-6.4,6.4
	c-2.2-0.2-4.1-1.3-5.3-2.3c-0.8-0.4-1.6-0.6-0.4,0.5c2.1,2.4,3.9,3.8,3.9,7.3c0,3.3-2.9,6.8-6.6,6.6c-4.7-0.1-6.8-3.7-6.8-7
	c0-2.4,1.2-4.7,3.1-6c1.2-1,0.9-1.7-0.5-0.8c-1.3,1.1-2.9,1.6-4.5,1.7c-4.5,0.1-6.2-3.8-6-7.4c0.2-3.4,3.1-6.8,6.9-6.4
	c3.4,0.4,5.1,3.2,6.2,6.1c0.3,0.9,0.9,1.1,0.9-0.2c-0.8-6.5-3.2-10.5-3.2-10.5H269.1z"/>
</svg>
