<?xml version="1.0" encoding="utf-8"?>
<!-- Generator: Adobe Illustrator 22.1.0, SVG Export Plug-In . SVG Version: 6.00 Build 0)  -->
<svg version="1.1"
	 id="svg4423" inkscape:version="0.48.1 r9760" sodipodi:docname="6D.svg" xmlns:cc="http://creativecommons.org/ns#" xmlns:dc="http://purl.org/dc/elements/1.1/" xmlns:inkscape="http://www.inkscape.org/namespaces/inkscape" xmlns:rdf="http://www.w3.org/1999/02/22-rdf-syntax-ns#" xmlns:sodipodi="http://sodipodi.sourceforge.net/DTD/sodipodi-0.dtd" xmlns:svg="http://www.w3.org/2000/svg"
	 xmlns="http://www.w3.org/2000/svg" xmlns:xlink="http://www.w3.org/1999/xlink" x="0px" y="0px" viewBox="0 0 286 400"
	 style="enable-background:new 0 0 286 400;" xml:space="preserve">
<style type="text/css">
	.st0{fill:#D40000;}
</style>
<path id="path3429" inkscape:connector-curvature="0" sodipodi:nodetypes="ccccc" class="st0" d="M43.3,73.6
	c12.7-12.4,21.1-26,29-39c7,14.3,17,26.9,27.9,39c-11.6,12-20.6,24.9-27.9,38.4C64.3,98.1,55.8,85.6,43.3,73.6z"/>
<path id="path3431" inkscape:connector-curvature="0" sodipodi:nodetypes="ccccc" class="st0" d="M43.3,200.4
	c12.7-12.4,21.1-26,29-39c7,14.3,17,26.9,27.9,39c-11.6,12-20.6,24.9-27.9,38.4C64.3,225,55.8,212.4,43.3,200.4z"/>
<path id="path3433" inkscape:connector-curvature="0" sodipodi:nodetypes="ccccc" class="st0" d="M43.3,326.9
	c12.7-12.4,21.1-26,29-39c7,14.3,17,26.9,27.9,39c-11.6,12-20.6,24.9-27.9,38.4C64.3,351.4,55.8,338.9,43.3,326.9z"/>
<path id="path3439" inkscape:connector-curvature="0" sodipodi:nodetypes="ccccc" class="st0" d="M186.2,73.6
	c12.7-12.4,21.1-26,29-39c7,14.3,17,26.9,27.9,39c-11.6,12-20.6,24.9-27.9,38.4C207.2,98.1,198.7,85.6,186.2,73.6z"/>
<path id="path3441" inkscape:connector-curvature="0" sodipodi:nodetypes="ccccc" class="st0" d="M186.2,200.4
	c12.7-12.4,21.1-26,29-39c7,14.3,17,26.9,27.9,39c-11.6,12-20.6,24.9-27.9,38.4C207.2,225,198.7,212.4,186.2,200.4z"/>
<path id="path3443" inkscape:connector-curvature="0" sodipodi:nodetypes="ccccc" class="st0" d="M186.2,326.9
	c12.7-12.4,21.1-26,29-39c7,14.3,17,26.9,27.9,39c-11.6,12-20.6,24.9-27.9,38.4C207.2,351.4,198.7,338.9,186.2,326.9z"/>
<path id="path3722" inkscape:connector-curvature="0" sodipodi:nodetypes="ccccc" class="st0" d="M252.4,317.9
	c5.2-5.1,8.6-10.6,11.9-16c2.9,5.9,7,11,11.4,16c-4.8,4.9-8.5,10.2-11.4,15.7C261.1,328,257.6,322.8,252.4,317.9L252.4,317.9z"/>
<path id="path3724" inkscape:connector-curvature="0" sodipodi:nodetypes="ccccc" class="st0" d="M10.5,79.5
	c5.2-5.1,8.6-10.6,11.9-16c2.9,5.9,7,11,11.4,16c-4.8,4.9-8.5,10.2-11.4,15.7C19.1,89.5,15.7,84.4,10.5,79.5L10.5,79.5z"/>
<path id="path7108-3" inkscape:connector-curvature="0" sodipodi:nodetypes="cssccacccccszsss" class="st0" d="M10.6,46.2
	C10,42.7,10,33.6,10.5,30.9c1.3-8.2,4.5-12,9.9-13.3c5.2-1.2,12.5,0.1,14.1,7l-4.4,0.1c-2.4-4.7-8.3-3.4-11.7-1.4
	c-2.7,1.6-3.9,8.4-3.4,8.8c0,0,5.1-3.7,9.1-3.4c8.5,0.9,12.1,8.2,11.8,15c-0.3,8.3-2.9,14.9-12,15.3C15.3,58.7,11.4,54.1,10.6,46.2z
	 M31.8,44c0-5.7-2.6-10-7.6-10.5c-5-0.5-10.1,4.3-9.7,10.2c0.4,5.9,2.7,10.8,8.7,10.8C29.7,54.4,31.8,48.1,31.8,44L31.8,44z"/>
<path id="path7161-9" inkscape:connector-curvature="0" sodipodi:nodetypes="cssccacccccszsss" class="st0" d="M275.4,353.8
	c0.5,3.5,0.5,12.6,0.1,15.3c-1.3,8.2-4.5,12-9.9,13.3c-5.2,1.2-12.5-0.1-14.1-7l4.4-0.1c2.4,4.7,8.3,3.4,11.7,1.4
	c2.7-1.6,3.9-8.4,3.4-8.8c0,0-5.1,3.7-9.1,3.4c-8.5-0.9-12.1-8.2-11.8-15c0.3-8.3,2.9-14.9,12-15.3
	C270.7,341.3,274.6,345.9,275.4,353.8L275.4,353.8z M254.2,356c0,5.7,2.6,10,7.6,10.5c5,0.5,10.1-4.3,9.7-10.2
	c-0.4-5.9-2.7-10.8-8.7-10.8C256.3,345.6,254.2,351.9,254.2,356L254.2,356z"/>
</svg>
