<?xml version="1.0" encoding="utf-8"?>
<!-- Generator: Adobe Illustrator 22.1.0, SVG Export Plug-In . SVG Version: 6.00 Build 0)  -->
<svg version="1.1"
	 id="svg4423" inkscape:version="0.48.1 r9760" sodipodi:docname="6H.svg" xmlns:cc="http://creativecommons.org/ns#" xmlns:dc="http://purl.org/dc/elements/1.1/" xmlns:inkscape="http://www.inkscape.org/namespaces/inkscape" xmlns:rdf="http://www.w3.org/1999/02/22-rdf-syntax-ns#" xmlns:sodipodi="http://sodipodi.sourceforge.net/DTD/sodipodi-0.dtd" xmlns:svg="http://www.w3.org/2000/svg"
	 xmlns="http://www.w3.org/2000/svg" xmlns:xlink="http://www.w3.org/1999/xlink" x="0px" y="0px" viewBox="0 0 286 400"
	 style="enable-background:new 0 0 286 400;" xml:space="preserve">
<style type="text/css">
	.st0{fill:#D40000;}
</style>
<path id="path7108" inkscape:connector-curvature="0" sodipodi:nodetypes="cssccacccccszsss" class="st0" d="M10.6,46.2
	C10,42.7,10,33.6,10.5,30.9c1.3-8.2,4.5-12,9.9-13.3c5.2-1.2,12.5,0.1,14.1,7l-4.4,0.1c-2.4-4.7-8.3-3.4-11.7-1.4
	c-2.7,1.6-3.9,8.4-3.4,8.8c0,0,5.1-3.7,9.1-3.4c8.5,0.9,12.1,8.2,11.8,15c-0.3,8.3-2.9,14.9-12,15.3C15.3,58.7,11.4,54.1,10.6,46.2z
	 M31.8,44c0-5.7-2.6-10-7.6-10.5c-5-0.5-10.1,4.3-9.7,10.2c0.4,5.9,2.7,10.8,8.7,10.8C29.7,54.4,31.8,48.1,31.8,44L31.8,44z"/>
<path id="path7161" inkscape:connector-curvature="0" sodipodi:nodetypes="cssccacccccszsss" class="st0" d="M275.4,353.8
	c0.5,3.5,0.5,12.6,0.1,15.3c-1.3,8.2-4.5,12-9.9,13.3c-5.2,1.2-12.5-0.1-14.1-7l4.4-0.1c2.4,4.7,8.3,3.4,11.7,1.4
	c2.7-1.6,3.9-8.4,3.4-8.8c0,0-5.1,3.7-9.1,3.4c-8.5-0.9-12.1-8.2-11.8-15c0.3-8.3,2.9-14.9,12-15.3
	C270.7,341.3,274.6,345.9,275.4,353.8L275.4,353.8z M254.2,356c0,5.7,2.6,10,7.6,10.5c5,0.5,10.1-4.3,9.7-10.2
	c-0.4-5.9-2.7-10.8-8.7-10.8C256.3,345.6,254.2,351.9,254.2,356L254.2,356z"/>
<path id="path8642" inkscape:connector-curvature="0" sodipodi:nodetypes="cccccccc" class="st0" d="M11.1,76.2
	c-2-4.5-2.3-12.1,3.8-13.1c4.6-0.6,6.4,1.5,6.8,4.8c0.2,1,0.7,1,0.9-0.1c0.3-3.3,3.6-5.3,6.2-4.8c7.1,1.2,6.7,9,4.4,14.3
	c-3.5,7-7.2,11.5-10.6,18.5C18.6,88.5,14.2,82.5,11.1,76.2L11.1,76.2z"/>
<path id="path8530" inkscape:connector-curvature="0" sodipodi:nodetypes="ccccsccssc" class="st0" d="M56.3,36.4
	c9.2-0.6,13.9,7.2,14.9,13.4c0.6,1,0.9,0.7,1.1-0.1c0.4-7.9,7.5-14.4,14.1-13.5c10.7,0.1,17.2,12,15.3,22.1
	C99.4,70.6,92.8,78,87.8,85.6c-5.7,7.9-13.3,19.3-15.7,24.8c0,0-7.7-11.8-17.8-25.7c-6.7-9.3-12.1-19.3-12.6-28
	C41,46.8,45.1,37.9,56.3,36.4L56.3,36.4z"/>
<path id="path8532" inkscape:connector-curvature="0" sodipodi:nodetypes="ccccsccssc" class="st0" d="M199.2,36.4
	c9.2-0.6,13.9,7.2,14.9,13.4c0.6,1,0.9,0.7,1.1-0.1c0.4-7.9,7.5-14.4,14.1-13.5c10.7,0.1,17.2,12,15.3,22.1
	c-2.2,12.3-8.8,19.7-13.8,27.3c-5.7,7.9-13.3,19.3-15.7,24.8c0,0-7.7-11.8-17.8-25.7c-6.7-9.3-12.1-19.3-12.6-28
	C183.9,46.8,188,37.9,199.2,36.4L199.2,36.4z"/>
<path id="path8534" inkscape:connector-curvature="0" sodipodi:nodetypes="ccccsccssc" class="st0" d="M199.2,163.2
	c9.2-0.6,13.9,7.2,14.9,13.4c0.6,1,0.9,0.7,1.1-0.1c0.4-7.9,7.5-14.4,14.1-13.5c10.7,0.1,17.2,12,15.3,22.1
	c-2.2,12.3-8.8,19.7-13.8,27.3c-5.7,7.9-13.3,19.3-15.7,24.8c0,0-7.7-11.8-17.8-25.7c-6.7-9.3-12.1-19.3-12.6-28
	C183.9,173.7,188,164.8,199.2,163.2L199.2,163.2z"/>
<path id="path8536" inkscape:connector-curvature="0" sodipodi:nodetypes="ccccsccssc" class="st0" d="M56.3,163.2
	c9.2-0.6,13.9,7.2,14.9,13.4c0.6,1,0.9,0.7,1.1-0.1c0.4-7.9,7.5-14.4,14.1-13.5c10.7,0.1,17.2,12,15.3,22.1
	c-2.2,12.3-8.8,19.7-13.8,27.3c-5.7,7.9-13.3,19.3-15.7,24.8c0,0-7.7-11.8-17.8-25.7c-6.7-9.3-12.1-19.3-12.6-28
	C41,173.7,45.1,164.8,56.3,163.2L56.3,163.2z"/>
<path id="path8592" inkscape:connector-curvature="0" sodipodi:nodetypes="ccccsccssc" class="st0" d="M56.3,363.5
	c9.2,0.6,13.9-7.2,14.9-13.4c0.6-1,0.9-0.7,1.1,0.1c0.4,7.9,7.5,14.4,14.1,13.5c10.7-0.1,17.2-12,15.3-22.1
	c-2.2-12.3-8.8-19.7-13.8-27.3c-5.7-7.9-13.3-19.3-15.7-24.8c0,0-7.7,11.8-17.8,25.7c-6.7,9.3-12.1,19.3-12.6,28
	C41,353.1,45.1,362,56.3,363.5L56.3,363.5z"/>
<path id="path8594" inkscape:connector-curvature="0" sodipodi:nodetypes="ccccsccssc" class="st0" d="M199.2,363.5
	c9.2,0.6,13.9-7.2,14.9-13.4c0.6-1,0.9-0.7,1.1,0.1c0.4,7.9,7.5,14.4,14.1,13.5c10.7-0.1,17.2-12,15.3-22.1
	c-2.2-12.3-8.8-19.7-13.8-27.3c-5.7-7.9-13.3-19.3-15.7-24.8c0,0-7.7,11.8-17.8,25.7c-6.7,9.3-12.1,19.3-12.6,28
	C183.9,353.1,188,362,199.2,363.5L199.2,363.5z"/>
<path id="path8658" inkscape:connector-curvature="0" sodipodi:nodetypes="cccccccc" class="st0" d="M253,321
	c-2,4.5-2.3,12.1,3.8,13.1c4.6,0.6,6.4-1.5,6.8-4.8c0.2-1,0.7-1,0.9,0.1c0.3,3.3,3.6,5.3,6.2,4.8c7.1-1.2,6.7-9,4.4-14.3
	c-3.5-7-7.2-11.5-10.6-18.5C260.5,308.7,256.1,314.7,253,321L253,321z"/>
</svg>
