<?xml version="1.0" encoding="utf-8"?>
<!-- Generator: Adobe Illustrator 22.1.0, SVG Export Plug-In . SVG Version: 6.00 Build 0)  -->
<svg version="1.1"
	 id="svg4423" inkscape:version="0.48.1 r9760" sodipodi:docname="6S.svg" xmlns:cc="http://creativecommons.org/ns#" xmlns:dc="http://purl.org/dc/elements/1.1/" xmlns:inkscape="http://www.inkscape.org/namespaces/inkscape" xmlns:rdf="http://www.w3.org/1999/02/22-rdf-syntax-ns#" xmlns:sodipodi="http://sodipodi.sourceforge.net/DTD/sodipodi-0.dtd" xmlns:svg="http://www.w3.org/2000/svg"
	 xmlns="http://www.w3.org/2000/svg" xmlns:xlink="http://www.w3.org/1999/xlink" x="0px" y="0px" viewBox="0 0 286 400"
	 style="enable-background:new 0 0 286 400;" xml:space="preserve">
<path id="path7108-6" inkscape:connector-curvature="0" sodipodi:nodetypes="cssccacccccszsss" d="M10.6,46.2
	C10,42.7,10,33.6,10.5,30.9c1.3-8.2,4.5-12,9.9-13.3c5.2-1.2,12.5,0.1,14.1,7l-4.4,0.1c-2.4-4.7-8.3-3.4-11.7-1.4
	c-2.7,1.6-3.9,8.4-3.4,8.8c0,0,5.1-3.7,9.1-3.4c8.5,0.9,12.1,8.2,11.8,15c-0.3,8.3-2.9,14.9-12,15.3C15.3,58.7,11.4,54.1,10.6,46.2z
	 M31.8,44c0-5.7-2.6-10-7.6-10.5c-5-0.5-10.1,4.3-9.7,10.2c0.4,5.9,2.7,10.8,8.7,10.8C29.7,54.4,31.8,48.1,31.8,44L31.8,44z"/>
<path id="path7161-6" inkscape:connector-curvature="0" sodipodi:nodetypes="cssccacccccszsss" d="M275.4,353.8
	c0.5,3.5,0.5,12.6,0.1,15.3c-1.3,8.2-4.5,12-9.9,13.3c-5.2,1.2-12.5-0.1-14.1-7l4.4-0.1c2.4,4.7,8.3,3.4,11.7,1.4
	c2.7-1.6,3.9-8.4,3.4-8.8c0,0-5.1,3.7-9.1,3.4c-8.5-0.9-12.1-8.2-11.8-15c0.3-8.3,2.9-14.9,12-15.3
	C270.7,341.3,274.6,345.9,275.4,353.8L275.4,353.8z M254.2,356c0,5.7,2.6,10,7.6,10.5c5,0.5,10.1-4.3,9.7-10.2
	c-0.4-5.9-2.7-10.8-8.7-10.8C256.3,345.6,254.2,351.9,254.2,356L254.2,356z"/>
<path id="path3208" inkscape:connector-curvature="0" sodipodi:nodetypes="ccsscsccccc" d="M69,88c0-2.6-2-2.6-2-0.8
	c-0.2,9.5-8.2,14.2-14.1,13.1c-9-1.7-11.9-10.7-11.8-16c0.3-16.3,16.6-28.3,31.4-49.2c10.8,18.8,28.7,33.6,29.8,48.2
	c1.4,19.4-23.1,26.6-26.6,4c-0.2-1.6-2.1-2.3-2-0.1c0.5,6.2-0.2,8.8,6.7,24H62.3C66.3,104.2,68.7,95.5,69,88L69,88z"/>
<path id="path3210" inkscape:connector-curvature="0" sodipodi:nodetypes="ccsscsccccc" d="M211.9,88c0-2.6-2-2.6-2-0.8
	c-0.2,9.5-8.2,14.2-14.1,13.1c-9-1.7-11.9-10.7-11.8-16c0.3-16.3,16.6-28.3,31.4-49.2c10.8,18.8,28.7,33.6,29.8,48.2
	c1.4,19.4-23.1,26.6-26.6,4c-0.2-1.6-2.1-2.3-2-0.1c0.5,6.2-0.2,8.8,6.7,24h-18.2C209.2,104.2,211.6,95.5,211.9,88L211.9,88z"/>
<path id="path3268" inkscape:connector-curvature="0" sodipodi:nodetypes="ccsscsccccc" d="M69,185.5c0,2.6-2,2.6-2,0.8
	c-0.2-9.5-8.2-14.2-14.1-13.1c-9,1.7-11.9,10.7-11.8,16c0.3,16.3,16.6,28.3,31.4,49.2c10.8-18.8,28.7-33.6,29.8-48.2
	c1.4-19.4-23.1-26.6-26.6-4c-0.2,1.6-2.1,2.3-2,0.1c0.5-6.2-0.2-8.8,6.7-24H62.3C66.3,169.2,68.7,177.9,69,185.5L69,185.5z"/>
<path id="path3270" inkscape:connector-curvature="0" sodipodi:nodetypes="ccsscsccccc" d="M211.9,185.5c0,2.6-2,2.6-2,0.8
	c-0.2-9.5-8.2-14.2-14.1-13.1c-9,1.7-11.9,10.7-11.8,16c0.3,16.3,16.6,28.3,31.4,49.2c10.8-18.8,28.7-33.6,29.8-48.2
	c1.4-19.4-23.1-26.6-26.6-4c-0.2,1.6-2.1,2.3-2,0.1c0.5-6.2-0.2-8.8,6.7-24h-18.2C209.2,169.2,211.6,177.9,211.9,185.5L211.9,185.5z
	"/>
<path id="path3272" inkscape:connector-curvature="0" sodipodi:nodetypes="ccsscsccccc" d="M211.9,312c0,2.6-2,2.6-2,0.8
	c-0.2-9.5-8.2-14.2-14.1-13.1c-9,1.7-11.9,10.7-11.8,16c0.3,16.3,16.6,28.3,31.4,49.2c10.8-18.8,28.7-33.6,29.8-48.2
	c1.4-19.4-23.1-26.6-26.6-4c-0.2,1.6-2.1,2.3-2,0.1c0.5-6.2-0.2-8.8,6.7-24h-18.2C209.2,295.7,211.6,304.4,211.9,312z"/>
<path id="path3274" inkscape:connector-curvature="0" sodipodi:nodetypes="ccsscsccccc" d="M69,312c0,2.6-2,2.6-2,0.8
	c-0.2-9.5-8.2-14.2-14.1-13.1c-9,1.7-11.9,10.7-11.8,16c0.3,16.3,16.6,28.3,31.4,49.2c10.8-18.8,28.7-33.6,29.8-48.2
	c1.4-19.4-23.1-26.6-26.6-4c-0.2,1.6-2.1,2.3-2,0.1c0.5-6.2-0.2-8.8,6.7-24H62.3C66.3,295.7,68.7,304.4,69,312z"/>
<path id="path3326" inkscape:connector-curvature="0" sodipodi:nodetypes="ccscccscsccccc" d="M21.6,87.8c0-1.1-1.1-0.6-1.3-0.2
	c-1.5,2.5-3.7,3.1-5.8,2.2c-2.1-0.9-3.3-2.9-3.1-5.8c0.4-4.4,3.9-9.2,5.6-12c1.6-2.5,3.4-5.4,5.2-9.2c2.2,4.3,3.3,5.5,5.6,9.5
	c2.1,3.5,5,6.9,5.2,11.1c0,3.2-1.3,6.2-4.4,6.7c-1.7,0.3-3.3-0.6-4.5-2.6c-0.4-0.5-1.1-0.2-1.1,0.5c0.2,2.7,1.2,5.1,3.6,8h-8.8
	C19.7,93.9,21.6,91.2,21.6,87.8L21.6,87.8z"/>
<path id="path3340" inkscape:connector-curvature="0" sodipodi:nodetypes="ccscccscsccccc" d="M263.6,309.4c0,1.1-1.1,0.6-1.3,0.2
	c-1.5-2.5-3.7-3.1-5.8-2.2c-2.1,0.9-3.3,2.9-3.1,5.8c0.4,4.4,3.9,9.2,5.6,12c1.6,2.5,3.4,5.4,5.2,9.2c2.2-4.3,3.3-5.5,5.6-9.5
	c2.1-3.5,5-6.9,5.2-11.1c0-3.2-1.3-6.2-4.4-6.7c-1.7-0.3-3.3,0.6-4.5,2.6c-0.4,0.5-1.1,0.2-1.1-0.5c0.2-2.7,1.2-5.1,3.6-8h-8.8
	C261.6,303.3,263.5,306,263.6,309.4L263.6,309.4z"/>
</svg>
