<?xml version="1.0" encoding="utf-8"?>
<!-- Generator: Adobe Illustrator 22.1.0, SVG Export Plug-In . SVG Version: 6.00 Build 0)  -->
<svg version="1.1"
	 id="svg4423" inkscape:version="0.48.1 r9760" sodipodi:docname="7C.svg" xmlns:cc="http://creativecommons.org/ns#" xmlns:dc="http://purl.org/dc/elements/1.1/" xmlns:inkscape="http://www.inkscape.org/namespaces/inkscape" xmlns:rdf="http://www.w3.org/1999/02/22-rdf-syntax-ns#" xmlns:sodipodi="http://sodipodi.sourceforge.net/DTD/sodipodi-0.dtd" xmlns:svg="http://www.w3.org/2000/svg"
	 xmlns="http://www.w3.org/2000/svg" xmlns:xlink="http://www.w3.org/1999/xlink" x="0px" y="0px" viewBox="0 0 286 400"
	 style="enable-background:new 0 0 286 400;" xml:space="preserve">
<path id="path7110-2" inkscape:connector-curvature="0" sodipodi:nodetypes="cccccccccc" d="M15.4,59.7c2.7-14.2,5.6-24.9,13.3-36.5
	H13.2v5H9.1v-9.4h22.7l2.8,4.4C26.5,31.9,19,60.1,20.4,59.7H15.4z"/>
<path id="path7126-7" inkscape:connector-curvature="0" sodipodi:nodetypes="cccccccccc" d="M269.8,340.3
	c-2.7,14.2-5.6,24.9-13.3,36.5h15.5v-5h4.1v9.4h-22.7l-2.8-4.4c8.1-8.7,15.6-36.9,14.2-36.5L269.8,340.3z"/>
<path id="path3319" inkscape:connector-curvature="0" sodipodi:nodetypes="cccscccccscscc" d="M198.7,111.8c3.7-7.4,6.4-15,6.9-23.1
	c0.4-3-1.4-3-1.7-0.9c-5.2,20-33,14.6-32.1-4.2c0.8-15.3,15.9-18.5,23.8-13.6c3.1,1.8,2.9,0.7,1.2-1.2c-11.7-13.1-4.6-30,11.2-30.3
	c17.1,1,21.6,19.1,11.1,29.7c-1.3,1.3-4.2,5.4,0.2,2.5c10.6-7.6,25.4,0.6,25.1,12.2c-0.6,21.5-26.7,23.1-32.3,5.1
	c-0.5-2-2.1-3-1.7,0.4c0.8,6.1,2.4,15.3,7,23.4H198.7z"/>
<path id="path3321" inkscape:connector-curvature="0" sodipodi:nodetypes="cccscccccscscc" d="M198.7,240.4c3.7-7.4,6.4-15,6.9-23.1
	c0.4-3-1.4-3-1.7-0.9c-5.2,20-33,14.6-32.1-4.2c0.8-15.3,15.9-18.5,23.8-13.6c3.1,1.8,2.9,0.7,1.2-1.2c-11.7-13.1-4.6-30,11.2-30.3
	c17.1,1,21.6,19.1,11.1,29.7c-1.3,1.3-4.2,5.4,0.2,2.5c10.6-7.6,25.4,0.6,25.1,12.2c-0.6,21.5-26.7,23.1-32.3,5.1
	c-0.5-2-2.1-3-1.7,0.4c0.8,6.1,2.4,15.3,7,23.4H198.7z"/>
<path id="path3323" inkscape:connector-curvature="0" sodipodi:nodetypes="cccscccccscscc" d="M68.7,240.4c3.7-7.4,6.4-15,6.9-23.1
	c0.4-3-1.4-3-1.7-0.9c-5.2,20-33,14.6-32.1-4.2c0.8-15.3,15.9-18.5,23.8-13.6c3.1,1.8,2.9,0.7,1.2-1.2c-11.7-13.1-4.6-30,11.2-30.3
	c17.1,1,21.6,19.1,11.1,29.7c-1.3,1.3-4.2,5.4,0.2,2.5c10.6-7.6,25.4,0.6,25.1,12.2c-0.6,21.5-26.7,23.1-32.3,5.1
	c-0.5-2-2.1-3-1.7,0.4c0.8,6.1,2.4,15.3,7,23.4H68.7z"/>
<path id="path3325" inkscape:connector-curvature="0" sodipodi:nodetypes="cccscccccscscc" d="M133.3,176.1c3.7-7.4,6.4-15,6.9-23.1
	c0.4-3-1.4-3-1.7-0.9c-5.2,20-33,14.6-32.1-4.2c0.8-15.3,15.9-18.5,23.8-13.6c3.1,1.8,2.9,0.7,1.2-1.2c-11.7-13.1-4.6-30,11.2-30.3
	c17.1,1,21.6,19.1,11.1,29.7c-1.3,1.3-4.2,5.4,0.2,2.5c10.6-7.6,25.4,0.6,25.1,12.2c-0.6,21.5-26.7,23.1-32.3,5.1
	c-0.5-2-2.1-3-1.7,0.4c0.8,6.1,2.4,15.3,7,23.4H133.3z"/>
<path id="path3327" inkscape:connector-curvature="0" sodipodi:nodetypes="cccscccccscscc" d="M68.7,111.8c3.7-7.4,6.4-15,6.9-23.1
	c0.4-3-1.4-3-1.7-0.9c-5.2,20-33,14.6-32.1-4.2c0.8-15.3,15.9-18.5,23.8-13.6c3.1,1.8,2.9,0.7,1.2-1.2c-11.7-13.1-4.6-30,11.2-30.3
	c17.1,1,21.6,19.1,11.1,29.7c-1.3,1.3-4.2,5.4,0.2,2.5c10.6-7.6,25.4,0.6,25.1,12.2c-0.6,21.5-26.7,23.1-32.3,5.1
	c-0.5-2-2.1-3-1.7,0.4c0.8,6.1,2.4,15.3,7,23.4H68.7z"/>
<path id="path3381" inkscape:connector-curvature="0" sodipodi:nodetypes="cccscccccscscc" d="M217.6,293.6
	c-3.7,7.4-6.4,15-6.9,23.1c-0.4,3,1.4,3,1.7,0.9c5.2-20,33-14.6,32.1,4.2c-0.8,15.3-15.9,18.5-23.8,13.6c-3.1-1.8-2.9-0.7-1.2,1.2
	c11.7,13.1,4.6,30-11.2,30.3c-17.1-1-21.6-19.1-11.1-29.7c1.3-1.3,4.2-5.4-0.2-2.5c-10.6,7.6-25.4-0.6-25.1-12.2
	c0.6-21.5,26.7-23.1,32.3-5.1c0.5,2,2.1,3,1.7-0.4c-0.8-6.1-2.4-15.3-7-23.4L217.6,293.6z"/>
<path id="path3383" inkscape:connector-curvature="0" sodipodi:nodetypes="cccscccccscscc" d="M87.5,293.6c-3.7,7.4-6.4,15-6.9,23.1
	c-0.4,3,1.4,3,1.7,0.9c5.2-20,33-14.6,32.1,4.2c-0.8,15.3-15.9,18.5-23.8,13.6c-3.1-1.8-2.9-0.7-1.2,1.2c11.7,13.1,4.6,30-11.2,30.3
	c-17.1-1-21.6-19.1-11.1-29.7c1.3-1.3,4.2-5.4-0.2-2.5c-10.6,7.6-25.4-0.6-25.1-12.2c0.6-21.5,26.7-23.1,32.3-5.1
	c0.5,2,2.1,3,1.7-0.4c-0.8-6.1-2.4-15.3-7-23.4L87.5,293.6z"/>
<path id="path3470" inkscape:connector-curvature="0" sodipodi:nodetypes="cccscsccssscccsccccc" d="M16.9,98c1.5-3.1,3-6.1,3.8-9.5
	c0.5-3.2-0.6-2-1.2,0.1c-0.9,2.9-3.5,4.3-5.9,4.3c-4.3,0.1-6.5-3.3-6.3-7c-0.5-3.8,3.4-6.6,6.4-6.4c2.2,0.2,4.1,1.3,5.3,2.3
	c0.8,0.4,1.6,0.6,0.4-0.5c-2.1-2.4-3.9-3.8-3.9-7.3c0-3.3,2.9-6.8,6.6-6.6c4.7,0.1,6.8,3.7,6.8,7c0,2.4-1.2,4.7-3.1,6
	c-1.2,1-0.9,1.7,0.5,0.8c1.3-1.1,2.9-1.6,4.5-1.7c4.5-0.1,6.2,3.8,6,7.4c-0.2,3.4-3.1,6.8-6.9,6.4c-3.4-0.4-5.1-3.2-6.2-6.1
	c-0.3-0.9-0.9-1.1-0.9,0.2C23.7,94,26.1,98,26.1,98H16.9z"/>
<path id="path3494" inkscape:connector-curvature="0" sodipodi:nodetypes="cccscsccssscccsccccc" d="M269.1,305.8
	c-1.5,3.1-3,6.1-3.8,9.5c-0.5,3.2,0.6,2,1.2-0.1c0.9-2.9,3.5-4.3,5.9-4.3c4.3-0.1,6.5,3.3,6.3,7c0.5,3.8-3.4,6.6-6.4,6.4
	c-2.2-0.2-4.1-1.3-5.3-2.3c-0.8-0.4-1.6-0.6-0.4,0.5c2.1,2.4,3.9,3.8,3.9,7.3c0,3.3-2.9,6.8-6.6,6.6c-4.7-0.1-6.8-3.7-6.8-7
	c0-2.4,1.2-4.7,3.1-6c1.2-1,0.9-1.7-0.5-0.8c-1.3,1.1-2.9,1.6-4.5,1.7c-4.5,0.1-6.2-3.8-6-7.4c0.2-3.4,3.1-6.8,6.9-6.4
	c3.4,0.4,5.1,3.2,6.2,6.1c0.3,0.9,0.9,1.1,0.9-0.2c-0.8-6.5-3.2-10.5-3.2-10.5H269.1z"/>
</svg>
