<?xml version="1.0" encoding="utf-8"?>
<!-- Generator: Adobe Illustrator 22.1.0, SVG Export Plug-In . SVG Version: 6.00 Build 0)  -->
<svg version="1.1"
	 id="svg4423" inkscape:version="0.48.1 r9760" sodipodi:docname="7D.svg" xmlns:cc="http://creativecommons.org/ns#" xmlns:dc="http://purl.org/dc/elements/1.1/" xmlns:inkscape="http://www.inkscape.org/namespaces/inkscape" xmlns:rdf="http://www.w3.org/1999/02/22-rdf-syntax-ns#" xmlns:sodipodi="http://sodipodi.sourceforge.net/DTD/sodipodi-0.dtd" xmlns:svg="http://www.w3.org/2000/svg"
	 xmlns="http://www.w3.org/2000/svg" xmlns:xlink="http://www.w3.org/1999/xlink" x="0px" y="0px" viewBox="0 0 286 400"
	 style="enable-background:new 0 0 286 400;" xml:space="preserve">
<style type="text/css">
	.st0{fill:#D40000;}
</style>
<path id="path3397-3" inkscape:connector-curvature="0" sodipodi:nodetypes="ccccc" class="st0" d="M42.3,75.4
	c12.7-12.4,21.1-26,29-39c7,14.3,17,26.9,27.9,39c-11.6,12-20.6,24.9-27.9,38.4C63.3,99.9,54.9,87.4,42.3,75.4z"/>
<path id="path3399-5" inkscape:connector-curvature="0" sodipodi:nodetypes="ccccc" class="st0" d="M42.3,204
	c12.7-12.4,21.1-26,29-39c7,14.3,17,26.9,27.9,39c-11.6,12-20.6,24.9-27.9,38.4C63.3,228.5,54.9,216,42.3,204L42.3,204z"/>
<path id="path3401-9" inkscape:connector-curvature="0" sodipodi:nodetypes="ccccc" class="st0" d="M42.3,330.5
	c12.7-12.4,21.1-26,29-39c7,14.3,17,26.9,27.9,39c-11.6,12-20.6,24.9-27.9,38.4C63.3,355,54.9,342.5,42.3,330.5z"/>
<path id="path3403-9" inkscape:connector-curvature="0" sodipodi:nodetypes="ccccc" class="st0" d="M114.6,139.7
	c12.7-12.4,21.1-26,29-39c7,14.3,17,26.9,27.9,39c-11.6,12-20.6,24.9-27.9,38.4C135.6,164.2,127.2,151.7,114.6,139.7z"/>
<path id="path3407-8" inkscape:connector-curvature="0" sodipodi:nodetypes="ccccc" class="st0" d="M185.2,75.4
	c12.7-12.4,21.1-26,29-39c7,14.3,17,26.9,27.9,39c-11.6,12-20.6,24.9-27.9,38.4C206.2,99.9,197.8,87.4,185.2,75.4z"/>
<path id="path3409" inkscape:connector-curvature="0" sodipodi:nodetypes="ccccc" class="st0" d="M185.2,204
	c12.7-12.4,21.1-26,29-39c7,14.3,17,26.9,27.9,39c-11.6,12-20.6,24.9-27.9,38.4C206.2,228.5,197.8,216,185.2,204L185.2,204z"/>
<path id="path3411" inkscape:connector-curvature="0" sodipodi:nodetypes="ccccc" class="st0" d="M185.2,330.5
	c12.7-12.4,21.1-26,29-39c7,14.3,17,26.9,27.9,39c-11.6,12-20.6,24.9-27.9,38.4C206.2,355,197.8,342.5,185.2,330.5z"/>
<path id="path3718" inkscape:connector-curvature="0" sodipodi:nodetypes="ccccc" class="st0" d="M252.7,321.2
	c5.2-5.1,8.6-10.6,11.9-16c2.9,5.9,7,11,11.4,16c-4.8,4.9-8.5,10.2-11.4,15.7C261.3,331.3,257.8,326.1,252.7,321.2L252.7,321.2z"/>
<path id="path3720" inkscape:connector-curvature="0" sodipodi:nodetypes="ccccc" class="st0" d="M10.8,82.8
	c5.2-5.1,8.6-10.6,11.9-16c2.9,5.9,7,11,11.4,16c-4.8,4.9-8.5,10.2-11.4,15.7C19.4,92.9,15.9,87.7,10.8,82.8L10.8,82.8z"/>
<path id="path7110-1" inkscape:connector-curvature="0" sodipodi:nodetypes="cccccccccc" class="st0" d="M15.8,59.7
	c2.7-14.2,5.6-24.9,13.3-36.5H13.6v5H9.4v-9.4h22.7l2.8,4.4c-8.1,8.7-15.6,36.9-14.2,36.5H15.8z"/>
<path id="path7126-8" inkscape:connector-curvature="0" sodipodi:nodetypes="cccccccccc" class="st0" d="M270.2,340.3
	c-2.7,14.2-5.6,24.9-13.3,36.5h15.5v-5h4.1v9.4h-22.7l-2.8-4.4c8.1-8.7,15.6-36.9,14.2-36.5L270.2,340.3z"/>
</svg>
