<?xml version="1.0" encoding="utf-8"?>
<!-- Generator: Adobe Illustrator 22.1.0, SVG Export Plug-In . SVG Version: 6.00 Build 0)  -->
<svg version="1.1"
	 id="svg4423" inkscape:version="0.48.1 r9760" sodipodi:docname="7H.svg" xmlns:cc="http://creativecommons.org/ns#" xmlns:dc="http://purl.org/dc/elements/1.1/" xmlns:inkscape="http://www.inkscape.org/namespaces/inkscape" xmlns:rdf="http://www.w3.org/1999/02/22-rdf-syntax-ns#" xmlns:sodipodi="http://sodipodi.sourceforge.net/DTD/sodipodi-0.dtd" xmlns:svg="http://www.w3.org/2000/svg"
	 xmlns="http://www.w3.org/2000/svg" xmlns:xlink="http://www.w3.org/1999/xlink" x="0px" y="0px" viewBox="0 0 286 400"
	 style="enable-background:new 0 0 286 400;" xml:space="preserve">
<style type="text/css">
	.st0{fill:#D40000;}
</style>
<path id="path7110" inkscape:connector-curvature="0" sodipodi:nodetypes="cccccccccc" class="st0" d="M15.8,59.7
	c2.7-14.2,5.6-24.9,13.3-36.5H13.6v5H9.4v-9.4h22.7l2.8,4.4c-8.1,8.7-15.6,36.9-14.2,36.5H15.8z"/>
<path id="path7126" inkscape:connector-curvature="0" sodipodi:nodetypes="cccccccccc" class="st0" d="M270.2,340.3
	c-2.7,14.2-5.6,24.9-13.3,36.5h15.5v-5h4.1v9.4h-22.7l-2.8-4.4c8.1-8.7,15.6-36.9,14.2-36.5L270.2,340.3z"/>
<path id="path8632" inkscape:connector-curvature="0" sodipodi:nodetypes="cccccccc" class="st0" d="M11.3,79.5
	c-2-4.5-2.3-12.1,3.8-13.1c4.6-0.6,6.4,1.5,6.8,4.8c0.2,1,0.7,1,0.9-0.1c0.3-3.3,3.6-5.3,6.2-4.8c7.1,1.2,6.7,9,4.4,14.3
	c-3.5,7-7.2,11.5-10.6,18.5C18.9,91.8,14.4,85.8,11.3,79.5L11.3,79.5z"/>
<path id="path8538" inkscape:connector-curvature="0" sodipodi:nodetypes="ccccsccssc" class="st0" d="M55.3,38.2
	c9.2-0.6,13.9,7.2,14.9,13.4c0.6,1,0.9,0.7,1.1-0.1c0.4-7.9,7.5-14.4,14.1-13.5c10.7,0.1,17.2,12,15.3,22.1
	c-2.2,12.3-8.8,19.7-13.8,27.3c-5.7,7.9-13.3,19.3-15.7,24.8c0,0-7.7-11.8-17.8-25.7c-6.7-9.3-12.1-19.3-12.6-28
	C40,48.6,44.1,39.8,55.3,38.2L55.3,38.2z"/>
<path id="path8540" inkscape:connector-curvature="0" sodipodi:nodetypes="ccccsccssc" class="st0" d="M198.2,38.2
	c9.2-0.6,13.9,7.2,14.9,13.4c0.6,1,0.9,0.7,1.1-0.1c0.4-7.9,7.5-14.4,14.1-13.5c10.7,0.1,17.2,12,15.3,22.1
	c-2.2,12.3-8.8,19.7-13.8,27.3c-5.7,7.9-13.3,19.3-15.7,24.8c0,0-7.7-11.8-17.8-25.7c-6.7-9.3-12.1-19.3-12.6-28
	C182.9,48.6,187,39.8,198.2,38.2L198.2,38.2z"/>
<path id="path8542" inkscape:connector-curvature="0" sodipodi:nodetypes="ccccsccssc" class="st0" d="M127.6,102.5
	c9.2-0.6,13.9,7.2,14.9,13.4c0.6,1,0.9,0.7,1.1-0.1c0.4-7.9,7.5-14.4,14.1-13.5c10.7,0.1,17.2,12,15.3,22.1
	c-2.2,12.3-8.8,19.7-13.8,27.3c-5.7,7.9-13.3,19.3-15.7,24.8c0,0-7.7-11.8-17.8-25.7c-6.7-9.3-12.1-19.3-12.6-28
	C112.3,112.9,116.4,104.1,127.6,102.5L127.6,102.5z"/>
<path id="path8544" inkscape:connector-curvature="0" sodipodi:nodetypes="ccccsccssc" class="st0" d="M55.3,166.8
	c9.2-0.6,13.9,7.2,14.9,13.4c0.6,1,0.9,0.7,1.1-0.1c0.4-7.9,7.5-14.4,14.1-13.5c10.7,0.1,17.2,12,15.3,22.1
	c-2.2,12.3-8.8,19.7-13.8,27.3c-5.7,7.9-13.3,19.3-15.7,24.8c0,0-7.7-11.8-17.8-25.7c-6.7-9.3-12.1-19.3-12.6-28
	C40,177.2,44.1,168.4,55.3,166.8L55.3,166.8z"/>
<path id="path8546" inkscape:connector-curvature="0" sodipodi:nodetypes="ccccsccssc" class="st0" d="M198.2,166.8
	c9.2-0.6,13.9,7.2,14.9,13.4c0.6,1,0.9,0.7,1.1-0.1c0.4-7.9,7.5-14.4,14.1-13.5c10.7,0.1,17.2,12,15.3,22.1
	c-2.2,12.3-8.8,19.7-13.8,27.3c-5.7,7.9-13.3,19.3-15.7,24.8c0,0-7.7-11.8-17.8-25.7c-6.7-9.3-12.1-19.3-12.6-28
	C182.9,177.2,187,168.4,198.2,166.8L198.2,166.8z"/>
<path id="path8666" inkscape:connector-curvature="0" sodipodi:nodetypes="cccccccc" class="st0" d="M253.2,324.3
	c-2,4.5-2.3,12.1,3.8,13.1c4.6,0.6,6.4-1.5,6.8-4.8c0.2-1,0.7-1,0.9,0.1c0.3,3.3,3.6,5.3,6.2,4.8c7.1-1.2,6.7-9,4.4-14.3
	c-3.5-7-7.2-11.5-10.6-18.5C260.8,312,256.3,318,253.2,324.3L253.2,324.3z"/>
<path id="path8620" inkscape:connector-curvature="0" sodipodi:nodetypes="ccccsccssc" class="st0" d="M198.2,367.1
	c9.2,0.6,13.9-7.2,14.9-13.4c0.6-1,0.9-0.7,1.1,0.1c0.4,7.9,7.5,14.4,14.1,13.5c10.7-0.1,17.2-12,15.3-22.1
	c-2.2-12.3-8.8-19.7-13.8-27.3c-5.7-7.9-13.3-19.3-15.7-24.8c0,0-7.7,11.8-17.8,25.7c-6.7,9.3-12.1,19.3-12.6,28
	C182.9,356.7,187,365.5,198.2,367.1L198.2,367.1z"/>
<path id="path8622" inkscape:connector-curvature="0" sodipodi:nodetypes="ccccsccssc" class="st0" d="M55.3,367.1
	c9.2,0.6,13.9-7.2,14.9-13.4c0.6-1,0.9-0.7,1.1,0.1c0.4,7.9,7.5,14.4,14.1,13.5c10.7-0.1,17.2-12,15.3-22.1
	c-2.2-12.3-8.8-19.7-13.8-27.3c-5.7-7.9-13.3-19.3-15.7-24.8c0,0-7.7,11.8-17.8,25.7c-6.7,9.3-12.1,19.3-12.6,28
	C40,356.7,44.1,365.5,55.3,367.1L55.3,367.1z"/>
</svg>
