<?xml version="1.0" encoding="utf-8"?>
<!-- Generator: Adobe Illustrator 22.1.0, SVG Export Plug-In . SVG Version: 6.00 Build 0)  -->
<svg version="1.1"
	 id="svg4423" inkscape:version="0.48.1 r9760" sodipodi:docname="7S.svg" xmlns:cc="http://creativecommons.org/ns#" xmlns:dc="http://purl.org/dc/elements/1.1/" xmlns:inkscape="http://www.inkscape.org/namespaces/inkscape" xmlns:rdf="http://www.w3.org/1999/02/22-rdf-syntax-ns#" xmlns:sodipodi="http://sodipodi.sourceforge.net/DTD/sodipodi-0.dtd" xmlns:svg="http://www.w3.org/2000/svg"
	 xmlns="http://www.w3.org/2000/svg" xmlns:xlink="http://www.w3.org/1999/xlink" x="0px" y="0px" viewBox="0 0 286 400"
	 style="enable-background:new 0 0 286 400;" xml:space="preserve">
<path id="path7110-5" inkscape:connector-curvature="0" sodipodi:nodetypes="cccccccccc" d="M15.8,59.7c2.7-14.2,5.6-24.9,13.3-36.5
	H13.6v5H9.4v-9.4h22.7l2.8,4.4c-8.1,8.7-15.6,36.9-14.2,36.5H15.8z"/>
<path id="path7126-4" inkscape:connector-curvature="0" sodipodi:nodetypes="cccccccccc" d="M270.2,340.3
	c-2.7,14.2-5.6,24.9-13.3,36.5h15.5v-5h4.1v9.4h-22.7l-2.8-4.4c8.1-8.7,15.6-36.9,14.2-36.5L270.2,340.3z"/>
<path id="path3212" inkscape:connector-curvature="0" sodipodi:nodetypes="ccsscsccccc" d="M68,89.8c0-2.6-2-2.6-2-0.8
	c-0.2,9.5-8.2,14.2-14.1,13.1c-9-1.7-11.9-10.7-11.8-16C40.4,69.9,56.8,57.9,71.6,37c10.8,18.8,28.7,33.6,29.8,48.2
	c1.4,19.4-23.1,26.6-26.6,4c-0.2-1.6-2.1-2.3-2-0.1c0.5,6.2-0.2,8.8,6.7,24H61.3C65.3,106.1,67.8,97.3,68,89.8L68,89.8z"/>
<path id="path3214" inkscape:connector-curvature="0" sodipodi:nodetypes="ccsscsccccc" d="M210.9,89.8c0-2.6-2-2.6-2-0.8
	c-0.2,9.5-8.2,14.2-14.1,13.1c-9-1.7-11.9-10.7-11.8-16c0.3-16.3,16.6-28.3,31.4-49.2c10.8,18.8,28.7,33.6,29.8,48.2
	c1.4,19.4-23.1,26.6-26.6,4c-0.2-1.6-2.1-2.3-2-0.1c0.5,6.2-0.2,8.8,6.7,24h-18.2C208.2,106.1,210.6,97.3,210.9,89.8L210.9,89.8z"/>
<path id="path3216" inkscape:connector-curvature="0" sodipodi:nodetypes="ccsscsccccc" d="M140.3,154.1c0-2.6-2-2.6-2-0.8
	c-0.2,9.5-8.2,14.2-14.1,13.1c-9-1.7-11.9-10.7-11.8-16c0.3-16.3,16.6-28.3,31.4-49.2c10.8,18.8,28.7,33.6,29.8,48.2
	c1.4,19.4-23.1,26.6-26.6,4c-0.2-1.6-2.1-2.3-2-0.1c0.5,6.2-0.2,8.8,6.7,24h-18.2C137.7,170.4,140.1,161.6,140.3,154.1L140.3,154.1z
	"/>
<path id="path3218" inkscape:connector-curvature="0" sodipodi:nodetypes="ccsscsccccc" d="M210.9,218.4c0-2.6-2-2.6-2-0.8
	c-0.2,9.5-8.2,14.2-14.1,13.1c-9-1.7-11.9-10.7-11.8-16c0.3-16.3,16.6-28.3,31.4-49.2c10.8,18.8,28.7,33.6,29.8,48.2
	c1.4,19.4-23.1,26.6-26.6,4c-0.2-1.6-2.1-2.3-2-0.1c0.5,6.2-0.2,8.8,6.7,24h-18.2C208.2,234.7,210.6,225.9,210.9,218.4L210.9,218.4z
	"/>
<path id="path3220" inkscape:connector-curvature="0" sodipodi:nodetypes="ccsscsccccc" d="M68,218.4c0-2.6-2-2.6-2-0.8
	c-0.2,9.5-8.2,14.2-14.1,13.1c-9-1.7-11.9-10.7-11.8-16c0.3-16.3,16.6-28.3,31.4-49.2c10.8,18.8,28.7,33.6,29.8,48.2
	c1.4,19.4-23.1,26.6-26.6,4c-0.2-1.6-2.1-2.3-2-0.1c0.5,6.2-0.2,8.8,6.7,24H61.3C65.3,234.7,67.8,225.9,68,218.4L68,218.4z"/>
<path id="path3304" inkscape:connector-curvature="0" sodipodi:nodetypes="ccsscsccccc" d="M210.9,315.5c0,2.6-2,2.6-2,0.8
	c-0.2-9.5-8.2-14.2-14.1-13.1c-9,1.7-11.9,10.7-11.8,16c0.3,16.3,16.6,28.3,31.4,49.2c10.8-18.8,28.7-33.6,29.8-48.2
	c1.4-19.4-23.1-26.6-26.6-4c-0.2,1.6-2.1,2.3-2,0.1c0.5-6.2-0.2-8.8,6.7-24h-18.2C208.3,299.3,210.7,308,210.9,315.5L210.9,315.5z"
	/>
<path id="path3306" inkscape:connector-curvature="0" sodipodi:nodetypes="ccsscsccccc" d="M68,315.5c0,2.6-2,2.6-2,0.8
	c-0.2-9.5-8.2-14.2-14.1-13.1c-9,1.7-11.9,10.7-11.8,16c0.3,16.3,16.6,28.3,31.4,49.2c10.8-18.8,28.7-33.6,29.8-48.2
	c1.4-19.4-23.1-26.6-26.6-4c-0.2,1.6-2.1,2.3-2,0.1c0.5-6.2-0.2-8.8,6.7-24H61.3C65.4,299.3,67.8,308,68,315.5L68,315.5z"/>
<path id="path3324" inkscape:connector-curvature="0" sodipodi:nodetypes="ccscccscsccccc" d="M21.9,91.1c0-1.1-1.1-0.6-1.3-0.2
	c-1.5,2.5-3.7,3.1-5.8,2.2c-2.1-0.9-3.3-2.9-3.1-5.8c0.4-4.4,3.9-9.2,5.6-12c1.6-2.5,3.4-5.4,5.2-9.2c2.2,4.3,3.3,5.5,5.6,9.5
	c2.1,3.5,5,6.9,5.2,11.1c0,3.2-1.3,6.2-4.4,6.7c-1.7,0.3-3.3-0.6-4.5-2.6c-0.4-0.5-1.1-0.2-1.1,0.5c0.2,2.7,1.2,5.1,3.6,8h-8.8
	C19.9,97.2,21.8,94.5,21.9,91.1L21.9,91.1z"/>
<path id="path3348" inkscape:connector-curvature="0" sodipodi:nodetypes="ccscccscsccccc" d="M263.8,312.7c0,1.1-1.1,0.6-1.3,0.2
	c-1.5-2.5-3.7-3.1-5.8-2.2c-2.1,0.9-3.3,2.9-3.1,5.8c0.4,4.4,3.9,9.2,5.6,12c1.6,2.5,3.4,5.4,5.2,9.2c2.2-4.3,3.3-5.5,5.6-9.5
	c2.1-3.5,5-6.9,5.2-11.1c0-3.2-1.3-6.2-4.4-6.7c-1.7-0.3-3.3,0.6-4.5,2.6c-0.4,0.5-1.1,0.2-1.1-0.5c0.2-2.7,1.2-5.1,3.6-8H260
	C261.9,306.6,263.7,309.3,263.8,312.7L263.8,312.7z"/>
</svg>
