<?xml version="1.0" encoding="utf-8"?>
<!-- Generator: Adobe Illustrator 22.1.0, SVG Export Plug-In . SVG Version: 6.00 Build 0)  -->
<svg version="1.1"
	 id="svg4423" inkscape:version="0.48.1 r9760" sodipodi:docname="8C.svg" xmlns:cc="http://creativecommons.org/ns#" xmlns:dc="http://purl.org/dc/elements/1.1/" xmlns:inkscape="http://www.inkscape.org/namespaces/inkscape" xmlns:rdf="http://www.w3.org/1999/02/22-rdf-syntax-ns#" xmlns:sodipodi="http://sodipodi.sourceforge.net/DTD/sodipodi-0.dtd" xmlns:svg="http://www.w3.org/2000/svg"
	 xmlns="http://www.w3.org/2000/svg" xmlns:xlink="http://www.w3.org/1999/xlink" x="0px" y="0px" viewBox="0 0 286 400"
	 style="enable-background:new 0 0 286 400;" xml:space="preserve">
<path id="path7112-0" inkscape:connector-curvature="0" sodipodi:nodetypes="zcszsczzzssssssssss" d="M7.8,48.2
	c0.2-5.6,2.3-7.7,6.3-10.7c-3.2-2.3-4.6-5.7-4.3-8.6c0.7-7,6.2-10.5,12.2-10.3c6,0.2,11.2,4.8,11.6,9.9c0.4,4.4-1,6.5-4.2,8.9
	c3.8,3.1,6.2,5.2,6.1,10.7c-0.1,5.5-4.9,12.1-13.2,12.3C13.9,60.6,7.6,53.8,7.8,48.2L7.8,48.2z M31.1,48.2c0.4-5.1-4.2-8.5-9.4-8.6
	c-5-0.1-9.5,4.2-9.5,8.7c0,4.9,5.8,7.6,9.6,7.6C26.4,55.9,30.8,52.6,31.1,48.2L31.1,48.2z M29.4,30c0.1-4.3-3.9-7.4-8.1-7.2
	c-3.7,0.1-7.6,2.9-7.6,6.5c0,4.5,4.4,6.7,8.2,6.8C25.4,36.1,29.4,33.2,29.4,30z"/>
<path id="path7128-9" inkscape:connector-curvature="0" sodipodi:nodetypes="zcszsczzzssssssssss" d="M276.3,351.8
	c-0.2,5.6-2.3,7.7-6.3,10.7c3.2,2.3,4.6,5.7,4.3,8.6c-0.7,7-6.2,10.5-12.2,10.3c-6-0.2-11.2-4.8-11.6-9.9c-0.4-4.4,1-6.5,4.2-8.9
	c-3.8-3.1-6.2-5.2-6.1-10.7c0.1-5.5,4.9-12.1,13.2-12.3C270.2,339.4,276.5,346.2,276.3,351.8L276.3,351.8z M253,351.8
	c-0.4,5.1,4.2,8.5,9.4,8.6c5,0.1,9.5-4.2,9.5-8.7c0-4.9-5.8-7.6-9.6-7.6C257.7,344.1,253.3,347.4,253,351.8L253,351.8z M254.6,370
	c-0.1,4.3,3.9,7.4,8.1,7.2c3.7-0.1,7.6-2.9,7.6-6.5c0-4.5-4.4-6.7-8.2-6.8C258.6,363.9,254.7,366.8,254.6,370z"/>
<path id="path3309" inkscape:connector-curvature="0" sodipodi:nodetypes="cccscccccscscc" d="M199.9,109c3.7-7.4,6.4-15,6.9-23.1
	c0.4-3-1.4-3-1.7-0.9c-5.2,20-33,14.6-32.1-4.2c0.8-15.3,15.9-18.5,23.8-13.6c3.1,1.8,2.9,0.7,1.2-1.2c-11.7-13.1-4.6-30,11.2-30.3
	c17.1,1,21.6,19.1,11.1,29.7c-1.3,1.3-4.2,5.4,0.2,2.5c10.6-7.6,25.4,0.6,25.1,12.2c-0.6,21.5-26.7,23.1-32.3,5.1
	c-0.5-2-2.1-3-1.7,0.4c0.8,6.1,2.4,15.3,7,23.4H199.9z"/>
<path id="path3311" inkscape:connector-curvature="0" sodipodi:nodetypes="cccscccccscscc" d="M199.9,237.6c3.7-7.4,6.4-15,6.9-23.1
	c0.4-3-1.4-3-1.7-0.9c-5.2,20-33,14.6-32.1-4.2c0.8-15.3,15.9-18.5,23.8-13.6c3.1,1.8,2.9,0.7,1.2-1.2c-11.7-13.1-4.6-30,11.2-30.3
	c17.1,1,21.6,19.1,11.1,29.7c-1.3,1.3-4.2,5.4,0.2,2.5c10.6-7.6,25.4,0.6,25.1,12.2c-0.6,21.5-26.7,23.1-32.3,5.1
	c-0.5-2-2.1-3-1.7,0.4c0.8,6.1,2.4,15.3,7,23.4H199.9z"/>
<path id="path3313" inkscape:connector-curvature="0" sodipodi:nodetypes="cccscccccscscc" d="M67.3,237.6c3.7-7.4,6.4-15,6.9-23.1
	c0.4-3-1.4-3-1.7-0.9c-5.2,20-33,14.6-32.1-4.2c0.8-15.3,15.9-18.5,23.8-13.6c3.1,1.8,2.9,0.7,1.2-1.2c-11.7-13.1-4.6-30,11.2-30.3
	c17.1,1,21.6,19.1,11.1,29.7c-1.3,1.3-4.2,5.4,0.2,2.5c10.6-7.6,25.4,0.6,25.1,12.2c-0.6,21.5-26.7,23.1-32.3,5.1
	c-0.5-2-2.1-3-1.7,0.4c0.8,6.1,2.4,15.3,7,23.4H67.3z"/>
<path id="path3315" inkscape:connector-curvature="0" sodipodi:nodetypes="cccscccccscscc" d="M131.6,173.3c3.7-7.4,6.4-15,6.9-23.1
	c0.4-3-1.4-3-1.7-0.9c-5.2,20-33,14.6-32.1-4.2c0.8-15.3,15.9-18.5,23.8-13.6c3.1,1.8,2.9,0.7,1.2-1.2c-11.7-13.1-4.6-30,11.2-30.3
	c17.1,1,21.6,19.1,11.1,29.7c-1.3,1.3-4.2,5.4,0.2,2.5c10.6-7.6,25.4,0.6,25.1,12.2c-0.6,21.5-26.7,23.1-32.3,5.1
	c-0.5-2-2.1-3-1.7,0.4c0.8,6.1,2.4,15.3,7,23.4H131.6z"/>
<path id="path3317" inkscape:connector-curvature="0" sodipodi:nodetypes="cccscccccscscc" d="M67.3,109c3.7-7.4,6.4-15,6.9-23.1
	c0.4-3-1.4-3-1.7-0.9c-5.2,20-33,14.6-32.1-4.2c0.8-15.3,15.9-18.5,23.8-13.6c3.1,1.8,2.9,0.7,1.2-1.2c-11.7-13.1-4.6-30,11.2-30.3
	c17.1,1,21.6,19.1,11.1,29.7c-1.3,1.3-4.2,5.4,0.2,2.5c10.6-7.6,25.4,0.6,25.1,12.2c-0.6,21.5-26.7,23.1-32.3,5.1
	c-0.5-2-2.1-3-1.7,0.4c0.8,6.1,2.4,15.3,7,23.4H67.3z"/>
<path id="path3375" inkscape:connector-curvature="0" sodipodi:nodetypes="cccscccccscscc" d="M218.8,290.8
	c-3.7,7.4-6.4,15-6.9,23.1c-0.4,3,1.4,3,1.7,0.9c5.2-20,33-14.6,32.1,4.2c-0.8,15.3-15.9,18.5-23.8,13.6c-3.1-1.8-2.9-0.7-1.2,1.2
	c11.7,13.1,4.6,30-11.2,30.3c-17.1-1-21.6-19.1-11.1-29.7c1.3-1.3,4.2-5.4-0.2-2.5c-10.6,7.6-25.4-0.6-25.1-12.2
	c0.6-21.5,26.7-23.1,32.3-5.1c0.5,2,2.1,3,1.7-0.4c-0.8-6.1-2.4-15.3-7-23.4L218.8,290.8z"/>
<path id="path3377" inkscape:connector-curvature="0" sodipodi:nodetypes="cccscccccscscc" d="M150.4,227.5
	c-3.7,7.4-6.4,15-6.9,23.1c-0.4,3,1.4,3,1.7,0.9c5.2-20,33-14.6,32.1,4.2c-0.8,15.3-15.9,18.5-23.8,13.6c-3.1-1.8-2.9-0.7-1.2,1.2
	c11.7,13.1,4.6,30-11.2,30.3c-17.1-1-21.6-19.1-11.1-29.7c1.3-1.3,4.2-5.4-0.2-2.5c-10.6,7.6-25.4-0.6-25.1-12.2
	c0.6-21.5,26.7-23.1,32.3-5.1c0.5,2,2.1,3,1.7-0.4c-0.8-6.1-2.4-15.3-7-23.4L150.4,227.5z"/>
<path id="path3379" inkscape:connector-curvature="0" sodipodi:nodetypes="cccscccccscscc" d="M86.1,290.8c-3.7,7.4-6.4,15-6.9,23.1
	c-0.4,3,1.4,3,1.7,0.9c5.2-20,33-14.6,32.1,4.2c-0.8,15.3-15.9,18.5-23.8,13.6c-3.1-1.8-2.9-0.7-1.2,1.2c11.7,13.1,4.6,30-11.2,30.3
	c-17.1-1-21.6-19.1-11.1-29.7c1.3-1.3,4.2-5.4-0.2-2.5c-10.6,7.6-25.4-0.6-25.1-12.2c0.6-21.5,26.7-23.1,32.3-5.1
	c0.5,2,2.1,3,1.7-0.4c-0.8-6.1-2.4-15.3-7-23.4L86.1,290.8z"/>
<path id="path3468" inkscape:connector-curvature="0" sodipodi:nodetypes="cccscsccssscccsccccc" d="M17.2,99.2
	c1.5-3.1,3-6.1,3.8-9.5c0.5-3.2-0.6-2-1.2,0.1c-0.9,2.9-3.5,4.3-5.9,4.3c-4.3,0.1-6.5-3.3-6.3-7c-0.5-3.8,3.4-6.6,6.4-6.4
	c2.2,0.2,4.1,1.3,5.3,2.3c0.8,0.4,1.6,0.6,0.4-0.5c-2.1-2.4-3.9-3.8-3.9-7.3c0-3.3,2.9-6.8,6.6-6.6c4.7,0.1,6.8,3.7,6.8,7
	c0,2.4-1.2,4.7-3.1,6c-1.2,1-0.9,1.7,0.5,0.8c1.3-1.1,2.9-1.6,4.5-1.7c4.5-0.1,6.2,3.8,6,7.4c-0.2,3.4-3.1,6.8-6.9,6.4
	c-3.4-0.4-5.1-3.2-6.2-6.1c-0.3-0.9-0.9-1.1-0.9,0.2c0.8,6.5,3.2,10.5,3.2,10.5H17.2z"/>
<path id="path3490" inkscape:connector-curvature="0" sodipodi:nodetypes="cccscsccssscccsccccc" d="M268.8,305.8
	c-1.5,3.1-3,6.1-3.8,9.5c-0.5,3.2,0.6,2,1.2-0.1c0.9-2.9,3.5-4.3,5.9-4.3c4.3-0.1,6.5,3.3,6.3,7c0.5,3.8-3.4,6.6-6.4,6.4
	c-2.2-0.2-4.1-1.3-5.3-2.3c-0.8-0.4-1.6-0.6-0.4,0.5c2.1,2.4,3.9,3.8,3.9,7.3c0,3.3-2.9,6.8-6.6,6.6c-4.7-0.1-6.8-3.7-6.8-7
	c0-2.4,1.2-4.7,3.1-6c1.2-1,0.9-1.7-0.5-0.8c-1.3,1.1-2.9,1.6-4.5,1.7c-4.5,0.1-6.2-3.8-6-7.4c0.2-3.4,3.1-6.8,6.9-6.4
	c3.4,0.4,5.1,3.2,6.2,6.1c0.3,0.9,0.9,1.1,0.9-0.2c-0.8-6.5-3.2-10.5-3.2-10.5L268.8,305.8z"/>
</svg>
