<?xml version="1.0" encoding="utf-8"?>
<!-- Generator: Adobe Illustrator 22.1.0, SVG Export Plug-In . SVG Version: 6.00 Build 0)  -->
<svg version="1.1"
	 id="svg4423" inkscape:version="0.48.1 r9760" sodipodi:docname="8D.svg" xmlns:cc="http://creativecommons.org/ns#" xmlns:dc="http://purl.org/dc/elements/1.1/" xmlns:inkscape="http://www.inkscape.org/namespaces/inkscape" xmlns:rdf="http://www.w3.org/1999/02/22-rdf-syntax-ns#" xmlns:sodipodi="http://sodipodi.sourceforge.net/DTD/sodipodi-0.dtd" xmlns:svg="http://www.w3.org/2000/svg"
	 xmlns="http://www.w3.org/2000/svg" xmlns:xlink="http://www.w3.org/1999/xlink" x="0px" y="0px" viewBox="0 0 286 400"
	 style="enable-background:new 0 0 286 400;" xml:space="preserve">
<style type="text/css">
	.st0{fill:#D40000;}
</style>
<path id="path3377-0" inkscape:connector-curvature="0" sodipodi:nodetypes="ccccc" class="st0" d="M41.5,72.6
	c12.7-12.4,21.1-26,29-39c7,14.3,17,26.9,27.9,39c-11.6,12-20.6,24.9-27.9,38.4C62.5,97.2,54.1,84.6,41.5,72.6z"/>
<path id="path3381-3" inkscape:connector-curvature="0" sodipodi:nodetypes="ccccc" class="st0" d="M41.5,201.2
	c12.7-12.4,21.1-26,29-39c7,14.3,17,26.9,27.9,39c-11.6,12-20.6,24.9-27.9,38.4C62.5,225.8,54.1,213.2,41.5,201.2z"/>
<path id="path3383-8" inkscape:connector-curvature="0" sodipodi:nodetypes="ccccc" class="st0" d="M41.5,327.7
	c12.7-12.4,21.1-26,29-39c7,14.3,17,26.9,27.9,39c-11.6,12-20.6,24.9-27.9,38.4C62.5,352.2,54.1,339.7,41.5,327.7z"/>
<path id="path3385" inkscape:connector-curvature="0" sodipodi:nodetypes="ccccc" class="st0" d="M113.5,136.9
	c12.7-12.4,21.1-26,29-39c7,14.3,17,26.9,27.9,39c-11.6,12-20.6,24.9-27.9,38.4C134.5,161.5,126.1,148.9,113.5,136.9z"/>
<path id="path3389-0" inkscape:connector-curvature="0" sodipodi:nodetypes="ccccc" class="st0" d="M184.4,72.6
	c12.7-12.4,21.1-26,29-39c7,14.3,17,26.9,27.9,39c-11.6,12-20.6,24.9-27.9,38.4C205.4,97.2,197,84.6,184.4,72.6z"/>
<path id="path3393-1" inkscape:connector-curvature="0" sodipodi:nodetypes="ccccc" class="st0" d="M184.4,201.2
	c12.7-12.4,21.1-26,29-39c7,14.3,17,26.9,27.9,39c-11.6,12-20.6,24.9-27.9,38.4C205.4,225.8,197,213.2,184.4,201.2z"/>
<path id="path3395-2" inkscape:connector-curvature="0" sodipodi:nodetypes="ccccc" class="st0" d="M184.4,327.7
	c12.7-12.4,21.1-26,29-39c7,14.3,17,26.9,27.9,39c-11.6,12-20.6,24.9-27.9,38.4C205.4,352.2,197,339.7,184.4,327.7z"/>
<path id="path3471" inkscape:connector-curvature="0" sodipodi:nodetypes="ccccc" class="st0" d="M113.5,264.5
	c12.7-12.4,21.1-26,29-39c7,14.3,17,26.9,27.9,39c-11.6,12-20.6,24.9-27.9,38.4C134.5,289,126.1,276.5,113.5,264.5z"/>
<path id="path3714" inkscape:connector-curvature="0" sodipodi:nodetypes="ccccc" class="st0" d="M253.6,322.5
	c5.2-5.1,8.6-10.6,11.9-16c2.9,5.9,7,11,11.4,16c-4.8,4.9-8.5,10.2-11.4,15.7C262.3,332.5,258.8,327.4,253.6,322.5L253.6,322.5z"/>
<path id="path3716" inkscape:connector-curvature="0" sodipodi:nodetypes="ccccc" class="st0" d="M11.7,84c5.2-5.1,8.6-10.6,11.9-16
	c2.9,5.9,7,11,11.4,16c-4.8,4.9-8.5,10.2-11.4,15.7C20.3,94.1,16.9,88.9,11.7,84L11.7,84z"/>
<path id="path7112-5" inkscape:connector-curvature="0" sodipodi:nodetypes="zcszsczzzssssssssss" class="st0" d="M8.8,48.2
	c0.2-5.6,2.3-7.7,6.3-10.7c-3.2-2.3-4.6-5.7-4.3-8.6c0.7-7,6.2-10.5,12.2-10.3c6,0.2,11.2,4.8,11.6,9.9c0.4,4.4-1,6.5-4.2,8.9
	c3.8,3.1,6.2,5.2,6.1,10.7c-0.1,5.5-4.9,12.1-13.2,12.3C14.9,60.6,8.6,53.8,8.8,48.2L8.8,48.2z M32.1,48.2c0.4-5.1-4.2-8.5-9.4-8.6
	c-5-0.1-9.5,4.2-9.5,8.7c0,4.9,5.8,7.6,9.6,7.6C27.4,55.9,31.7,52.6,32.1,48.2L32.1,48.2z M30.4,30c0.1-4.3-3.9-7.4-8.1-7.2
	c-3.7,0.1-7.6,2.9-7.6,6.5c0,4.5,4.4,6.7,8.2,6.8C26.4,36.1,30.3,33.2,30.4,30z"/>
<path id="path7128-0" inkscape:connector-curvature="0" sodipodi:nodetypes="zcszsczzzssssssssss" class="st0" d="M277.2,351.8
	c-0.2,5.6-2.3,7.7-6.3,10.7c3.2,2.3,4.6,5.7,4.3,8.6c-0.7,7-6.2,10.5-12.2,10.3c-6-0.2-11.2-4.8-11.6-9.9c-0.4-4.4,1-6.5,4.2-8.9
	c-3.8-3.1-6.2-5.2-6.1-10.7c0.1-5.5,4.9-12.1,13.2-12.3C271.1,339.4,277.4,346.2,277.2,351.8L277.2,351.8z M253.9,351.8
	c-0.4,5.1,4.2,8.5,9.4,8.6c5,0.1,9.5-4.2,9.5-8.7c0-4.9-5.8-7.6-9.6-7.6C258.6,344.1,254.3,347.4,253.9,351.8L253.9,351.8z
	 M255.6,370c-0.1,4.3,3.9,7.4,8.1,7.2c3.7-0.1,7.6-2.9,7.6-6.5c0-4.5-4.4-6.7-8.2-6.8C259.6,363.9,255.7,366.8,255.6,370z"/>
</svg>
