<?xml version="1.0" encoding="utf-8"?>
<!-- Generator: Adobe Illustrator 22.1.0, SVG Export Plug-In . SVG Version: 6.00 Build 0)  -->
<svg version="1.1"
	 id="svg4423" inkscape:version="0.48.1 r9760" sodipodi:docname="8H.svg" xmlns:cc="http://creativecommons.org/ns#" xmlns:dc="http://purl.org/dc/elements/1.1/" xmlns:inkscape="http://www.inkscape.org/namespaces/inkscape" xmlns:rdf="http://www.w3.org/1999/02/22-rdf-syntax-ns#" xmlns:sodipodi="http://sodipodi.sourceforge.net/DTD/sodipodi-0.dtd" xmlns:svg="http://www.w3.org/2000/svg"
	 xmlns="http://www.w3.org/2000/svg" xmlns:xlink="http://www.w3.org/1999/xlink" x="0px" y="0px" viewBox="0 0 286 400"
	 style="enable-background:new 0 0 286 400;" xml:space="preserve">
<style type="text/css">
	.st0{fill:#D40000;}
</style>
<path id="path7112" inkscape:connector-curvature="0" sodipodi:nodetypes="zcszsczzzssssssssss" class="st0" d="M8.8,48.2
	c0.2-5.6,2.3-7.7,6.3-10.7c-3.2-2.3-4.6-5.7-4.3-8.6c0.7-7,6.2-10.5,12.2-10.3c6,0.2,11.2,4.8,11.6,9.9c0.4,4.4-1,6.5-4.2,8.9
	c3.8,3.1,6.2,5.2,6.1,10.7c-0.1,5.5-4.9,12.1-13.2,12.3C14.9,60.6,8.6,53.8,8.8,48.2L8.8,48.2z M32.1,48.2c0.4-5.1-4.2-8.5-9.4-8.6
	c-5-0.1-9.5,4.2-9.5,8.7c0,4.9,5.8,7.6,9.6,7.6C27.4,55.9,31.7,52.6,32.1,48.2L32.1,48.2z M30.4,30c0.1-4.3-3.9-7.4-8.1-7.2
	c-3.7,0.1-7.6,2.9-7.6,6.5c0,4.5,4.4,6.7,8.2,6.8C26.4,36.1,30.3,33.2,30.4,30z"/>
<path id="path7128" inkscape:connector-curvature="0" sodipodi:nodetypes="zcszsczzzssssssssss" class="st0" d="M277.2,351.8
	c-0.2,5.6-2.3,7.7-6.3,10.7c3.2,2.3,4.6,5.7,4.3,8.6c-0.7,7-6.2,10.5-12.2,10.3c-6-0.2-11.2-4.8-11.6-9.9c-0.4-4.4,1-6.5,4.2-8.9
	c-3.8-3.1-6.2-5.2-6.1-10.7c0.1-5.5,4.9-12.1,13.2-12.3C271.1,339.4,277.4,346.2,277.2,351.8L277.2,351.8z M253.9,351.8
	c-0.4,5.1,4.2,8.5,9.4,8.6c5,0.1,9.5-4.2,9.5-8.7c0-4.9-5.8-7.6-9.6-7.6C258.6,344.1,254.3,347.4,253.9,351.8L253.9,351.8z
	 M255.6,370c-0.1,4.3,3.9,7.4,8.1,7.2c3.7-0.1,7.6-2.9,7.6-6.5c0-4.5-4.4-6.7-8.2-6.8C259.6,363.9,255.7,366.8,255.6,370z"/>
<path id="path8634" inkscape:connector-curvature="0" sodipodi:nodetypes="cccccccc" class="st0" d="M12.3,80.7
	c-2-4.5-2.3-12.1,3.8-13.1c4.6-0.6,6.4,1.5,6.8,4.8c0.2,1,0.7,1,0.9-0.1c0.3-3.3,3.6-5.3,6.2-4.8c7.1,1.2,6.7,9,4.4,14.3
	c-3.5,7-7.2,11.5-10.6,18.5C19.8,93,15.4,87,12.3,80.7L12.3,80.7z"/>
<path id="path8548" inkscape:connector-curvature="0" sodipodi:nodetypes="ccccsccssc" class="st0" d="M57.1,35.5
	c9.2-0.6,13.9,7.2,14.9,13.4c0.6,1,0.9,0.7,1.1-0.1c0.4-7.9,7.5-14.4,14.1-13.5c10.7,0.1,17.2,12,15.3,22.1
	c-2.2,12.3-8.8,19.7-13.8,27.3c-5.7,7.9-13.3,19.3-15.7,24.8c0,0-7.7-11.8-17.8-25.7c-6.7-9.3-12.1-19.3-12.6-28
	C41.8,45.9,45.9,37,57.1,35.5L57.1,35.5z"/>
<path id="path8550" inkscape:connector-curvature="0" sodipodi:nodetypes="ccccsccssc" class="st0" d="M197.4,35.5
	c9.2-0.6,13.9,7.2,14.9,13.4c0.6,1,0.9,0.7,1.1-0.1c0.4-7.9,7.5-14.4,14.1-13.5c10.7,0.1,17.2,12,15.3,22.1
	c-2.2,12.3-8.8,19.7-13.8,27.3c-5.7,7.9-13.3,19.3-15.7,24.8c0,0-7.7-11.8-17.8-25.7c-6.7-9.3-12.1-19.3-12.6-28
	C182.1,45.9,186.2,37,197.4,35.5L197.4,35.5z"/>
<path id="path8552" inkscape:connector-curvature="0" sodipodi:nodetypes="ccccsccssc" class="st0" d="M126.5,99.8
	c9.2-0.6,13.9,7.2,14.9,13.4c0.6,1,0.9,0.7,1.1-0.1c0.4-7.9,7.5-14.4,14.1-13.5c10.7,0.1,17.2,12,15.3,22.1
	C169.6,134,163,141.4,158,149c-5.7,7.9-13.3,19.3-15.7,24.8c0,0-7.7-11.8-17.8-25.7c-6.7-9.3-12.1-19.3-12.6-28
	C111.2,110.2,115.3,101.3,126.5,99.8L126.5,99.8z"/>
<path id="path8554" inkscape:connector-curvature="0" sodipodi:nodetypes="ccccsccssc" class="st0" d="M57.1,164.1
	c9.2-0.6,13.9,7.2,14.9,13.4c0.6,1,0.9,0.7,1.1-0.1c0.4-7.9,7.5-14.4,14.1-13.5c10.7,0.1,17.2,12,15.3,22.1
	c-2.2,12.3-8.8,19.7-13.8,27.3c-5.7,7.9-13.3,19.3-15.7,24.8c0,0-7.7-11.8-17.8-25.7c-6.7-9.3-12.1-19.3-12.6-28
	C41.8,174.5,45.9,165.6,57.1,164.1L57.1,164.1z"/>
<path id="path8556" inkscape:connector-curvature="0" sodipodi:nodetypes="ccccsccssc" class="st0" d="M197.4,164.1
	c9.2-0.6,13.9,7.2,14.9,13.4c0.6,1,0.9,0.7,1.1-0.1c0.4-7.9,7.5-14.4,14.1-13.5c10.7,0.1,17.2,12,15.3,22.1
	c-2.2,12.3-8.8,19.7-13.8,27.3c-5.7,7.9-13.3,19.3-15.7,24.8c0,0-7.7-11.8-17.8-25.7c-6.7-9.3-12.1-19.3-12.6-28
	C182.1,174.5,186.2,165.6,197.4,164.1L197.4,164.1z"/>
<path id="path8614" inkscape:connector-curvature="0" sodipodi:nodetypes="ccccsccssc" class="st0" d="M197.4,364.3
	c9.2,0.6,13.9-7.2,14.9-13.4c0.6-1,0.9-0.7,1.1,0.1c0.4,7.9,7.5,14.4,14.1,13.5c10.7-0.1,17.2-12,15.3-22.1
	c-2.2-12.3-8.8-19.7-13.8-27.3c-5.7-7.9-13.3-19.3-15.7-24.8c0,0-7.7,11.8-17.8,25.7c-6.7,9.3-12.1,19.3-12.6,28
	C182.1,353.9,186.2,362.8,197.4,364.3L197.4,364.3z"/>
<path id="path8616" inkscape:connector-curvature="0" sodipodi:nodetypes="ccccsccssc" class="st0" d="M126.5,301.1
	c9.2,0.6,13.9-7.2,14.9-13.4c0.6-1,0.9-0.7,1.1,0.1c0.4,7.9,7.5,14.4,14.1,13.5c10.7-0.1,17.2-12,15.3-22.1
	c-2.2-12.3-8.8-19.7-13.8-27.3c-5.7-7.9-13.3-19.3-15.7-24.8c0,0-7.7,11.8-17.8,25.7c-6.7,9.3-12.1,19.3-12.6,28
	C111.2,290.6,115.3,299.5,126.5,301.1L126.5,301.1z"/>
<path id="path8618" inkscape:connector-curvature="0" sodipodi:nodetypes="ccccsccssc" class="st0" d="M57.1,364.3
	c9.2,0.6,13.9-7.2,14.9-13.4c0.6-1,0.9-0.7,1.1,0.1c0.4,7.9,7.5,14.4,14.1,13.5c10.7-0.1,17.2-12,15.3-22.1
	c-2.2-12.3-8.8-19.7-13.8-27.3c-5.7-7.9-13.3-19.3-15.7-24.8c0,0-7.7,11.8-17.8,25.7c-6.7,9.3-12.1,19.3-12.6,28
	C41.8,353.9,45.9,362.8,57.1,364.3L57.1,364.3z"/>
<path id="path8664" inkscape:connector-curvature="0" sodipodi:nodetypes="cccccccc" class="st0" d="M254.2,325.5
	c-2,4.5-2.3,12.1,3.8,13.1c4.6,0.6,6.4-1.5,6.8-4.8c0.2-1,0.7-1,0.9,0.1c0.3,3.3,3.6,5.3,6.2,4.8c7.1-1.2,6.7-9,4.4-14.3
	c-3.5-7-7.2-11.5-10.6-18.5C261.7,313.2,257.3,319.2,254.2,325.5L254.2,325.5z"/>
</svg>
