<?xml version="1.0" encoding="utf-8"?>
<!-- Generator: Adobe Illustrator 22.1.0, SVG Export Plug-In . SVG Version: 6.00 Build 0)  -->
<svg version="1.1"
	 id="svg4423" inkscape:version="0.48.1 r9760" sodipodi:docname="8S.svg" xmlns:cc="http://creativecommons.org/ns#" xmlns:dc="http://purl.org/dc/elements/1.1/" xmlns:inkscape="http://www.inkscape.org/namespaces/inkscape" xmlns:rdf="http://www.w3.org/1999/02/22-rdf-syntax-ns#" xmlns:sodipodi="http://sodipodi.sourceforge.net/DTD/sodipodi-0.dtd" xmlns:svg="http://www.w3.org/2000/svg"
	 xmlns="http://www.w3.org/2000/svg" xmlns:xlink="http://www.w3.org/1999/xlink" x="0px" y="0px" viewBox="0 0 286 400"
	 style="enable-background:new 0 0 286 400;" xml:space="preserve">
<path id="path7112-7" inkscape:connector-curvature="0" sodipodi:nodetypes="zcszsczzzssssssssss" d="M8.8,48.2
	c0.2-5.6,2.3-7.7,6.3-10.7c-3.2-2.3-4.6-5.7-4.3-8.6c0.7-7,6.2-10.5,12.2-10.3c6,0.2,11.2,4.8,11.6,9.9c0.4,4.4-1,6.5-4.2,8.9
	c3.8,3.1,6.2,5.2,6.1,10.7c-0.1,5.5-4.9,12.1-13.2,12.3C14.9,60.6,8.6,53.8,8.8,48.2L8.8,48.2z M32.1,48.2c0.4-5.1-4.2-8.5-9.4-8.6
	c-5-0.1-9.5,4.2-9.5,8.7c0,4.9,5.8,7.6,9.6,7.6C27.4,55.9,31.7,52.6,32.1,48.2L32.1,48.2z M30.4,30c0.1-4.3-3.9-7.4-8.1-7.2
	c-3.7,0.1-7.6,2.9-7.6,6.5c0,4.5,4.4,6.7,8.2,6.8C26.4,36.1,30.3,33.2,30.4,30z"/>
<path id="path7128-6" inkscape:connector-curvature="0" sodipodi:nodetypes="zcszsczzzssssssssss" d="M277.2,351.8
	c-0.2,5.6-2.3,7.7-6.3,10.7c3.2,2.3,4.6,5.7,4.3,8.6c-0.7,7-6.2,10.5-12.2,10.3c-6-0.2-11.2-4.8-11.6-9.9c-0.4-4.4,1-6.5,4.2-8.9
	c-3.8-3.1-6.2-5.2-6.1-10.7c0.1-5.5,4.9-12.1,13.2-12.3C271.1,339.4,277.4,346.2,277.2,351.8L277.2,351.8z M253.9,351.8
	c-0.4,5.1,4.2,8.5,9.4,8.6c5,0.1,9.5-4.2,9.5-8.7c0-4.9-5.8-7.6-9.6-7.6C258.6,344.1,254.3,347.4,253.9,351.8L253.9,351.8z
	 M255.6,370c-0.1,4.3,3.9,7.4,8.1,7.2c3.7-0.1,7.6-2.9,7.6-6.5c0-4.5-4.4-6.7-8.2-6.8C259.6,363.9,255.7,366.8,255.6,370z"/>
<path id="path3222" inkscape:connector-curvature="0" sodipodi:nodetypes="ccsscsccccc" d="M67.2,87c0-2.6-2-2.6-2-0.8
	C65,95.8,57,100.5,51.1,99.4c-9-1.7-11.9-10.7-11.8-16C39.6,67.1,56,55.1,70.8,34.2c10.8,18.8,28.7,33.6,29.8,48.2
	c1.4,19.4-23.1,26.6-26.6,4c-0.2-1.6-2.1-2.3-2-0.1c0.5,6.2-0.2,8.8,6.7,24H60.5C64.5,103.3,66.9,94.5,67.2,87L67.2,87z"/>
<path id="path3224" inkscape:connector-curvature="0" sodipodi:nodetypes="ccsscsccccc" d="M210.1,87c0-2.6-2-2.6-2-0.8
	c-0.2,9.5-8.2,14.2-14.1,13.1c-9-1.7-11.9-10.7-11.8-16c0.3-16.3,16.6-28.3,31.4-49.2c10.8,18.8,28.7,33.6,29.8,48.2
	c1.4,19.4-23.1,26.6-26.6,4c-0.2-1.6-2.1-2.3-2-0.1c0.5,6.2-0.2,8.8,6.7,24h-18.2C207.4,103.3,209.8,94.5,210.1,87L210.1,87z"/>
<path id="path3226" inkscape:connector-curvature="0" sodipodi:nodetypes="ccsscsccccc" d="M139.2,151.3c0-2.6-2-2.6-2-0.8
	c-0.2,9.5-8.2,14.2-14.1,13.1c-9-1.7-11.9-10.7-11.8-16c0.3-16.3,16.6-28.3,31.4-49.2c10.8,18.8,28.7,33.6,29.8,48.2
	c1.4,19.4-23.1,26.6-26.6,4c-0.2-1.6-2.1-2.3-2-0.1c0.5,6.2-0.2,8.8,6.7,24h-18.2C136.5,167.6,138.9,158.8,139.2,151.3L139.2,151.3z
	"/>
<path id="path3228" inkscape:connector-curvature="0" sodipodi:nodetypes="ccsscsccccc" d="M67.2,215.6c0-2.6-2-2.6-2-0.8
	C65,224.4,57,229.1,51.1,228c-9-1.7-11.9-10.7-11.8-16c0.3-16.3,16.6-28.3,31.4-49.2c10.8,18.8,28.7,33.6,29.8,48.2
	c1.4,19.4-23.1,26.6-26.6,4c-0.2-1.6-2.1-2.3-2-0.1c0.5,6.2-0.2,8.8,6.7,24H60.5C64.5,231.9,66.9,223.1,67.2,215.6L67.2,215.6z"/>
<path id="path3230" inkscape:connector-curvature="0" sodipodi:nodetypes="ccsscsccccc" d="M210.1,215.6c0-2.6-2-2.6-2-0.8
	c-0.2,9.5-8.2,14.2-14.1,13.1c-9-1.7-11.9-10.7-11.8-16c0.3-16.3,16.6-28.3,31.4-49.2c10.8,18.8,28.7,33.6,29.8,48.2
	c1.4,19.4-23.1,26.6-26.6,4c-0.2-1.6-2.1-2.3-2-0.1c0.5,6.2-0.2,8.8,6.7,24h-18.2C207.4,231.9,209.8,223.1,210.1,215.6L210.1,215.6z
	"/>
<path id="path3298" inkscape:connector-curvature="0" sodipodi:nodetypes="ccsscsccccc" d="M210.1,312.8c0,2.6-2,2.6-2,0.8
	c-0.2-9.5-8.2-14.2-14.1-13.1c-9,1.7-11.9,10.7-11.8,16c0.3,16.3,16.6,28.3,31.4,49.2c10.8-18.8,28.7-33.6,29.8-48.2
	c1.4-19.4-23.1-26.6-26.6-4c-0.2,1.6-2.1,2.3-2,0.1c0.5-6.2-0.2-8.8,6.7-24h-18.2C207.5,296.5,209.9,305.2,210.1,312.8L210.1,312.8z
	"/>
<path id="path3300" inkscape:connector-curvature="0" sodipodi:nodetypes="ccsscsccccc" d="M139.2,249.5c0,2.6-2,2.6-2,0.8
	c-0.2-9.5-8.2-14.2-14.1-13.1c-9,1.7-11.9,10.7-11.8,16c0.3,16.3,16.6,28.3,31.4,49.2c10.8-18.8,28.7-33.6,29.8-48.2
	c1.4-19.4-23.1-26.6-26.6-4c-0.2,1.6-2.1,2.3-2,0.1c0.5-6.2-0.2-8.8,6.7-24h-18.2C136.5,233.3,138.9,242,139.2,249.5L139.2,249.5z"
	/>
<path id="path3302" inkscape:connector-curvature="0" sodipodi:nodetypes="ccsscsccccc" d="M67.2,312.8c0,2.6-2,2.6-2,0.8
	c-0.2-9.5-8.2-14.2-14.1-13.1c-9,1.7-11.9,10.7-11.8,16c0.3,16.3,16.6,28.3,31.4,49.2c10.8-18.8,28.7-33.6,29.8-48.2
	c1.4-19.4-23.1-26.6-26.6-4c-0.2,1.6-2.1,2.3-2,0.1c0.5-6.2-0.2-8.8,6.7-24H60.5C64.6,296.5,67,305.2,67.2,312.8L67.2,312.8z"/>
<path id="path3322" inkscape:connector-curvature="0" sodipodi:nodetypes="ccscccscsccccc" d="M22.8,92.3c0-1.1-1.1-0.6-1.3-0.2
	c-1.5,2.5-3.7,3.1-5.8,2.2c-2.1-0.9-3.3-2.9-3.1-5.8c0.4-4.4,3.9-9.2,5.6-12c1.6-2.5,3.4-5.4,5.2-9.2c2.2,4.3,3.3,5.5,5.6,9.5
	c2.1,3.5,5,6.9,5.2,11.1c0,3.2-1.3,6.2-4.4,6.7c-1.7,0.3-3.3-0.6-4.5-2.6c-0.4-0.5-1.1-0.2-1.1,0.5c0.2,2.7,1.2,5.1,3.6,8h-8.8
	C20.9,98.4,22.8,95.7,22.8,92.3L22.8,92.3z"/>
<path id="path3346" inkscape:connector-curvature="0" sodipodi:nodetypes="ccscccscsccccc" d="M264.7,313.9c0,1.1-1.1,0.6-1.3,0.2
	c-1.5-2.5-3.7-3.1-5.8-2.2c-2.1,0.9-3.3,2.9-3.1,5.8c0.4,4.4,3.9,9.2,5.6,12c1.6,2.5,3.4,5.4,5.2,9.2c2.2-4.3,3.3-5.5,5.6-9.5
	c2.1-3.5,5-6.9,5.2-11.1c0-3.2-1.3-6.2-4.4-6.7c-1.7-0.3-3.3,0.6-4.5,2.6c-0.4,0.5-1.1,0.2-1.1-0.5c0.2-2.7,1.2-5.1,3.6-8H261
	C262.8,307.8,264.7,310.5,264.7,313.9z"/>
</svg>
