<?xml version="1.0" encoding="utf-8"?>
<!-- Generator: Adobe Illustrator 22.1.0, SVG Export Plug-In . SVG Version: 6.00 Build 0)  -->
<svg version="1.1"
	 id="svg4423" inkscape:version="0.48.1 r9760" sodipodi:docname="9D.svg" xmlns:cc="http://creativecommons.org/ns#" xmlns:dc="http://purl.org/dc/elements/1.1/" xmlns:inkscape="http://www.inkscape.org/namespaces/inkscape" xmlns:rdf="http://www.w3.org/1999/02/22-rdf-syntax-ns#" xmlns:sodipodi="http://sodipodi.sourceforge.net/DTD/sodipodi-0.dtd" xmlns:svg="http://www.w3.org/2000/svg"
	 xmlns="http://www.w3.org/2000/svg" xmlns:xlink="http://www.w3.org/1999/xlink" x="0px" y="0px" viewBox="0 0 286 400"
	 style="enable-background:new 0 0 286 400;" xml:space="preserve">
<style type="text/css">
	.st0{fill:#D40000;}
</style>
<path id="path3357" inkscape:connector-curvature="0" sodipodi:nodetypes="ccccc" class="st0" d="M41.9,74c12.7-12.4,21.1-26,29-39
	c7,14.3,17,26.9,27.9,39c-11.6,12-20.6,24.9-27.9,38.4C62.9,98.5,54.5,86,41.9,74z"/>
<path id="path3359" inkscape:connector-curvature="0" sodipodi:nodetypes="ccccc" class="st0" d="M41.9,157.8
	c12.7-12.4,21.1-26,29-39c7,14.3,17,26.9,27.9,39c-11.6,12-20.6,24.9-27.9,38.4C62.9,182.3,54.5,169.8,41.9,157.8z"/>
<path id="path3361" inkscape:connector-curvature="0" sodipodi:nodetypes="ccccc" class="st0" d="M41.9,243.6
	c12.7-12.4,21.1-26,29-39c7,14.3,17,26.9,27.9,39c-11.6,12-20.6,24.9-27.9,38.4C62.9,268.1,54.5,255.6,41.9,243.6z"/>
<path id="path3363-3" inkscape:connector-curvature="0" sodipodi:nodetypes="ccccc" class="st0" d="M41.9,327.1
	c12.7-12.4,21.1-26,29-39c7,14.3,17,26.9,27.9,39c-11.6,12-20.6,24.9-27.9,38.4C62.9,351.6,54.5,339.1,41.9,327.1z"/>
<path id="path3365-5" inkscape:connector-curvature="0" sodipodi:nodetypes="ccccc" class="st0" d="M114.2,200.3
	c12.7-12.4,21.1-26,29-39c7,14.3,17,26.9,27.9,39c-11.6,12-20.6,24.9-27.9,38.4C135.2,224.8,126.8,212.3,114.2,200.3L114.2,200.3z"
	/>
<path id="path3369-1" inkscape:connector-curvature="0" sodipodi:nodetypes="ccccc" class="st0" d="M184.8,74
	c12.7-12.4,21.1-26,29-39c7,14.3,17,26.9,27.9,39c-11.6,12-20.6,24.9-27.9,38.4C205.8,98.5,197.4,86,184.8,74z"/>
<path id="path3371-2" inkscape:connector-curvature="0" sodipodi:nodetypes="ccccc" class="st0" d="M184.8,157.8
	c12.7-12.4,21.1-26,29-39c7,14.3,17,26.9,27.9,39c-11.6,12-20.6,24.9-27.9,38.4C205.8,182.3,197.4,169.8,184.8,157.8z"/>
<path id="path3373-0" inkscape:connector-curvature="0" sodipodi:nodetypes="ccccc" class="st0" d="M184.8,243.6
	c12.7-12.4,21.1-26,29-39c7,14.3,17,26.9,27.9,39c-11.6,12-20.6,24.9-27.9,38.4C205.8,268.1,197.4,255.6,184.8,243.6z"/>
<path id="path3375-1" inkscape:connector-curvature="0" sodipodi:nodetypes="ccccc" class="st0" d="M184.8,327.1
	c12.7-12.4,21.1-26,29-39c7,14.3,17,26.9,27.9,39c-11.6,12-20.6,24.9-27.9,38.4C205.8,351.6,197.4,339.1,184.8,327.1z"/>
<path id="path3710" inkscape:connector-curvature="0" sodipodi:nodetypes="ccccc" class="st0" d="M252.4,316.6
	c5.2-5.1,8.6-10.6,11.9-16c2.9,5.9,7,11,11.4,16c-4.8,4.9-8.5,10.2-11.4,15.7C261,326.6,257.5,321.5,252.4,316.6z"/>
<path id="path3712" inkscape:connector-curvature="0" sodipodi:nodetypes="ccccc" class="st0" d="M10.4,78.2
	c5.2-5.1,8.6-10.6,11.9-16c2.9,5.9,7,11,11.4,16c-4.8,4.9-8.5,10.2-11.4,15.7C19.1,88.2,15.6,83.1,10.4,78.2L10.4,78.2z"/>
<path id="path7114-6" inkscape:connector-curvature="0" sodipodi:nodetypes="ccsccccscccsssssss" class="st0" d="M10.6,50.5l3.9-1.2
	c1.5,3.8,4.4,5,7.5,4.7c5.6-0.4,7.5-6.6,7.9-12.1c-2.2,2.3-5.5,3.4-8.3,3.3c-8.9-0.5-11.2-7.5-11.3-14.9c-0.2-6.2,2.4-10.7,6.9-12.8
	c2.4-1,7.8-1,10.2,0.2c5.5,2.8,7.5,7.8,7.1,19.5c0,9.7-2.1,20.9-12.6,21.1C15.8,59.2,11.2,54.6,10.6,50.5L10.6,50.5z M25.8,39.9
	c1.8-1.1,2.9-2.2,3.7-3.8c0.7-1.3,0.9-2,0.7-4.7c-0.5-7-4.2-11-9.6-10.2c-3,0.4-4.7,2.1-5.6,5.2c-1.7,5.7,0.5,12.4,4.6,13.9
	C21.5,41,24.3,40.8,25.8,39.9z"/>
<path id="path7130-4" inkscape:connector-curvature="0" sodipodi:nodetypes="ccsccccscccsssssss" class="st0" d="M274.6,349.5
	l-3.9,1.2c-1.5-3.8-4.4-5-7.5-4.7c-5.6,0.4-7.5,6.6-7.9,12.1c2.2-2.3,5.5-3.4,8.3-3.3c8.9,0.5,11.2,7.5,11.3,14.9
	c0.2,6.2-2.4,10.7-6.9,12.8c-2.4,1-7.8,1-10.2-0.2c-5.5-2.8-7.5-7.8-7.1-19.5c0-9.7,2.1-20.9,12.6-21.1
	C269.3,340.8,274,345.4,274.6,349.5L274.6,349.5z M259.3,360.1c-1.8,1.1-2.9,2.2-3.7,3.8c-0.7,1.3-0.9,2-0.7,4.7
	c0.5,7,4.2,11,9.6,10.2c3-0.4,4.7-2.1,5.6-5.2c1.7-5.7-0.5-12.4-4.6-13.9C263.7,359,260.8,359.2,259.3,360.1L259.3,360.1z"/>
</svg>
