<?xml version="1.0" encoding="utf-8"?>
<!-- Generator: Adobe Illustrator 22.1.0, SVG Export Plug-In . SVG Version: 6.00 Build 0)  -->
<svg version="1.1"
	 id="svg4423" inkscape:version="0.48.1 r9760" sodipodi:docname="9H.svg" xmlns:cc="http://creativecommons.org/ns#" xmlns:dc="http://purl.org/dc/elements/1.1/" xmlns:inkscape="http://www.inkscape.org/namespaces/inkscape" xmlns:rdf="http://www.w3.org/1999/02/22-rdf-syntax-ns#" xmlns:sodipodi="http://sodipodi.sourceforge.net/DTD/sodipodi-0.dtd" xmlns:svg="http://www.w3.org/2000/svg"
	 xmlns="http://www.w3.org/2000/svg" xmlns:xlink="http://www.w3.org/1999/xlink" x="0px" y="0px" viewBox="0 0 286 400"
	 style="enable-background:new 0 0 286 400;" xml:space="preserve">
<style type="text/css">
	.st0{fill:#D40000;}
</style>
<path id="path7114" inkscape:connector-curvature="0" sodipodi:nodetypes="ccsccccscccsssssss" class="st0" d="M10.6,50.5l3.9-1.2
	c1.5,3.8,4.4,5,7.5,4.7c5.6-0.4,7.5-6.6,7.9-12.1c-2.2,2.3-5.5,3.4-8.3,3.3c-8.9-0.5-11.2-7.5-11.3-14.9c-0.2-6.2,2.4-10.7,6.9-12.8
	c2.4-1,7.8-1,10.2,0.2c5.5,2.8,7.5,7.8,7.1,19.5c0,9.7-2.1,20.9-12.6,21.1C15.8,59.2,11.2,54.6,10.6,50.5L10.6,50.5z M25.8,39.9
	c1.8-1.1,2.9-2.2,3.7-3.8c0.7-1.3,0.9-2,0.7-4.7c-0.5-7-4.2-11-9.6-10.2c-3,0.4-4.7,2.1-5.6,5.2c-1.7,5.7,0.5,12.4,4.6,13.9
	C21.5,41,24.3,40.8,25.8,39.9z"/>
<path id="path7130" inkscape:connector-curvature="0" sodipodi:nodetypes="ccsccccscccsssssss" class="st0" d="M274.6,349.5
	l-3.9,1.2c-1.5-3.8-4.4-5-7.5-4.7c-5.6,0.4-7.5,6.6-7.9,12.1c2.2-2.3,5.5-3.4,8.3-3.3c8.9,0.5,11.2,7.5,11.3,14.9
	c0.2,6.2-2.4,10.7-6.9,12.8c-2.4,1-7.8,1-10.2-0.2c-5.5-2.8-7.5-7.8-7.1-19.5c0-9.7,2.1-20.9,12.6-21.1
	C269.3,340.8,274,345.4,274.6,349.5L274.6,349.5z M259.3,360.1c-1.8,1.1-2.9,2.2-3.7,3.8c-0.7,1.3-0.9,2-0.7,4.7
	c0.5,7,4.2,11,9.6,10.2c3-0.4,4.7-2.1,5.6-5.2c1.7-5.7-0.5-12.4-4.6-13.9C263.7,359,260.8,359.2,259.3,360.1L259.3,360.1z"/>
<path id="path8636" inkscape:connector-curvature="0" sodipodi:nodetypes="cccccccc" class="st0" d="M11,74.8
	c-2-4.5-2.3-12.1,3.8-13.1c4.6-0.6,6.4,1.5,6.8,4.8c0.2,1,0.7,1,0.9-0.1c0.3-3.3,3.6-5.3,6.2-4.8c7.1,1.2,6.7,9,4.4,14.3
	c-3.5,7-7.2,11.5-10.6,18.5C18.5,87.1,14.1,81.1,11,74.8L11,74.8z"/>
<path id="path8558" inkscape:connector-curvature="0" sodipodi:nodetypes="ccccsccssc" class="st0" d="M57.5,36.8
	c9.2-0.6,13.9,7.2,14.9,13.4c0.6,1,0.9,0.7,1.1-0.1c0.4-7.9,7.5-14.4,14.1-13.5c10.7,0.1,17.2,12,15.3,22.1C100.6,71,94,78.4,89,86
	c-5.7,7.9-13.3,19.3-15.7,24.8c0,0-7.7-11.8-17.8-25.7c-6.7-9.3-12.1-19.3-12.6-28C42.2,47.2,46.2,38.3,57.5,36.8L57.5,36.8z"/>
<path id="path8560" inkscape:connector-curvature="0" sodipodi:nodetypes="ccccsccssc" class="st0" d="M197.8,36.8
	c9.2-0.6,13.9,7.2,14.9,13.4c0.6,1,0.9,0.7,1.1-0.1c0.4-7.9,7.5-14.4,14.1-13.5c10.7,0.1,17.2,12,15.3,22.1
	c-2.2,12.3-8.8,19.7-13.8,27.3c-5.7,7.9-13.3,19.3-15.7,24.8c0,0-7.7-11.8-17.8-25.7c-6.7-9.3-12.1-19.3-12.6-28
	C182.5,47.2,186.6,38.3,197.8,36.8L197.8,36.8z"/>
<path id="path8562" inkscape:connector-curvature="0" sodipodi:nodetypes="ccccsccssc" class="st0" d="M197.8,120.6
	c9.2-0.6,13.9,7.2,14.9,13.4c0.6,1,0.9,0.7,1.1-0.1c0.4-7.9,7.5-14.4,14.1-13.5c10.7,0.1,17.2,12,15.3,22.1
	c-2.2,12.3-8.8,19.7-13.8,27.3c-5.7,7.9-13.3,19.3-15.7,24.8c0,0-7.7-11.8-17.8-25.7c-6.7-9.3-12.1-19.3-12.6-28
	C182.5,131,186.6,122.1,197.8,120.6L197.8,120.6z"/>
<path id="path8564" inkscape:connector-curvature="0" sodipodi:nodetypes="ccccsccssc" class="st0" d="M127.6,163.1
	c9.2-0.6,13.9,7.2,14.9,13.4c0.6,1,0.9,0.7,1.1-0.1c0.4-7.9,7.5-14.4,14.1-13.5c10.7,0.1,17.2,12,15.3,22.1
	c-2.2,12.3-8.8,19.7-13.8,27.3c-5.7,7.9-13.3,19.3-15.7,24.8c0,0-7.7-11.8-17.8-25.7c-6.7-9.3-12.1-19.3-12.6-28
	C112.3,173.5,116.3,164.7,127.6,163.1L127.6,163.1z"/>
<path id="path8566" inkscape:connector-curvature="0" sodipodi:nodetypes="ccccsccssc" class="st0" d="M57.5,120.6
	c9.2-0.6,13.9,7.2,14.9,13.4c0.6,1,0.9,0.7,1.1-0.1c0.4-7.9,7.5-14.4,14.1-13.5c10.7,0.1,17.2,12,15.3,22.1
	c-2.2,12.3-8.8,19.7-13.8,27.3c-5.7,7.9-13.3,19.3-15.7,24.8c0,0-7.7-11.8-17.8-25.7c-6.7-9.3-12.1-19.3-12.6-28
	C42.2,131,46.2,122.1,57.5,120.6L57.5,120.6z"/>
<path id="path8606" inkscape:connector-curvature="0" sodipodi:nodetypes="ccccsccssc" class="st0" d="M197.8,280.2
	c9.2,0.6,13.9-7.2,14.9-13.4c0.6-1,0.9-0.7,1.1,0.1c0.4,7.9,7.5,14.4,14.1,13.5c10.7-0.1,17.2-12,15.3-22.1
	c-2.2-12.3-8.8-19.7-13.8-27.3c-5.7-7.9-13.3-19.3-15.7-24.8c0,0-7.7,11.8-17.8,25.7c-6.7,9.3-12.1,19.3-12.6,28
	C182.5,269.8,186.6,278.6,197.8,280.2L197.8,280.2z"/>
<path id="path8608" inkscape:connector-curvature="0" sodipodi:nodetypes="ccccsccssc" class="st0" d="M197.8,363.7
	c9.2,0.6,13.9-7.2,14.9-13.4c0.6-1,0.9-0.7,1.1,0.1c0.4,7.9,7.5,14.4,14.1,13.5c10.7-0.1,17.2-12,15.3-22.1
	c-2.2-12.3-8.8-19.7-13.8-27.3c-5.7-7.9-13.3-19.3-15.7-24.8c0,0-7.7,11.8-17.8,25.7c-6.7,9.3-12.1,19.3-12.6,28
	C182.5,353.3,186.6,362.1,197.8,363.7L197.8,363.7z"/>
<path id="path8610" inkscape:connector-curvature="0" sodipodi:nodetypes="ccccsccssc" class="st0" d="M57.5,363.7
	c9.2,0.6,13.9-7.2,14.9-13.4c0.6-1,0.9-0.7,1.1,0.1c0.4,7.9,7.5,14.4,14.1,13.5c10.7-0.1,17.2-12,15.3-22.1
	c-2.2-12.3-8.8-19.7-13.8-27.3c-5.7-7.9-13.3-19.3-15.7-24.8c0,0-7.7,11.8-17.8,25.7c-6.7,9.3-12.1,19.3-12.6,28
	C42.2,353.3,46.2,362.1,57.5,363.7L57.5,363.7z"/>
<path id="path8612" inkscape:connector-curvature="0" sodipodi:nodetypes="ccccsccssc" class="st0" d="M57.5,280.2
	c9.2,0.6,13.9-7.2,14.9-13.4c0.6-1,0.9-0.7,1.1,0.1c0.4,7.9,7.5,14.4,14.1,13.5c10.7-0.1,17.2-12,15.3-22.1
	C100.6,246,94,238.6,89,230.9c-5.7-7.9-13.3-19.3-15.7-24.8c0,0-7.7,11.8-17.8,25.7c-6.7,9.3-12.1,19.3-12.6,28
	C42.2,269.8,46.2,278.6,57.5,280.2L57.5,280.2z"/>
<path id="path8662" inkscape:connector-curvature="0" sodipodi:nodetypes="cccccccc" class="st0" d="M252.9,319.7
	c-2,4.5-2.3,12.1,3.8,13.1c4.6,0.6,6.4-1.5,6.8-4.8c0.2-1,0.7-1,0.9,0.1c0.3,3.3,3.6,5.3,6.2,4.8c7.1-1.2,6.7-9,4.4-14.3
	c-3.5-7-7.2-11.5-10.6-18.5C260.5,307.4,256,313.3,252.9,319.7L252.9,319.7z"/>
</svg>
