<?xml version="1.0" encoding="utf-8"?>
<!-- Generator: Adobe Illustrator 22.1.0, SVG Export Plug-In . SVG Version: 6.00 Build 0)  -->
<svg version="1.1"
	 id="svg4423" inkscape:version="0.48.1 r9760" sodipodi:docname="9S.svg" xmlns:cc="http://creativecommons.org/ns#" xmlns:dc="http://purl.org/dc/elements/1.1/" xmlns:inkscape="http://www.inkscape.org/namespaces/inkscape" xmlns:rdf="http://www.w3.org/1999/02/22-rdf-syntax-ns#" xmlns:sodipodi="http://sodipodi.sourceforge.net/DTD/sodipodi-0.dtd" xmlns:svg="http://www.w3.org/2000/svg"
	 xmlns="http://www.w3.org/2000/svg" xmlns:xlink="http://www.w3.org/1999/xlink" x="0px" y="0px" viewBox="0 0 286 400"
	 style="enable-background:new 0 0 286 400;" xml:space="preserve">
<path id="path7114-5" inkscape:connector-curvature="0" sodipodi:nodetypes="ccsccccscccsssssss" d="M10.6,50.5l3.9-1.2
	c1.5,3.8,4.4,5,7.5,4.7c5.6-0.4,7.5-6.6,7.9-12.1c-2.2,2.3-5.5,3.4-8.3,3.3c-8.9-0.5-11.2-7.5-11.3-14.9c-0.2-6.2,2.4-10.7,6.9-12.8
	c2.4-1,7.8-1,10.2,0.2c5.5,2.8,7.5,7.8,7.1,19.5c0,9.7-2.1,20.9-12.6,21.1C15.8,59.2,11.2,54.6,10.6,50.5L10.6,50.5z M25.8,39.9
	c1.8-1.1,2.9-2.2,3.7-3.8c0.7-1.3,0.9-2,0.7-4.7c-0.5-7-4.2-11-9.6-10.2c-3,0.4-4.7,2.1-5.6,5.2c-1.7,5.7,0.5,12.4,4.6,13.9
	C21.5,41,24.3,40.8,25.8,39.9z"/>
<path id="path7130-9" inkscape:connector-curvature="0" sodipodi:nodetypes="ccsccccscccsssssss" d="M274.6,349.5l-3.9,1.2
	c-1.5-3.8-4.4-5-7.5-4.7c-5.6,0.4-7.5,6.6-7.9,12.1c2.2-2.3,5.5-3.4,8.3-3.3c8.9,0.5,11.2,7.5,11.3,14.9c0.2,6.2-2.4,10.7-6.9,12.8
	c-2.4,1-7.8,1-10.2-0.2c-5.5-2.8-7.5-7.8-7.1-19.5c0-9.7,2.1-20.9,12.6-21.1C269.3,340.8,274,345.4,274.6,349.5L274.6,349.5z
	 M259.3,360.1c-1.8,1.1-2.9,2.2-3.7,3.8c-0.7,1.3-0.9,2-0.7,4.7c0.5,7,4.2,11,9.6,10.2c3-0.4,4.7-2.1,5.6-5.2
	c1.7-5.7-0.5-12.4-4.6-13.9C263.7,359,260.8,359.2,259.3,360.1L259.3,360.1z"/>
<path id="path3232" inkscape:connector-curvature="0" sodipodi:nodetypes="ccsscsccccc" d="M67.6,88.4c0-2.6-2-2.6-2-0.8
	c-0.2,9.5-8.2,14.2-14.1,13.1c-9-1.7-11.9-10.7-11.8-16C40,68.5,56.4,56.5,71.1,35.6C82,54.4,99.8,69.2,100.9,83.8
	c1.4,19.4-23.1,26.6-26.6,4c-0.2-1.6-2.1-2.3-2-0.1c0.5,6.2-0.2,8.8,6.7,24H60.9C64.9,104.6,67.3,95.9,67.6,88.4L67.6,88.4z"/>
<path id="path3234" inkscape:connector-curvature="0" sodipodi:nodetypes="ccsscsccccc" d="M210.5,88.4c0-2.6-2-2.6-2-0.8
	c-0.2,9.5-8.2,14.2-14.1,13.1c-9-1.7-11.9-10.7-11.8-16c0.3-16.3,16.6-28.3,31.4-49.2c10.8,18.8,28.7,33.6,29.8,48.2
	c1.4,19.4-23.1,26.6-26.6,4c-0.2-1.6-2.1-2.3-2-0.1c0.5,6.2-0.2,8.8,6.7,24h-18.2C207.8,104.6,210.2,95.9,210.5,88.4L210.5,88.4z"/>
<path id="path3236" inkscape:connector-curvature="0" sodipodi:nodetypes="ccsscsccccc" d="M210.5,172.2c0-2.6-2-2.6-2-0.8
	c-0.2,9.5-8.2,14.2-14.1,13.1c-9-1.7-11.9-10.7-11.8-16c0.3-16.3,16.6-28.3,31.4-49.2c10.8,18.8,28.7,33.6,29.8,48.2
	c1.4,19.4-23.1,26.6-26.6,4c-0.2-1.6-2.1-2.3-2-0.1c0.5,6.2-0.2,8.8,6.7,24h-18.2C207.8,188.4,210.2,179.7,210.5,172.2L210.5,172.2z
	"/>
<path id="path3238" inkscape:connector-curvature="0" sodipodi:nodetypes="ccsscsccccc" d="M67.6,172.2c0-2.6-2-2.6-2-0.8
	c-0.2,9.5-8.2,14.2-14.1,13.1c-9-1.7-11.9-10.7-11.8-16c0.3-16.3,16.6-28.3,31.4-49.2c10.8,18.8,28.7,33.6,29.8,48.2
	c1.4,19.4-23.1,26.6-26.6,4c-0.2-1.6-2.1-2.3-2-0.1c0.5,6.2-0.2,8.8,6.7,24H60.9C64.9,188.4,67.3,179.7,67.6,172.2L67.6,172.2z"/>
<path id="path3288" inkscape:connector-curvature="0" sodipodi:nodetypes="ccsscsccccc" d="M210.5,312.2c0,2.6-2,2.6-2,0.8
	c-0.2-9.5-8.2-14.2-14.1-13.1c-9,1.7-11.9,10.7-11.8,16c0.3,16.3,16.6,28.3,31.4,49.2c10.8-18.8,28.7-33.6,29.8-48.2
	c1.4-19.4-23.1-26.6-26.6-4c-0.2,1.6-2.1,2.3-2,0.1c0.5-6.2-0.2-8.8,6.7-24h-18.2C207.8,295.9,210.2,304.6,210.5,312.2L210.5,312.2z
	"/>
<path id="path3290" inkscape:connector-curvature="0" sodipodi:nodetypes="ccsscsccccc" d="M210.5,228.6c0,2.6-2,2.6-2,0.8
	c-0.2-9.5-8.2-14.2-14.1-13.1c-9,1.7-11.9,10.7-11.8,16c0.3,16.3,16.6,28.3,31.4,49.2c10.8-18.8,28.7-33.6,29.8-48.2
	c1.4-19.4-23.1-26.6-26.6-4c-0.2,1.6-2.1,2.3-2,0.1c0.5-6.2-0.2-8.8,6.7-24h-18.2C207.8,212.4,210.2,221.1,210.5,228.6L210.5,228.6z
	"/>
<path id="path3292" inkscape:connector-curvature="0" sodipodi:nodetypes="ccsscsccccc" d="M139.9,185.3c0,2.6-2,2.6-2,0.8
	c-0.2-9.5-8.2-14.2-14.1-13.1c-9,1.7-11.9,10.7-11.8,16c0.3,16.3,16.6,28.3,31.4,49.2c10.8-18.8,28.7-33.6,29.8-48.2
	c1.4-19.4-23.1-26.6-26.6-4c-0.2,1.6-2.1,2.3-2,0.1c0.5-6.2-0.2-8.8,6.7-24h-18.2C137.2,169.1,139.7,177.8,139.9,185.3L139.9,185.3z
	"/>
<path id="path3294" inkscape:connector-curvature="0" sodipodi:nodetypes="ccsscsccccc" d="M67.6,228.6c0,2.6-2,2.6-2,0.8
	c-0.2-9.5-8.2-14.2-14.1-13.1c-9,1.7-11.9,10.7-11.8,16c0.3,16.3,16.6,28.3,31.4,49.2c10.8-18.8,28.7-33.6,29.8-48.2
	c1.4-19.4-23.1-26.6-26.6-4c-0.2,1.6-2.1,2.3-2,0.1c0.5-6.2-0.2-8.8,6.7-24H60.9C64.9,212.4,67.3,221.1,67.6,228.6L67.6,228.6z"/>
<path id="path3296" inkscape:connector-curvature="0" sodipodi:nodetypes="ccsscsccccc" d="M67.6,312.2c0,2.6-2,2.6-2,0.8
	c-0.2-9.5-8.2-14.2-14.1-13.1c-9,1.7-11.9,10.7-11.8,16C40,332,56.4,344,71.1,364.9c10.8-18.8,28.7-33.6,29.8-48.2
	c1.4-19.4-23.1-26.6-26.6-4c-0.2,1.6-2.1,2.3-2,0.1c0.5-6.2-0.2-8.8,6.7-24H60.9C64.9,295.9,67.3,304.6,67.6,312.2L67.6,312.2z"/>
<path id="path3320" inkscape:connector-curvature="0" sodipodi:nodetypes="ccscccscsccccc" d="M21.6,86.4c0-1.1-1.1-0.6-1.3-0.2
	c-1.5,2.5-3.7,3.1-5.8,2.2c-2.1-0.9-3.3-2.9-3.1-5.8c0.4-4.4,3.9-9.2,5.6-12c1.6-2.5,3.4-5.4,5.2-9.2c2.2,4.3,3.3,5.5,5.6,9.5
	c2.1,3.5,5,6.9,5.2,11.1c0,3.2-1.3,6.2-4.4,6.7c-1.7,0.3-3.3-0.6-4.5-2.6c-0.4-0.5-1.1-0.2-1.1,0.5c0.2,2.7,1.2,5.1,3.6,8h-8.8
	C19.6,92.6,21.5,89.8,21.6,86.4L21.6,86.4z"/>
<path id="path3344" inkscape:connector-curvature="0" sodipodi:nodetypes="ccscccscsccccc" d="M263.5,308c0,1.1-1.1,0.6-1.3,0.2
	c-1.5-2.5-3.7-3.1-5.8-2.2c-2.1,0.9-3.3,2.9-3.1,5.8c0.4,4.4,3.9,9.2,5.6,12c1.6,2.5,3.4,5.4,5.2,9.2c2.2-4.3,3.3-5.5,5.6-9.5
	c2.1-3.5,5-6.9,5.2-11.1c0-3.2-1.3-6.2-4.4-6.7c-1.7-0.3-3.3,0.6-4.5,2.6c-0.4,0.5-1.1,0.2-1.1-0.5c0.2-2.7,1.2-5.1,3.6-8h-8.8
	C261.5,301.9,263.4,304.6,263.5,308L263.5,308z"/>
</svg>
