<?xml version="1.0" encoding="utf-8"?>
<!-- Generator: Adobe Illustrator 22.1.0, SVG Export Plug-In . SVG Version: 6.00 Build 0)  -->
<svg version="1.1"
	 id="svg4423" inkscape:version="0.48.1 r9760" sodipodi:docname="AC.svg" xmlns:cc="http://creativecommons.org/ns#" xmlns:dc="http://purl.org/dc/elements/1.1/" xmlns:inkscape="http://www.inkscape.org/namespaces/inkscape" xmlns:rdf="http://www.w3.org/1999/02/22-rdf-syntax-ns#" xmlns:sodipodi="http://sodipodi.sourceforge.net/DTD/sodipodi-0.dtd" xmlns:svg="http://www.w3.org/2000/svg"
	 xmlns="http://www.w3.org/2000/svg" xmlns:xlink="http://www.w3.org/1999/xlink" x="0px" y="0px" viewBox="0 0 286 400"
	 style="enable-background:new 0 0 286 400;" xml:space="preserve">
<path id="path7183-7" inkscape:connector-curvature="0" sodipodi:nodetypes="ccccccccccccccccccccc" d="M9.3,59.1v-3.5h3.4L19.9,18
	h4.1l8,37.6h2.8v3.5h-9.4v-3.5H28l-1-5.8h-9.5l-0.7,5.8h2.5v3.5H9.3z M26.2,45.7L22,25.6l-3.9,20.1H26.2z"/>
<path id="path7186-1" inkscape:connector-curvature="0" sodipodi:nodetypes="ccccccccccccccccccccc" d="M276.7,340.9v3.5h-3.4
	l-7.3,37.6h-4.1l-8-37.6h-2.8v-3.5h9.4v3.5H258l1,5.8h9.5l0.7-5.8h-2.5v-3.5H276.7z M259.8,354.3l4.1,20.1l3.9-20.1H259.8z"/>
<path id="path3235" inkscape:connector-curvature="0" sodipodi:nodetypes="cccscccccscscc" d="M133.6,236.7c3.7-7.4,6.4-15,6.9-23.1
	c0.4-3-1.4-3-1.7-0.9c-5.2,20-33,14.6-32.1-4.2c0.8-15.3,15.9-18.5,23.8-13.6c3.1,1.8,2.9,0.7,1.2-1.2c-11.7-13.1-4.6-30,11.2-30.3
	c17.1,1,21.6,19.1,11.1,29.7c-1.3,1.3-4.2,5.4,0.2,2.5c10.6-7.6,25.4,0.6,25.1,12.2c-0.6,21.5-26.7,23.1-32.3,5.1
	c-0.5-2-2.1-3-1.7,0.4c0.8,6.1,2.4,15.3,7,23.4H133.6z"/>
<path id="path3430" inkscape:connector-curvature="0" sodipodi:nodetypes="cccscsccssscccsccccc" d="M16.5,96.4
	c1.5-3.1,3-6.1,3.8-9.5c0.5-3.2-0.6-2-1.2,0.1c-0.9,2.9-3.5,4.3-5.9,4.3C9,91.4,6.8,88,7,84.4c-0.5-3.8,3.4-6.6,6.4-6.4
	c2.2,0.2,4.1,1.3,5.3,2.3c0.8,0.4,1.6,0.6,0.4-0.5c-2.1-2.4-3.9-3.8-3.9-7.3c0-3.3,2.9-6.8,6.6-6.6c4.7,0.1,6.8,3.7,6.8,7
	c0,2.4-1.2,4.7-3.1,6c-1.2,1-0.9,1.7,0.5,0.8c1.3-1.1,2.9-1.6,4.5-1.7c4.5-0.1,6.2,3.8,6,7.4c-0.2,3.4-3.1,6.8-6.9,6.4
	c-3.4-0.4-5.1-3.2-6.2-6.1c-0.3-0.9-0.9-1.1-0.9,0.2c0.8,6.5,3.2,10.5,3.2,10.5H16.5z"/>
<path id="path3478" inkscape:connector-curvature="0" sodipodi:nodetypes="cccscsccssscccsccccc" d="M268.3,304
	c-1.5,3.1-3,6.1-3.8,9.5c-0.5,3.2,0.6,2,1.2-0.1c0.9-2.9,3.5-4.3,5.9-4.3c4.3-0.1,6.5,3.3,6.3,7c0.5,3.8-3.4,6.6-6.4,6.4
	c-2.2-0.2-4.1-1.3-5.3-2.3c-0.8-0.4-1.6-0.6-0.4,0.5c2.1,2.4,3.9,3.8,3.9,7.3c0,3.3-2.9,6.8-6.6,6.6c-4.7-0.1-6.8-3.7-6.8-7
	c0-2.4,1.2-4.7,3.1-6c1.2-1,0.9-1.7-0.5-0.8c-1.3,1.1-2.9,1.6-4.5,1.7c-4.5,0.1-6.2-3.8-6-7.4c0.2-3.4,3.1-6.8,6.9-6.4
	c3.4,0.4,5.1,3.2,6.2,6.1c0.3,0.9,0.9,1.1,0.9-0.2c-0.8-6.5-3.2-10.5-3.2-10.5H268.3z"/>
</svg>
