<?xml version="1.0" encoding="utf-8"?>
<!-- Generator: Adobe Illustrator 22.1.0, SVG Export Plug-In . SVG Version: 6.00 Build 0)  -->
<svg version="1.1"
	 id="svg4423" inkscape:version="0.48.1 r9760" sodipodi:docname="AD.svg" xmlns:cc="http://creativecommons.org/ns#" xmlns:dc="http://purl.org/dc/elements/1.1/" xmlns:inkscape="http://www.inkscape.org/namespaces/inkscape" xmlns:rdf="http://www.w3.org/1999/02/22-rdf-syntax-ns#" xmlns:sodipodi="http://sodipodi.sourceforge.net/DTD/sodipodi-0.dtd" xmlns:svg="http://www.w3.org/2000/svg"
	 xmlns="http://www.w3.org/2000/svg" xmlns:xlink="http://www.w3.org/1999/xlink" x="0px" y="0px" viewBox="0 0 286 400"
	 style="enable-background:new 0 0 286 400;" xml:space="preserve">
<style type="text/css">
	.st0{fill:#D40000;}
</style>
<path id="path3692" inkscape:connector-curvature="0" sodipodi:nodetypes="ccccc" class="st0" d="M114.3,200.2
	c12.7-12.4,21.1-26,29-39c7,14.3,17,26.9,27.9,39c-11.6,12-20.6,24.9-27.9,38.4C135.4,224.7,126.9,212.2,114.3,200.2z"/>
<path id="path3726" inkscape:connector-curvature="0" sodipodi:nodetypes="ccccc" class="st0" d="M251.4,319.5
	c5.2-5.1,8.6-10.6,11.9-16c2.9,5.9,7,11,11.4,16c-4.8,4.9-8.5,10.2-11.4,15.7C260,329.5,256.6,324.4,251.4,319.5L251.4,319.5z"/>
<path id="path3728" inkscape:connector-curvature="0" sodipodi:nodetypes="ccccc" class="st0" d="M10.1,81.3
	c5.2-5.1,8.6-10.6,11.9-16c2.9,5.9,7,11,11.4,16C28.6,86.2,24.9,91.5,22,97C18.7,91.3,15.2,86.2,10.1,81.3L10.1,81.3z"/>
<path id="path7183-2" inkscape:connector-curvature="0" sodipodi:nodetypes="ccccccccccccccccccccc" class="st0" d="M9.3,59.1v-3.5
	h3.4L19.9,18h4.1l8,37.6h2.8v3.5h-9.4v-3.5H28l-1-5.8h-9.5l-0.7,5.8h2.5v3.5H9.3z M26.2,45.7L22,25.6l-3.9,20.1H26.2z"/>
<path id="path7186-60" inkscape:connector-curvature="0" sodipodi:nodetypes="ccccccccccccccccccccc" class="st0" d="M276.7,340.9
	v3.5h-3.4l-7.3,37.6h-4.1l-8-37.6h-2.8v-3.5h9.4v3.5H258l1,5.8h9.5l0.7-5.8h-2.5v-3.5H276.7z M259.8,354.3l4.1,20.1l3.9-20.1H259.8z
	"/>
</svg>
