<?xml version="1.0" encoding="utf-8"?>
<!-- Generator: Adobe Illustrator 22.1.0, SVG Export Plug-In . SVG Version: 6.00 Build 0)  -->
<svg version="1.1"
	 id="svg4423" inkscape:version="0.48.1 r9760" sodipodi:docname="AH.svg" xmlns:cc="http://creativecommons.org/ns#" xmlns:dc="http://purl.org/dc/elements/1.1/" xmlns:inkscape="http://www.inkscape.org/namespaces/inkscape" xmlns:rdf="http://www.w3.org/1999/02/22-rdf-syntax-ns#" xmlns:sodipodi="http://sodipodi.sourceforge.net/DTD/sodipodi-0.dtd" xmlns:svg="http://www.w3.org/2000/svg"
	 xmlns="http://www.w3.org/2000/svg" xmlns:xlink="http://www.w3.org/1999/xlink" x="0px" y="0px" viewBox="0 0 286 400"
	 style="enable-background:new 0 0 286 400;" xml:space="preserve">
<style type="text/css">
	.st0{fill:#D40000;}
</style>
<path id="path7183" inkscape:connector-curvature="0" sodipodi:nodetypes="ccccccccccccccccccccc" class="st0" d="M9.3,59.1v-3.5
	h3.4L19.9,18h4.1l8,37.6h2.8v3.5h-9.4v-3.5H28l-1-5.8h-9.5l-0.7,5.8h2.5v3.5H9.3z M26.2,45.7L22,25.6l-3.9,20.1H26.2z"/>
<path id="path7186" inkscape:connector-curvature="0" sodipodi:nodetypes="ccccccccccccccccccccc" class="st0" d="M276.7,340.9v3.5
	h-3.4l-7.3,37.6h-4.1l-8-37.6h-2.8v-3.5h9.4v3.5H258l1,5.8h9.5l0.7-5.8h-2.5v-3.5H276.7z M259.8,354.3l4.1,20.1l3.9-20.1H259.8z"/>
<path id="path8626" inkscape:connector-curvature="0" sodipodi:nodetypes="cccccccc" class="st0" d="M10.6,77.9
	c-2-4.5-2.3-12.1,3.8-13.1c4.6-0.6,6.4,1.5,6.8,4.8c0.2,1,0.7,1,0.9-0.1c0.3-3.3,3.6-5.3,6.2-4.8c7.1,1.2,6.7,9,4.4,14.3
	c-3.5,7-7.2,11.5-10.6,18.5C18.2,90.2,13.7,84.3,10.6,77.9L10.6,77.9z"/>
<path id="path8512" inkscape:connector-curvature="0" sodipodi:nodetypes="ccccsccssc" class="st0" d="M127.6,163.1
	c9.2-0.6,13.9,7.2,14.9,13.4c0.6,1,0.9,0.7,1.1-0.1c0.4-7.9,7.5-14.4,14.1-13.5c10.7,0.1,17.2,12,15.3,22.1
	c-2.2,12.3-8.8,19.7-13.8,27.3c-5.7,7.9-13.3,19.3-15.7,24.8c0,0-7.7-11.8-17.8-25.7c-6.7-9.3-12.1-19.3-12.6-28
	C112.3,173.5,116.3,164.7,127.6,163.1L127.6,163.1z"/>
<path id="path8648" inkscape:connector-curvature="0" sodipodi:nodetypes="cccccccc" class="st0" d="M252,322.6
	c-2,4.5-2.3,12.1,3.8,13.1c4.6,0.6,6.4-1.5,6.8-4.8c0.2-1,0.7-1,0.9,0.1c0.3,3.3,3.6,5.3,6.2,4.8c7.1-1.2,6.7-9,4.4-14.3
	c-3.5-7-7.2-11.5-10.6-18.5C259.5,310.3,255.1,316.2,252,322.6L252,322.6z"/>
</svg>
