<?xml version="1.0" encoding="utf-8"?>
<!-- Generator: Adobe Illustrator 22.1.0, SVG Export Plug-In . SVG Version: 6.00 Build 0)  -->
<svg version="1.1"
	 id="svg4423" inkscape:version="0.48.1 r9760" sodipodi:docname="AS.svg" xmlns:cc="http://creativecommons.org/ns#" xmlns:dc="http://purl.org/dc/elements/1.1/" xmlns:inkscape="http://www.inkscape.org/namespaces/inkscape" xmlns:rdf="http://www.w3.org/1999/02/22-rdf-syntax-ns#" xmlns:sodipodi="http://sodipodi.sourceforge.net/DTD/sodipodi-0.dtd" xmlns:svg="http://www.w3.org/2000/svg"
	 xmlns="http://www.w3.org/2000/svg" xmlns:xlink="http://www.w3.org/1999/xlink" x="0px" y="0px" viewBox="0 0 286 400"
	 style="enable-background:new 0 0 286 400;" xml:space="preserve">
<path id="path7183-8" inkscape:connector-curvature="0" sodipodi:nodetypes="ccccccccccccccccccccc" d="M9.3,59.1v-3.5h3.4L19.9,18
	h4.1l8,37.6h2.8v3.5h-9.4v-3.5H28l-1-5.8h-9.5l-0.7,5.8h2.5v3.5H9.3z M26.2,45.7L22,25.6l-3.9,20.1H26.2z"/>
<path id="path7186-6" inkscape:connector-curvature="0" sodipodi:nodetypes="ccccccccccccccccccccc" d="M276.7,340.9v3.5h-3.4
	l-7.3,37.6h-4.1l-8-37.6h-2.8v-3.5h9.4v3.5H258l1,5.8h9.5l0.7-5.8h-2.5v-3.5H276.7z M259.8,354.3l4.1,20.1l3.9-20.1H259.8z"/>
<path id="path3192" inkscape:connector-curvature="0" sodipodi:nodetypes="ccsscsccccc" d="M141.3,214.6c0-2.6-2-2.6-2-0.8
	c-0.2,9.5-8.2,14.2-14.1,13.1c-9-1.7-11.9-10.7-11.8-16c0.3-16.3,16.6-28.3,31.4-49.2c10.8,18.8,28.7,33.6,29.8,48.2
	c1.4,19.4-23.1,26.6-26.6,4c-0.2-1.6-2.1-2.3-2-0.1c0.5,6.2-0.2,8.8,6.7,24h-18.2C138.7,230.8,141.1,222.1,141.3,214.6L141.3,214.6z
	"/>
<path id="path3308" inkscape:connector-curvature="0" sodipodi:nodetypes="ccscccscsccccc" d="M22.5,89.6c0-1.1-1.1-0.6-1.3-0.2
	c-1.5,2.5-3.7,3.1-5.8,2.2c-2.1-0.9-3.3-2.9-3.1-5.8c0.4-4.4,3.9-9.2,5.6-12c1.6-2.5,3.4-5.4,5.2-9.2c2.2,4.3,3.3,5.5,5.6,9.5
	c2.1,3.5,5,6.9,5.2,11.1c0,3.2-1.3,6.2-4.4,6.7c-1.7,0.3-3.3-0.6-4.5-2.6c-0.4-0.5-1.1-0.2-1.1,0.5c0.2,2.7,1.2,5.1,3.6,8h-8.8
	C20.5,95.7,22.4,92.9,22.5,89.6z"/>
<path id="path3330" inkscape:connector-curvature="0" sodipodi:nodetypes="ccscccscsccccc" d="M263.8,310.9c0,1.1-1.1,0.6-1.3,0.2
	c-1.5-2.5-3.7-3.1-5.8-2.2c-2.1,0.9-3.3,2.9-3.1,5.8c0.4,4.4,3.9,9.2,5.6,12c1.6,2.5,3.4,5.4,5.2,9.2c2.2-4.3,3.3-5.5,5.6-9.5
	c2.1-3.5,5-6.9,5.2-11.1c0-3.2-1.3-6.2-4.4-6.7c-1.7-0.3-3.3,0.6-4.5,2.6c-0.4,0.5-1.1,0.2-1.1-0.5c0.2-2.7,1.2-5.1,3.6-8h-8.8
	C261.9,304.8,263.7,307.5,263.8,310.9L263.8,310.9z"/>
</svg>
