<svg xmlns="http://www.w3.org/2000/svg" viewBox="0 0 400 115.93"><defs><style>.cls-1{fill:#ef5b56;}</style></defs><title>Asset 2</title><g id="Layer_2" data-name="Layer 2"><g id="Layer_1-2" data-name="Layer 1"><path class="cls-1" d="M394.55,59.74c-4.86.59-1.95,7.37-8.34,9.3S371.94,67.12,369.63,67c-1.33-2.67-2.74-5.25-4.23-7.76s-2.92-4.82-4.27-7-2.52-4-3.49-5.66a18.43,18.43,0,0,1-1.91-4,8.52,8.52,0,0,1-.73-4.49c1.15-4.49,8.62-2.62,11.85-2.76.95,0,6.72-5.68-1.78-7-14.56-2.2-18.81.18-20.14.87-5.46,2.84-5.86,10.66-6,14.39-.25,7,3.54,17,10.29,25.75a34.32,34.32,0,0,0-15.06,9.93,22,22,0,0,0-3.57,5.72c-.48.86-1,1.72-1.47,2.54a33.3,33.3,0,0,1-2.84,4,10.48,10.48,0,0,1-2.93,2.5,4,4,0,0,1-2.85.43,2,2,0,0,1-.69-.69,2.87,2.87,0,0,1-.6-1.21,5.68,5.68,0,0,1-.09-2.24,41.25,41.25,0,0,1,.78-7.59c.52-2.76,1.06-5.28,1.64-7.58q1-4.14,2.41-8.28c.35-1.38.69-2.61,1-3.71s.63-2,.86-2.84l.86-2.59c.8-2.3,1.49-4.65,2.07-7.07,1.26-5.05,1.47-9,.6-11.89s-3.76-4-8.7-3.45c-.69.11-1.5.29-2.42.52l-2.67.77c-1,.29-2.1.66-3.36,1.12-.58.23-1.15.49-1.73.78a18.54,18.54,0,0,1-1.72.77,1.19,1.19,0,0,0-.52.52,2.22,2.22,0,0,0,0,2.07,20,20,0,0,1,.35,4.4,47,47,0,0,1-1,8.36c-.11.58-.23,1.15-.34,1.72a15.08,15.08,0,0,1-.43,1.64c-.18.52-.32,1-.43,1.47-.93,3.22-1.73,6.38-2.42,9.48-.57,2.64-1.12,5.55-1.64,8.71a.38.38,0,0,1,0,.1c-.75-.58-1.54-1.14-2.38-1.67a52.9,52.9,0,0,0-14.83-4.83q-1.72-4.47-3.71-8.7c-1.32-2.82-2.58-5.43-3.79-7.85s-2.24-4.54-3.1-6.38a20.35,20.35,0,0,1-1.64-4.48,10,10,0,0,1-.43-4.91,14.3,14.3,0,0,1,1.12-3.37,7.9,7.9,0,0,1,2.07-2.75,2.14,2.14,0,0,0,.69-1.9,4,4,0,0,0-.69-1.72,8,8,0,0,0-2.24-1,5.45,5.45,0,0,0-1.21-.17,18.57,18.57,0,0,0-8.1,1.72,18.24,18.24,0,0,0-6,4.66q-2.94,3.27-3.62,9.31a28.52,28.52,0,0,0,.52,8.1,59,59,0,0,0,3,9,57,57,0,0,0,6.64,11.47,34.56,34.56,0,0,0-13.47,7.45,1.52,1.52,0,0,0-.4.36c-.63.59-1.24,1.2-1.82,1.84a23,23,0,0,0-5.37,10c-.28.38-.55.75-.85,1.13a49.28,49.28,0,0,1-4,4.6,24.72,24.72,0,0,1-5.79,4.41,28.92,28.92,0,0,1-6.62,2.58,20.35,20.35,0,0,1-8.29.39,8.57,8.57,0,0,1-7.39-5.25c2.83-2.46,36.11-25.91,30.47-39.63a15.65,15.65,0,0,0-2.43-3.87,25.61,25.61,0,0,0-2.43-2.45,15.17,15.17,0,0,0-2.75-1.59c-1-.44-1.94-.82-2.81-1.15a17.69,17.69,0,0,0-3.08-.74,23.77,23.77,0,0,0-10.73.8,30.73,30.73,0,0,0-10.86,5.86,43.84,43.84,0,0,0-9.27,10.67,45.84,45.84,0,0,0-5.94,15.19A29.83,29.83,0,0,0,191,96.47a22.4,22.4,0,0,0,1.11,2.9c-5.75,4.6-12,6.42-12.11,2.4a30.6,30.6,0,0,1,1.21-7.41,70.34,70.34,0,0,1,3.27-9.83A162,162,0,0,0,190.12,68a83.69,83.69,0,0,0,3.19-16.81q.6-7.85-1.64-13.11t-9-5.6a12.45,12.45,0,0,0-6,1.21,22.66,22.66,0,0,0-5.51,3.7,38.21,38.21,0,0,0-4.92,5.43A64.52,64.52,0,0,0,162,49.18q1.72-7.57.08-10.6t-7.15-3a11.42,11.42,0,0,0-6.12,1.9,28.89,28.89,0,0,0-5.86,5,56.82,56.82,0,0,0-5.52,7.16A93.27,93.27,0,0,0,132.54,58l1.72-4.31q2.42-6.56,1.29-9.83c-.75-2.18-3.3-3-7.67-2.41-.69.11-1.49.28-2.41.51s-1.73.46-2.76.69a17.93,17.93,0,0,0-3.45,1.21,13.42,13.42,0,0,1-1.55.52,2.16,2.16,0,0,0-1,.51,6.12,6.12,0,0,1-.86.52,1.19,1.19,0,0,0-.52.52A1.79,1.79,0,0,0,115,47.8c.11.47.23.87.34,1.21a4.35,4.35,0,0,1,.18,1.38,13.21,13.21,0,0,1-.35,2.5,38.76,38.76,0,0,1-1.38,4.57q-1.38,4.65-2.58,9.65-1,4.32-2.07,9.4c-.28,1.39-.52,2.74-.74,4.1-.2.47-.38.94-.59,1.42a62.2,62.2,0,0,1-2.93,6,26.72,26.72,0,0,1-4.48,6,25.11,25.11,0,0,1-5.43,4,14.24,14.24,0,0,1-7.16,1.81,6.6,6.6,0,0,1-4.57-1.46,10.25,10.25,0,0,1-2.5-3.36,11.83,11.83,0,0,1-1-3.88,21,21,0,0,1,0-3.88v-1.9a3.72,3.72,0,0,1,.17-1.21,9.9,9.9,0,0,0,7.59-.25,20.94,20.94,0,0,0,7.07-5.26,35.12,35.12,0,0,0,5.69-8.88,45.91,45.91,0,0,0,3.44-11.12,30.83,30.83,0,0,0,.26-8.19,19.18,19.18,0,0,0-1.64-6,17.69,17.69,0,0,0-2.58-4A23.52,23.52,0,0,0,97.24,38a10.69,10.69,0,0,0-2.58-1.38c-.92-.35-1.79-.63-2.59-.86a11.35,11.35,0,0,0-2.76-.35,16.69,16.69,0,0,0-9.22,2.67,29.16,29.16,0,0,0-8.71,8.54,55.18,55.18,0,0,0-6.72,13.79,67.84,67.84,0,0,0-3.28,18.45,45,45,0,0,0,1.9,15.69A32.28,32.28,0,0,0,66,100.22a19.47,19.47,0,0,0,4.31,5,20.17,20.17,0,0,0,6.38,3.53,26.49,26.49,0,0,0,8.71,1.3A22.45,22.45,0,0,0,95.18,108a35.41,35.41,0,0,0,7.24-4.49A35.87,35.87,0,0,0,107.63,98a20,20,0,0,0,1,3.84,9.27,9.27,0,0,0,9,6.29,19.77,19.77,0,0,0,7.41-1.38,1.41,1.41,0,0,0,1.21-1.38,1.85,1.85,0,0,0-.35-1l-.34-.69c-.12-.23-.29-.52-.52-.87-.8-2.29-.8-5.43,0-9.39a81.52,81.52,0,0,1,3.71-12.59,131.38,131.38,0,0,1,5.77-13.1,103.66,103.66,0,0,1,6.3-10.95,27.61,27.61,0,0,1,5.34-6.29q2.32-1.81,3,1c.23,1.15-.06,3-.86,5.69s-1.84,5.63-3.11,9-2.58,6.93-4,10.78A83.38,83.38,0,0,0,138.14,88a34.83,34.83,0,0,0-.78,9.82,10.37,10.37,0,0,0,3.11,7.07A9.89,9.89,0,0,0,144,107a11.24,11.24,0,0,0,3.54.6,10.41,10.41,0,0,0,3.27-.51,11,11,0,0,0,2.59-1.21,1.57,1.57,0,0,0,.69-1.9,2.82,2.82,0,0,0-.69-1,9.45,9.45,0,0,1-2-4.57A34.89,34.89,0,0,1,151,93a33.41,33.41,0,0,1,.69-6.55,60.36,60.36,0,0,1,4.92-15.26,93.78,93.78,0,0,1,7.5-13.28,49.18,49.18,0,0,1,7.67-9q3.7-3.27,5.6-2.76a2.74,2.74,0,0,1,1.81,3,17.83,17.83,0,0,1-.94,4.91,48.54,48.54,0,0,1-2.59,6.9q-2.41,4.65-5.43,11.12a102.79,102.79,0,0,0-5.09,13.19,57.53,57.53,0,0,0-2.5,12.84,14.78,14.78,0,0,0,2.67,10.26c2.65,3.45,6.64,6.1,14,6.12,8,0,15.73-3.66,19.85-6.51a27.61,27.61,0,0,0,5.16,2.8,38.94,38.94,0,0,0,9.66,2.51,32.92,32.92,0,0,0,11.35-.18,44.51,44.51,0,0,0,8.71-2.65,37.4,37.4,0,0,0,7.61-4.61c.74-.58,1.42-1.2,2.09-1.82,0,.09.05.19.08.28a16.84,16.84,0,0,0,2.5,5,13.83,13.83,0,0,0,3.53,3.36,17.63,17.63,0,0,0,4,2,26.23,26.23,0,0,0,11,1.21q8.44-.87,13.27-4.31a28.41,28.41,0,0,0,7.24-7.07A23,23,0,0,0,288.88,95a24,24,0,0,0,.43-5.52,41.58,41.58,0,0,0-.6-5.86,23.72,23.72,0,0,1,6.38,2.84,17.54,17.54,0,0,1,3.79,3.36,11.2,11.2,0,0,1,1.9,3.28,19.34,19.34,0,0,1,.69,2.59,1.25,1.25,0,0,0,.1.29,22.44,22.44,0,0,0,1.35,5.24,11.81,11.81,0,0,0,3.36,4.82,9.44,9.44,0,0,0,5.78,2,18.19,18.19,0,0,0,12.58-3.88A42.19,42.19,0,0,0,330,99c.13.41.27.8.43,1.18a15.39,15.39,0,0,0,2.8,4.43,13.75,13.75,0,0,0,3.74,2.86,18.45,18.45,0,0,0,4.16,1.55,28.18,28.18,0,0,0,11.09.37q8.37-1.35,13-4.85a27.4,27.4,0,0,0,6.79-7,20.24,20.24,0,0,0,2.86-9,21.58,21.58,0,0,0,.09-5.1,34.16,34.16,0,0,0-1-5.35c18.13,6.28,23.64-4.26,25.37-8.36C400.71,66.57,400.26,59.84,394.55,59.74Zm-171.3,1.59a8.39,8.39,0,0,1,9.26-1.19c1.81,1.08,1.86,2.81.41,6.5a20.7,20.7,0,0,1-1.61,3c-.69,1.05-1.43,2.07-2.23,3.06a80.41,80.41,0,0,1-18.15,13.84S212.15,71.54,223.25,61.33ZM84.66,63.75c.8-2.35,1.32-3.82,1.55-4.39a52.42,52.42,0,0,1,4-9.83q2.23-4.14,4.65-4c1.49.35,2.13,1.67,1.9,4A22.71,22.71,0,0,1,96,53.32,28.16,28.16,0,0,1,95,57c-.46,1.32-1,2.61-1.55,3.88a21.22,21.22,0,0,1-6.29,8,36.32,36.32,0,0,1-5.09,3.19Q83.45,67.29,84.66,63.75Zm188,36.8a14.29,14.29,0,0,1-4.49,6,10.77,10.77,0,0,1-6.72,2.24c-3,.11-5.15-.4-6.47-1.55a10.94,10.94,0,0,1-2.84-3.62,10.71,10.71,0,0,1-.52-5.17,15.9,15.9,0,0,1,2.93-7.25,19.31,19.31,0,0,1,5.17-4.74,26.58,26.58,0,0,1,6-2.76,36,36,0,0,1,5.69-1.29,24.51,24.51,0,0,1,2.59,9.74A19.93,19.93,0,0,1,272.68,100.55Zm86.37-5.74a13.25,13.25,0,0,1-4.11,5.77,11.36,11.36,0,0,1-6.57,2.51c-3,.31-5.16,0-6.55-1A10.4,10.4,0,0,1,338.76,99a9.27,9.27,0,0,1-.83-4.73,14,14,0,0,1,2.48-6.85,18.57,18.57,0,0,1,4.87-4.7,26.73,26.73,0,0,1,5.85-2.94,38.94,38.94,0,0,1,5.6-1.57A21.13,21.13,0,0,1,359.91,87,17.09,17.09,0,0,1,359.05,94.81Z"/><path class="cls-1" d="M52.61,80.74a41.34,41.34,0,0,1,1.17-13.92q1.86-8,8.14-18a67.06,67.06,0,0,0,8.71-19q2.25-8.82,1-15.28A18.48,18.48,0,0,0,66.23,4.22,16.07,16.07,0,0,0,56,0a13.69,13.69,0,0,0-8.92,3.14,46.53,46.53,0,0,0-8.42,8.42,91.78,91.78,0,0,0-7.45,11.07c-2.29,4-4.21,7.54-5.78,10.68.26-.91.46-1.73.59-2.45s.26-1.4.39-2.06l.39-2c.66-3.65.52-6.49-.39-8.52S23,15.62,18.81,16.27c-.78.13-1.7.33-2.74.59s-1.93.52-3,.78A21.22,21.22,0,0,0,9.21,19a12.79,12.79,0,0,1-1.76.58,2.56,2.56,0,0,0-1.18.59,9.71,9.71,0,0,1-1,.59,1.3,1.3,0,0,0-.59.59,3.05,3.05,0,0,0,0,2.15,6.81,6.81,0,0,0,.49,1.37,4.44,4.44,0,0,1,.39,1.57,12,12,0,0,1-.19,2.84q-.3,1.88-1.08,5.19-1.17,5.3-2,11Q1.57,50.36.88,56.15T0,67.41a76.37,76.37,0,0,0,.59,9.8A25.26,25.26,0,0,0,2.74,85,13,13,0,0,0,7,90a12.53,12.53,0,0,0,6.76,2.06c7.46-.24,7.46-3.94,7.44-7.84a52.22,52.22,0,0,1,.69-13.62,113.44,113.44,0,0,1,3.62-15.08A128.44,128.44,0,0,1,31,41.06a114.87,114.87,0,0,1,6.27-12.15A42,42,0,0,1,43,21.07q2.64-2.64,4-1.47c1,1,1.44,2.84,1.18,5.39a41.05,41.05,0,0,1-1.57,7.74q-1.37,4.71-3.52,10.19a151.41,151.41,0,0,0-8.92,25Q31.75,78.19,32,85t2.64,10.68a16.64,16.64,0,0,0,5.39,5.78,15.43,15.43,0,0,0,6.27,2.25,27.23,27.23,0,0,0,5.39.2,11.09,11.09,0,0,0,6.36-2.36c1.5-1.3,2.81-4.1-2.44-11.26A22,22,0,0,1,52.61,80.74Z"/><path class="cls-1" d="M314.43,28.22c4.22-.12,7.93-3.42,9.23-7.33a9.66,9.66,0,0,0,0-6.6,8.31,8.31,0,0,0-4.18-4.24,10.54,10.54,0,0,0-11.84,2.18,9.51,9.51,0,0,0-3.1,6.69A5.61,5.61,0,0,0,306,22.74,8.85,8.85,0,0,0,314.43,28.22Z"/></g></g></svg>